{
.appVersion = "1181";
DisplayStrings = (
"%¼½¾ÀÁÂÃÄÅÇÈÉÌÍÑÒÓÙÚÛÜÝàáâäçèéêëìíïòóôùúûý/Amacron/Abreve/abreve/Cacute/cacute/Ccircumflex/ccircumflex/Cdotaccent/cdotaccent/Ccaron/ccaron/Dcaron/emacron/Ebreve/ebreve/Edotaccent/edotaccent/Eogonek/Ecaron/ecaron/gcircumflex/Gbreve/gbreve/Gdotaccent/gdotaccent/Iogonek/Lcaron/Nacute/nacute/Ncaron/ncaron/napostrophe/Omacron/Obreve/obreve/Ohungarumlaut/ohungarumlaut/Racute/racute/Rcommaaccent/Rcaron/rcaron/Sacute/sacute/Scircumflex/scircumflex/uni015E/uni015F/Scaron/scaron/uni0162/uni0163/Tcaron/Utilde/Umacron/Ubreve/Uring/Uhungarumlaut/uhungarumlaut/Uogonek/uogonek/Wcircumflex/wcircumflex/Ycircumflex/ycircumflex/Ydieresis/Zacute/zacute/Zdotaccent/zdotaccent/Zcaron/zcaron/uni01C4/uni01C5/uni01C6/oogonek/Gacute/gacute/aringacute/Adblgrave/adblgrave/Ainvertedbreve/Edblgrave/edblgrave/einvertedbreve/Idblgrave/idblgrave/Odblgrave/odblgrave/Oinvertedbreve/Rdblgrave/rdblgrave/Rinvertedbreve/rinvertedbreve/Udblgrave/udblgrave/Uinvertedbreve/uni0218/Ddotbelow/ddotbelow/ndotaccent/Rdotbelow/Sdotbelow/Wgrave/wgrave/Wacute/wacute/Wdieresis/Zdotbelow/Edotbelow/edotbelow/Etilde/etilde/idotbelow/odotbelow/Udotbelow/Ygrave/ygrave/Ytilde/perthousand/onethird/twothirds/oneeighth/threeeighths/fiveeighths/seveneighths"
);
copyright = "Copyright (c) 2012, Impallari Type (www.impallari.com)";
customParameters = (
{
name = glyphOrder;
value = (
.notdef,
CR,
space,
exclam,
quotedbl,
numbersign,
dollar,
percent,
ampersand,
quotesingle,
parenleft,
parenright,
asterisk,
plus,
comma,
hyphen,
period,
slash,
zero,
one,
two,
three,
four,
five,
six,
seven,
eight,
nine,
colon,
semicolon,
less,
equal,
greater,
question,
at,
A,
B,
C,
D,
E,
F,
G,
H,
I,
J,
K,
L,
M,
N,
O,
P,
Q,
R,
S,
T,
U,
V,
W,
X,
Y,
Z,
bracketleft,
backslash,
bracketright,
asciicircum,
underscore,
grave,
a,
b,
c,
d,
e,
f,
g,
h,
i,
j,
k,
l,
m,
n,
o,
p,
q,
r,
s,
t,
u,
v,
w,
x,
y,
z,
braceleft,
bar,
braceright,
asciitilde,
uni00A0,
exclamdown,
cent,
sterling,
currency,
yen,
brokenbar,
section,

glyphs = (
{
glyphname = exclam;
layers = (
{
layerId = master01;
paths = (
{
closed = 1;
nodes = (
"130 280 OFFCURVE",
"135 381 OFFCURVE",
"142 465 CURVE SMOOTH",
"150 564 OFFCURVE",
"159 639 OFFCURVE",
"159 666 CURVE SMOOTH",
"159 695 OFFCURVE",
"146 712 OFFCURVE",
"120 712 CURVE SMOOTH",
"96 712 OFFCURVE",
"81 694 OFFCURVE",
"81 663 CURVE SMOOTH",
"81 637 OFFCURVE",
"88 561 OFFCURVE",
"98 461 CURVE SMOOTH",
"107 378 OFFCURVE",
"109 279 OFFCURVE",
"115 170 CURVE",
"125 170 LINE"
);
},
{
closed = 1;
nodes = (
"72 11 OFFCURVE",
"91 -10 OFFCURVE",
"120 -10 CURVE SMOOTH",
"149 -10 OFFCURVE",
"168 11 OFFCURVE",
"168 38 CURVE SMOOTH",
"168 65 OFFCURVE",
"149 86 OFFCURVE",
"120 86 CURVE SMOOTH",
"91 86 OFFCURVE",
"72 65 OFFCURVE",
"72 38 CURVE SMOOTH"
);
}
);
width = 240;
}
);
unicode = 0021;
},
{
glyphname = quotedbl;
layers = (
{
layerId = master01;
paths = (
{
closed = 1;
nodes = (
"89 510 LINE",
"89 616 OFFCURVE",
"111 650 OFFCURVE",
"111 684 CURVE SMOOTH",
"111 705 OFFCURVE",
"100 714 OFFCURVE",
"84 714 CURVE SMOOTH",
"68 714 OFFCURVE",
"57 705 OFFCURVE",
"57 684 CURVE SMOOTH",
"57 651 OFFCURVE",
"79 616 OFFCURVE",
"79 510 CURVE"
);
},
{
closed = 1;
nodes = (
"179 510 LINE",
"179 616 OFFCURVE",
"201 650 OFFCURVE",
"201 684 CURVE SMOOTH",
"201 705 OFFCURVE",
"190 714 OFFCURVE",
"174 714 CURVE SMOOTH",
"158 714 OFFCURVE",
"147 705 OFFCURVE",
"147 684 CURVE SMOOTH",
"147 651 OFFCURVE",
"169 616 OFFCURVE",
"169 510 CURVE"
);
}
);
width = 258;
}
);
leftKerningGroup = quotesingle;
rightKerningGroup = quotesingle;
unicode = 0022;
},
{
glyphname = numbersign;
layers = (
{
layerId = master01;
paths = (
{
closed = 1;
nodes = (
"552 444 LINE",
"547 422 LINE",
"85 422 LINE",
"90 444 LINE"
);
},
{
closed = 1;
nodes = (
"517 252 LINE",
"511 230 LINE",
"49 230 LINE",
"54 252 LINE"
);
},
{
closed = 1;
nodes = (
"179 92 LINE",
"156 92 LINE",
"233 583 LINE",
"256 583 LINE"
);
},
{
closed = 1;
nodes = (
"371 92 LINE",
"348 92 LINE",
"425 583 LINE",
"448 583 LINE"
);
}
);
width = 601;
}
);
unicode = 0023;
},
{
glyphname = dollar;
layers = (
{
layerId = master01;
paths = (
{
closed = 1;
nodes = (
"269 -101 LINE",
"247 -101 LINE",
"247 800 LINE",
"269 800 LINE"
);
},
{
closed = 1;
nodes = (
"342 -4 OFFCURVE",
"411 50 OFFCURVE",
"411 139 CURVE SMOOTH",
"411 232 OFFCURVE",
"335 266 OFFCURVE",
"227 315 CURVE SMOOTH",
"142 354 OFFCURVE",
"49 397 OFFCURVE",
"49 513 CURVE SMOOTH",
"49 627 OFFCURVE",
"139 706 OFFCURVE",
"264 706 CURVE SMOOTH",
"363 706 OFFCURVE",
"454 657 OFFCURVE",
"454 605 CURVE SMOOTH",
"454 584 OFFCURVE",
"439 568 OFFCURVE",
"418 568 CURVE SMOOTH",
"391 568 OFFCURVE",
"382 592 OFFCURVE",
"377 607 CURVE SMOOTH",
"360 654 OFFCURVE",
"339 694 OFFCURVE",
"260 694 CURVE SMOOTH",
"171 694 OFFCURVE",
"114 644 OFFCURVE",
"114 560 CURVE SMOOTH",
"114 469 OFFCURVE",
"181 437 OFFCURVE",
"295 383 CURVE SMOOTH",
"390 338 OFFCURVE",
"473 297 OFFCURVE",
"473 189 CURVE SMOOTH",
"473 67 OFFCURVE",
"366 -16 OFFCURVE",
"244 -16 CURVE SMOOTH",
"142 -16 OFFCURVE",
"53 42 OFFCURVE",
"53 102 CURVE SMOOTH",
"53 126 OFFCURVE",
"67 142 OFFCURVE",
"89 142 CURVE SMOOTH",
"114 142 OFFCURVE",
"123 121 OFFCURVE",
"130 103 CURVE SMOOTH",
"154 42 OFFCURVE",
"161 -4 OFFCURVE",
"248 -4 CURVE SMOOTH"
);
}
);
width = 516;
}
);
unicode = 0024;
},
{
glyphname = ampersand;
layers = (
{
layerId = master01;
paths = (
{
closed = 1;
nodes = (
"787 102 LINE",
"783 91 LINE SMOOTH",
"758 22 OFFCURVE",
"700 -20 OFFCURVE",
"631 -20 CURVE SMOOTH",
"579 -20 OFFCURVE",
"540 3 OFFCURVE",
"488 63 CURVE SMOOTH",
"220 374 LINE SMOOTH",
"158 445 OFFCURVE",
"137 487 OFFCURVE",
"137 538 CURVE SMOOTH",
"137 636 OFFCURVE",
"214 706 OFFCURVE",
"321 706 CURVE SMOOTH",
"413 706 OFFCURVE",
"476 654 OFFCURVE",
"476 578 CURVE SMOOTH",
"476 499 OFFCURVE",
"408 422 OFFCURVE",
"307 385 CURVE",
"303 392 LINE",
"373 430 OFFCURVE",
"409 488 OFFCURVE",
"409 565 CURVE SMOOTH",
"409 644 OFFCURVE",
"370 694 OFFCURVE",
"308 694 CURVE SMOOTH",
"249 694 OFFCURVE",
"207 648 OFFCURVE",
"207 581 CURVE SMOOTH",
"207 526 OFFCURVE",
"236 469 OFFCURVE",
"303 394 CURVE SMOOTH",
"544 120 LINE SMOOTH",
"598 59 OFFCURVE",
"626 40 OFFCURVE",
"670 40 CURVE SMOOTH",
"709 40 OFFCURVE",
"737 54 OFFCURVE",
"773 93 CURVE SMOOTH",
"783 104 LINE"
);
},
{
closed = 1;
nodes = (
"529 102 OFFCURVE",
"395 -20 OFFCURVE",
"241 -20 CURVE SMOOTH",
"117 -20 OFFCURVE",
"46 41 OFFCURVE",
"46 147 CURVE SMOOTH",
"46 249 OFFCURVE",
"114 328 OFFCURVE",
"244 369 CURVE",
"250 365 LINE",
"179 328 OFFCURVE",
"136 256 OFFCURVE",
"136 172 CURVE SMOOTH",
"136 78 OFFCURVE",
"192 16 OFFCURVE",
"277 16 CURVE SMOOTH",
"404 16 OFFCURVE",
"541 145 OFFCURVE",
"611 331 CURVE SMOOTH",
"614 339 OFFCURVE",
"615 342 OFFCURVE",
"615 348 CURVE SMOOTH",
"615 363 OFFCURVE",
"608 369 OFFCURVE",
"585 371 CURVE SMOOTH",
"504 376 LINE",
"504 384 LINE",
"757 384 LINE",
"757 376 LINE",
"681 371 LINE SMOOTH",
"647 369 OFFCURVE",
"640 363 OFFCURVE",
"627 331 CURVE SMOOTH"
);
}
);
width = 828;
}
);
unicode = 0026;
userData = {
com.typemytype.robofont.guides = (
{
angle = 0;
isGlobal = 0;
magnetic = 5;
x = 0;
y = -20;
}
);
};
},
{
glyphname = quotesingle;
layers = (
{
layerId = master01;
paths = (
{
closed = 1;
nodes = (
"89 510 LINE",
"89 616 OFFCURVE",
"111 650 OFFCURVE",
"111 684 CURVE SMOOTH",
"111 705 OFFCURVE",
"100 714 OFFCURVE",
"84 714 CURVE SMOOTH",
"68 714 OFFCURVE",
"57 705 OFFCURVE",
"57 684 CURVE SMOOTH",
"57 651 OFFCURVE",
"79 616 OFFCURVE",
"79 510 CURVE"
);
}
);
width = 168;
}
);
leftKerningGroup = quotesingle;
rightKerningGroup = quotesingle;
unicode = 0027;
},
{
glyphname = parenleft;
layers = (
{
layerId = master01;
paths = (
{
closed = 1;
nodes = (
"119 82 OFFCURVE",
"169 -98 OFFCURVE",
"241 -175 CURVE",
"237 -178 LINE",
"151 -107 OFFCURVE",
"43 81 OFFCURVE",
"43 282 CURVE SMOOTH",
"43 483 OFFCURVE",
"151 671 OFFCURVE",
"237 742 CURVE",
"241 739 LINE",
"169 662 OFFCURVE",
"119 480 OFFCURVE",
"119 281 CURVE SMOOTH"
);
}
);
width = 267;
}
);
unicode = 0028;
},
{
glyphname = parenright;
layers = (
{
layerId = master01;
paths = (
{
closed = 1;
nodes = (
"148 480 OFFCURVE",
"98 662 OFFCURVE",
"26 739 CURVE",
"30 742 LINE",
"116 671 OFFCURVE",
"224 483 OFFCURVE",
"224 282 CURVE SMOOTH",
"224 81 OFFCURVE",
"116 -107 OFFCURVE",
"30 -178 CURVE",
"26 -175 LINE",
"98 -98 OFFCURVE",
"148 82 OFFCURVE",
"148 281 CURVE SMOOTH"
);
}
);
width = 267;
}
);
unicode = 0029;
},
{
glyphname = asterisk;
layers = (
{
layerId = master01;
paths = (
{
closed = 1;
nodes = (
"231 705 OFFCURVE",
"220 714 OFFCURVE",
"204 714 CURVE SMOOTH",
"188 714 OFFCURVE",
"177 705 OFFCURVE",
"177 685 CURVE SMOOTH",
"177 660 OFFCURVE",
"198 638 OFFCURVE",
"199 565 CURVE",
"127 614 OFFCURVE",
"118 652 OFFCURVE",
"91 652 CURVE SMOOTH",
"78 652 OFFCURVE",
"65 644 OFFCURVE",
"65 627 CURVE SMOOTH",
"65 597 OFFCURVE",
"108 607 OFFCURVE",
"194 557 CURVE",
"107 508 OFFCURVE",
"65 518 OFFCURVE",
"65 487 CURVE SMOOTH",
"65 470 OFFCURVE",
"78 463 OFFCURVE",
"90 463 CURVE SMOOTH",
"118 463 OFFCURVE",
"127 501 OFFCURVE",
"199 549 CURVE",
"198 477 OFFCURVE",
"177 454 OFFCURVE",
"177 430 CURVE SMOOTH",
"177 411 OFFCURVE",
"188 401 OFFCURVE",
"204 401 CURVE SMOOTH",
"220 401 OFFCURVE",
"231 412 OFFCURVE",
"231 430 CURVE SMOOTH",
"231 455 OFFCURVE",
"210 478 OFFCURVE",
"209 549 CURVE",
"281 501 OFFCURVE",
"290 463 OFFCURVE",
"317 463 CURVE SMOOTH",
"330 463 OFFCURVE",
"343 471 OFFCURVE",
"343 488 CURVE SMOOTH",
"343 518 OFFCURVE",
"300 508 OFFCURVE",
"214 557 CURVE",
"301 607 OFFCURVE",
"343 597 OFFCURVE",
"343 627 CURVE SMOOTH",
"343 645 OFFCURVE",
"329 652 OFFCURVE",
"317 652 CURVE SMOOTH",
"290 652 OFFCURVE",
"281 614 OFFCURVE",
"209 565 CURVE",
"210 637 OFFCURVE",
"231 659 OFFCURVE",
"231 685 CURVE SMOOTH"
);
}
);
width = 408;
}
);
unicode = 002A;
},
{
glyphname = plus;
layers = (
{
layerId = master01;
paths = (
{
closed = 1;
nodes = (
"397 355 LINE",
"397 333 LINE",
"57 333 LINE",
"57 355 LINE"
);
},
{
closed = 1;
nodes = (
"238 174 LINE",
"216 174 LINE",
"216 514 LINE",
"238 514 LINE"
);
}
);
width = 454;
}
);
unicode = 002B;
},
{
glyphname = comma;
layers = (
{
layerId = master01;
paths = (
{
closed = 1;
nodes = (
"138 -113 OFFCURVE",
"171 -51 OFFCURVE",
"171 20 CURVE SMOOTH",
"171 72 OFFCURVE",
"146 99 OFFCURVE",
"111 99 CURVE SMOOTH",
"84 99 OFFCURVE",
"64 78 OFFCURVE",
"64 48 CURVE SMOOTH",
"64 -1 OFFCURVE",
"123 5 OFFCURVE",
"123 -52 CURVE SMOOTH",
"123 -85 OFFCURVE",
"102 -128 OFFCURVE",
"73 -156 CURVE",
"77 -161 LINE"
);
}
);
width = 234;
}
);
leftKerningGroup = period;
rightKerningGroup = period;
unicode = 002C;
},
{
glyphname = hyphen;
layers = (
{
layerId = master01;
paths = (
{
closed = 1;
nodes = (
"292 238 LINE",
"285 216 LINE",
"65 216 LINE",
"72 238 LINE"
);
}
);
width = 356;
}
);
leftKerningGroup = hyphen;
rightKerningGroup = hyphen;
unicode = 002D;
},
{
glyphname = period;
layers = (
{
layerId = master01;
paths = (
{
closed = 1;
nodes = (
"64 19 OFFCURVE",
"85 -4 OFFCURVE",
"116 -4 CURVE SMOOTH",
"147 -4 OFFCURVE",
"167 19 OFFCURVE",
"167 48 CURVE SMOOTH",
"167 77 OFFCURVE",
"147 99 OFFCURVE",
"116 99 CURVE SMOOTH",
"85 99 OFFCURVE",
"64 77 OFFCURVE",
"64 48 CURVE SMOOTH"
);
}
);
width = 231;
}
);
leftKerningGroup = period;
rightKerningGroup = period;
unicode = 002E;
},
{
glyphname = slash;
layers = (
{
layerId = master01;
paths = (
{
closed = 1;
nodes = (
"69 0 LINE",
"46 0 LINE",
"256 690 LINE",
"279 690 LINE"
);
}
);
width = 325;
}
);
unicode = 002F;
},
{
glyphname = zero;
layers = (
{
layerId = master01;
paths = (
{
closed = 1;
nodes = (
"453 706 OFFCURVE",
"566 546 OFFCURVE",
"566 345 CURVE SMOOTH",
"566 144 OFFCURVE",
"453 -16 OFFCURVE",
"311 -16 CURVE SMOOTH",
"169 -16 OFFCURVE",
"56 144 OFFCURVE",
"56 345 CURVE SMOOTH",
"56 546 OFFCURVE",
"169 706 OFFCURVE",
"311 706 CURVE SMOOTH"
);
},
{
closed = 1;
nodes = (
"152 109 OFFCURVE",
"204 -4 OFFCURVE",
"311 -4 CURVE SMOOTH",
"418 -4 OFFCURVE",
"470 109 OFFCURVE",
"470 345 CURVE SMOOTH",
"470 581 OFFCURVE",
"418 694 OFFCURVE",
"311 694 CURVE SMOOTH",
"204 694 OFFCURVE",
"152 581 OFFCURVE",
"152 345 CURVE SMOOTH"
);
}
);
width = 622;
}
);
unicode = 0030;
},
{
glyphname = one;
layers = (
{
layerId = master01;
paths = (
{
closed = 1;
nodes = (
"40 600 LINE",
"40 607 LINE",
"125 618 OFFCURVE",
"177 650 OFFCURVE",
"215 714 CURVE",
"220 712 LINE",
"220 17 LINE",
"312 9 LINE",
"312 0 LINE",
"41 0 LINE",
"41 9 LINE",
"143 17 LINE",
"143 600 LINE"
);
}
);
width = 344;
}
);
unicode = 0031;
},
{
glyphname = two;
layers = (
{
layerId = master01;
paths = (
{
closed = 1;
nodes = (
"452 194 LINE",
"444 196 LINE",
"425 123 LINE SMOOTH",
"415 84 OFFCURVE",
"398 77 OFFCURVE",
"361 77 CURVE SMOOTH",
"130 77 LINE",
"250 198 LINE SMOOTH",
"386 336 OFFCURVE",
"439 420 OFFCURVE",
"439 512 CURVE SMOOTH",
"439 625 OFFCURVE",
"364 706 OFFCURVE",
"259 706 CURVE SMOOTH",
"171 706 OFFCURVE",
"91 649 OFFCURVE",
"56 562 CURVE",
"65 557 LINE",
"97 617 OFFCURVE",
"151 651 OFFCURVE",
"216 651 CURVE SMOOTH",
"299 651 OFFCURVE",
"345 594 OFFCURVE",
"345 490 CURVE SMOOTH",
"345 365 OFFCURVE",
"278 240 OFFCURVE",
"142 111 CURVE SMOOTH",
"35 9 LINE",
"38 0 LINE",
"429 0 LINE"
);
}
);
width = 510;
}
);
unicode = 0032;
},
{
glyphname = three;
layers = (
{
layerId = master01;
paths = (
{
closed = 1;
nodes = (
"183 348 OFFCURVE",
"207 351 OFFCURVE",
"225 351 CURVE SMOOTH",
"313 351 OFFCURVE",
"375 275 OFFCURVE",
"375 166 CURVE SMOOTH",
"375 62 OFFCURVE",
"319 -2 OFFCURVE",
"228 -2 CURVE SMOOTH",
"187 -2 OFFCURVE",
"178 7 OFFCURVE",
"155 69 CURVE SMOOTH",
"132 131 OFFCURVE",
"117 149 OFFCURVE",
"89 149 CURVE SMOOTH",
"63 149 OFFCURVE",
"46 130 OFFCURVE",
"46 101 CURVE SMOOTH",
"46 38 OFFCURVE",
"129 -16 OFFCURVE",
"225 -16 CURVE SMOOTH",
"358 -16 OFFCURVE",
"465 84 OFFCURVE",
"465 209 CURVE SMOOTH",
"465 315 OFFCURVE",
"386 398 OFFCURVE",
"279 401 CURVE",
"279 405 LINE",
"360 450 OFFCURVE",
"407 515 OFFCURVE",
"407 581 CURVE SMOOTH",
"407 655 OFFCURVE",
"348 707 OFFCURVE",
"265 707 CURVE SMOOTH",
"176 707 OFFCURVE",
"101 647 OFFCURVE",
"68 550 CURVE",
"77 546 LINE",
"107 613 OFFCURVE",
"158 651 OFFCURVE",
"219 651 CURVE SMOOTH",
"281 651 OFFCURVE",
"319 610 OFFCURVE",
"319 544 CURVE SMOOTH",
"319 464 OFFCURVE",
"261 392 OFFCURVE",
"162 352 CURVE",
"165 342 LINE"
);
}
);
width = 516;
}
);
unicode = 0033;
},
{
glyphname = four;
layers = (
{
layerId = master01;
paths = (
{
closed = 1;
nodes = (
"198 9 LINE",
"198 0 LINE",
"463 0 LINE",
"463 9 LINE",
"377 17 LINE",
"377 195 LINE",
"462 195 LINE",
"462 247 LINE",
"377 247 LINE",
"377 712 LINE",
"372 714 LINE",
"20 201 LINE",
"23 195 LINE",
"300 195 LINE",
"300 17 LINE"
);
},
{
closed = 1;
nodes = (
"69 247 LINE",
"68 250 LINE",
"296 578 LINE",
"300 578 LINE",
"300 247 LINE"
);
}
);
width = 509;
}
);
unicode = 0034;
},
{
glyphname = five;
layers = (
{
layerId = master01;
paths = (
{
closed = 1;
nodes = (
"404 615 LINE",
"436 721 LINE",
"429 723 LINE",
"423 711 OFFCURVE",
"417 700 OFFCURVE",
"410 690 CURVE",
"149 690 LINE",
"101 350 LINE",
"105 349 LINE",
"136 373 OFFCURVE",
"167 384 OFFCURVE",
"204 384 CURVE SMOOTH",
"301 384 OFFCURVE",
"361 310 OFFCURVE",
"361 190 CURVE SMOOTH",
"361 75 OFFCURVE",
"307 -2 OFFCURVE",
"227 -2 CURVE SMOOTH",
"114 -2 OFFCURVE",
"161 149 OFFCURVE",
"81 149 CURVE SMOOTH",
"53 149 OFFCURVE",
"35 130 OFFCURVE",
"35 101 CURVE SMOOTH",
"35 39 OFFCURVE",
"119 -16 OFFCURVE",
"212 -16 CURVE SMOOTH",
"345 -16 OFFCURVE",
"448 94 OFFCURVE",
"448 235 CURVE SMOOTH",
"448 366 OFFCURVE",
"359 453 OFFCURVE",
"224 453 CURVE SMOOTH",
"195 453 OFFCURVE",
"171 449 OFFCURVE",
"129 438 CURVE",
"153 615 LINE"
);
}
);
width = 499;
}
);
unicode = 0035;
},
{
glyphname = six;
layers = (
{
layerId = master01;
paths = (
{
closed = 1;
nodes = (
"385 -16 OFFCURVE",
"472 80 OFFCURVE",
"472 217 CURVE SMOOTH",
"472 341 OFFCURVE",
"400 423 OFFCURVE",
"290 423 CURVE SMOOTH",
"237 423 OFFCURVE",
"190 404 OFFCURVE",
"159 370 CURVE",
"173 513 OFFCURVE",
"246 618 OFFCURVE",
"391 706 CURVE",
"387 714 LINE",
"185 633 OFFCURVE",
"54 455 OFFCURVE",
"54 243 CURVE SMOOTH",
"54 85 OFFCURVE",
"134 -16 OFFCURVE",
"261 -16 CURVE SMOOTH"
);
},
{
closed = 1;
nodes = (
"194 -4 OFFCURVE",
"146 84 OFFCURVE",
"146 219 CURVE SMOOTH",
"146 261 OFFCURVE",
"151 315 OFFCURVE",
"157 352 CURVE",
"180 382 OFFCURVE",
"216 399 OFFCURVE",
"255 399 CURVE SMOOTH",
"334 399 OFFCURVE",
"379 327 OFFCURVE",
"379 199 CURVE SMOOTH",
"379 74 OFFCURVE",
"336 -4 OFFCURVE",
"267 -4 CURVE SMOOTH"
);
}
);
width = 512;
}
);
unicode = 0036;
},
{
glyphname = seven;
layers = (
{
layerId = master01;
paths = (
{
closed = 1;
nodes = (
"91 700 OFFCURVE",
"90 710 OFFCURVE",
"90 720 CURVE",
"85 722 LINE",
"31 550 LINE",
"38 547 LINE",
"49 574 OFFCURVE",
"57 590 OFFCURVE",
"74 615 CURVE",
"378 615 LINE",
"103 51 LINE SMOOTH",
"98 42 OFFCURVE",
"96 31 OFFCURVE",
"96 22 CURVE SMOOTH",
"96 1 OFFCURVE",
"107 -16 OFFCURVE",
"132 -16 CURVE SMOOTH",
"151 -16 OFFCURVE",
"172 -3 OFFCURVE",
"180 23 CURVE SMOOTH",
"284 357 OFFCURVE",
"310 422 OFFCURVE",
"423 685 CURVE",
"417 690 LINE",
"92 690 LINE"
);
}
);
width = 432;
}
);
unicode = 0037;
},
{
glyphname = eight;
layers = (
{
layerId = master01;
paths = (
{
closed = 1;
nodes = (
"388 434 OFFCURVE",
"436 495 OFFCURVE",
"436 563 CURVE SMOOTH",
"436 646 OFFCURVE",
"365 706 OFFCURVE",
"267 706 CURVE SMOOTH",
"159 706 OFFCURVE",
"79 632 OFFCURVE",
"79 533 CURVE SMOOTH",
"79 460 OFFCURVE",
"121 403 OFFCURVE",
"211 355 CURVE",
"111 312 OFFCURVE",
"56 245 OFFCURVE",
"56 166 CURVE SMOOTH",
"56 65 OFFCURVE",
"145 -16 OFFCURVE",
"257 -16 CURVE SMOOTH",
"377 -16 OFFCURVE",
"472 75 OFFCURVE",
"472 190 CURVE SMOOTH",
"472 272 OFFCURVE",
"422 337 OFFCURVE",
"310 400 CURVE"
);
},
{
closed = 1;
nodes = (
"200 450 OFFCURVE",
"155 502 OFFCURVE",
"155 576 CURVE SMOOTH",
"155 647 OFFCURVE",
"197 694 OFFCURVE",
"261 694 CURVE SMOOTH",
"328 694 OFFCURVE",
"370 643 OFFCURVE",
"370 560 CURVE SMOOTH",
"370 495 OFFCURVE",
"345 439 OFFCURVE",
"301 405 CURVE"
);
},
{
closed = 1;
nodes = (
"345 287 OFFCURVE",
"398 225 OFFCURVE",
"398 140 CURVE SMOOTH",
"398 55 OFFCURVE",
"344 -4 OFFCURVE",
"264 -4 CURVE SMOOTH",
"181 -4 OFFCURVE",
"132 61 OFFCURVE",
"132 170 CURVE SMOOTH",
"132 256 OFFCURVE",
"163 317 OFFCURVE",
"222 348 CURVE"
);
}
);
width = 525;
}
);
unicode = 0038;
},
{
glyphname = nine;
layers = (
{
layerId = master01;
paths = (
{
closed = 1;
nodes = (
"127 714 OFFCURVE",
"39 620 OFFCURVE",
"39 488 CURVE SMOOTH",
"39 366 OFFCURVE",
"112 285 OFFCURVE",
"222 285 CURVE SMOOTH",
"275 285 OFFCURVE",
"322 304 OFFCURVE",
"352 338 CURVE",
"334 191 OFFCURVE",
"259 79 OFFCURVE",
"120 -8 CURVE",
"124 -16 LINE",
"329 66 OFFCURVE",
"457 247 OFFCURVE",
"457 453 CURVE SMOOTH",
"457 615 OFFCURVE",
"379 714 OFFCURVE",
"252 714 CURVE SMOOTH"
);
},
{
closed = 1;
nodes = (
"324 702 OFFCURVE",
"365 625 OFFCURVE",
"365 486 CURVE SMOOTH",
"365 443 OFFCURVE",
"361 395 OFFCURVE",
"354 356 CURVE",
"330 326 OFFCURVE",
"295 309 OFFCURVE",
"256 309 CURVE SMOOTH",
"177 309 OFFCURVE",
"132 381 OFFCURVE",
"132 506 CURVE SMOOTH",
"132 628 OFFCURVE",
"176 702 OFFCURVE",
"250 702 CURVE SMOOTH"
);
}
);
width = 511;
}
);
unicode = 0039;
},
{
glyphname = colon;
layers = (
{
layerId = master01;
paths = (
{
closed = 1;
nodes = (
"65 19 OFFCURVE",
"86 -4 OFFCURVE",
"117 -4 CURVE SMOOTH",
"148 -4 OFFCURVE",
"168 19 OFFCURVE",
"168 48 CURVE SMOOTH",
"168 77 OFFCURVE",
"148 99 OFFCURVE",
"117 99 CURVE SMOOTH",
"86 99 OFFCURVE",
"65 77 OFFCURVE",
"65 48 CURVE SMOOTH"
);
},
{
closed = 1;
nodes = (
"65 329 OFFCURVE",
"86 306 OFFCURVE",
"117 306 CURVE SMOOTH",
"148 306 OFFCURVE",
"168 329 OFFCURVE",
"168 358 CURVE SMOOTH",
"168 387 OFFCURVE",
"148 409 OFFCURVE",
"117 409 CURVE SMOOTH",
"86 409 OFFCURVE",
"65 387 OFFCURVE",
"65 358 CURVE SMOOTH"
);
}
);
width = 233;
}
);
leftKerningGroup = colon;
rightKerningGroup = colon;
unicode = 003A;
},
{
glyphname = semicolon;
layers = (
{
layerId = master01;
paths = (
{
closed = 1;
nodes = (
"67 329 OFFCURVE",
"88 306 OFFCURVE",
"119 306 CURVE SMOOTH",
"150 306 OFFCURVE",
"170 329 OFFCURVE",
"170 358 CURVE SMOOTH",
"170 387 OFFCURVE",
"150 409 OFFCURVE",
"119 409 CURVE SMOOTH",
"88 409 OFFCURVE",
"67 387 OFFCURVE",
"67 358 CURVE SMOOTH"
);
},
{
closed = 1;
nodes = (
"145 -113 OFFCURVE",
"178 -51 OFFCURVE",
"178 20 CURVE SMOOTH",
"178 72 OFFCURVE",
"153 99 OFFCURVE",
"118 99 CURVE SMOOTH",
"91 99 OFFCURVE",
"71 78 OFFCURVE",
"71 48 CURVE SMOOTH",
"71 -1 OFFCURVE",
"130 5 OFFCURVE",
"130 -52 CURVE SMOOTH",
"130 -85 OFFCURVE",
"109 -128 OFFCURVE",
"80 -156 CURVE",
"84 -161 LINE"
);
}
);
width = 246;
}
);
leftKerningGroup = colon;
rightKerningGroup = colon;
unicode = 003B;
},
{
glyphname = less;
layers = (
{
layerId = master01;
paths = (
{
closed = 1;
nodes = (
"324 504 LINE",
"333 488 LINE",
"66 346 LINE",
"334 206 LINE",
"325 186 LINE",
"52 329 LINE",
"52 362 LINE"
);
}
);
width = 423;
}
);
unicode = 003C;
},
{
glyphname = equal;
layers = (
{
layerId = master01;
paths = (
{
closed = 1;
nodes = (
"410 250 LINE",
"403 228 LINE",
"73 228 LINE",
"80 250 LINE"
);
},
{
closed = 1;
nodes = (
"410 435 LINE",
"403 413 LINE",
"73 413 LINE",
"80 435 LINE"
);
}
);
width = 481;
}
);
unicode = 003D;
},
{
glyphname = greater;
layers = (
{
layerId = master01;
paths = (
{
closed = 1;
nodes = (
"98 186 LINE",
"89 206 LINE",
"357 346 LINE",
"90 488 LINE",
"99 504 LINE",
"371 362 LINE",
"371 329 LINE"
);
}
);
width = 423;
}
);
unicode = 003E;
},
{
glyphname = question;
layers = (
{
layerId = master01;
paths = (
{
closed = 1;
nodes = (
"99 402 LINE",
"126 402 LINE SMOOTH",
"248 402 OFFCURVE",
"302 427 OFFCURVE",
"302 485 CURVE SMOOTH",
"302 601 OFFCURVE",
"73 599 OFFCURVE",
"73 677 CURVE SMOOTH",
"73 701 OFFCURVE",
"86 712 OFFCURVE",
"117 712 CURVE SMOOTH",
"214 712 OFFCURVE",
"316 591 OFFCURVE",
"316 476 CURVE SMOOTH",
"316 384 OFFCURVE",
"254 327 OFFCURVE",
"151 323 CURVE SMOOTH",
"125 322 LINE",
"117 170 LINE",
"107 170 LINE"
);
},
{
closed = 1;
nodes = (
"60 10 OFFCURVE",
"80 -10 OFFCURVE",
"108 -10 CURVE SMOOTH",
"136 -10 OFFCURVE",
"156 10 OFFCURVE",
"156 38 CURVE SMOOTH",
"156 66 OFFCURVE",
"136 86 OFFCURVE",
"108 86 CURVE SMOOTH",
"80 86 OFFCURVE",
"60 66 OFFCURVE",
"60 38 CURVE SMOOTH"
);
}
);
width = 363;
}
);
unicode = 003F;
},
{
glyphname = at;
layers = (
{
layerId = master01;
paths = (
{
closed = 1;
nodes = (
"500 -157 OFFCURVE",
"439 -173 OFFCURVE",
"370 -173 CURVE SMOOTH",
"173 -173 OFFCURVE",
"43 -56 OFFCURVE",
"43 122 CURVE SMOOTH",
"43 327 OFFCURVE",
"209 488 OFFCURVE",
"420 488 CURVE SMOOTH",
"584 488 OFFCURVE",
"702 382 OFFCURVE",
"702 233 CURVE SMOOTH",
"702 104 OFFCURVE",
"614 -6 OFFCURVE",
"510 -6 CURVE SMOOTH",
"459 -6 OFFCURVE",
"429 20 OFFCURVE",
"429 65 CURVE SMOOTH",
"429 73 OFFCURVE",
"430 79 OFFCURVE",
"433 83 CURVE",
"430 84 LINE",
"394 32 OFFCURVE",
"352 5 OFFCURVE",
"304 5 CURVE SMOOTH",
"244 5 OFFCURVE",
"207 44 OFFCURVE",
"207 107 CURVE SMOOTH",
"207 221 OFFCURVE",
"325 354 OFFCURVE",
"425 354 CURVE SMOOTH",
"456 354 OFFCURVE",
"476 342 OFFCURVE",
"488 314 CURVE",
"492 314 LINE",
"504 354 LINE",
"580 354 LINE",
"502 90 LINE SMOOTH",
"497 76 OFFCURVE",
"496 68 OFFCURVE",
"496 57 CURVE SMOOTH",
"496 27 OFFCURVE",
"506 16 OFFCURVE",
"531 16 CURVE SMOOTH",
"612 16 OFFCURVE",
"687 119 OFFCURVE",
"687 232 CURVE SMOOTH",
"687 373 OFFCURVE",
"575 473 OFFCURVE",
"419 473 CURVE SMOOTH",
"242 473 OFFCURVE",
"107 324 OFFCURVE",
"107 129 CURVE SMOOTH",
"107 -46 OFFCURVE",
"217 -157 OFFCURVE",
"390 -157 CURVE SMOOTH",
"451 -157 OFFCURVE",
"493 -145 OFFCURVE",
"546 -114 CURVE",
"551 -127 LINE"
);
},
{
closed = 1;
nodes = (
"397 19 OFFCURVE",
"476 154 OFFCURVE",
"476 275 CURVE SMOOTH",
"476 322 OFFCURVE",
"464 342 OFFCURVE",
"436 342 CURVE SMOOTH",
"364 342 OFFCURVE",
"280 209 OFFCURVE",
"280 94 CURVE SMOOTH",
"280 45 OFFCURVE",
"296 19 OFFCURVE",
"325 19 CURVE SMOOTH"
);
}
);
width = 752;
}
);
unicode = 0040;
},
{
glyphname = A;
layers = (
{
anchors = (
{
name = bottom;
position = "{559, 0}";
},
{
name = top;
position = "{319, 800}";
}
);
layerId = master01;
paths = (
{
closed = 1;
nodes = (
"178 0 LINE",
"-35 0 LINE",
"-35 8 LINE",
"21 13 LINE SMOOTH",
"54 16 OFFCURVE",
"64 23 OFFCURVE",
"75 53 CURVE SMOOTH",
"320 706 LINE",
"338 706 LINE",
"590 18 LINE",
"673 8 LINE",
"673 0 LINE",
"428 0 LINE",
"428 8 LINE",
"510 18 LINE",
"298 595 LINE",
"294 595 LINE",
"91 53 LINE SMOOTH",
"88 45 OFFCURVE",
"87 40 OFFCURVE",
"87 35 CURVE SMOOTH",
"87 20 OFFCURVE",
"95 15 OFFCURVE",
"117 13 CURVE SMOOTH",
"178 8 LINE"
);
},
{
closed = 1;
nodes = (
"435 290 LINE",
"435 274 LINE",
"168 274 LINE",
"168 290 LINE"
);
}
);
width = 658;
}
);
leftKerningGroup = A;
rightKerningGroup = A;
unicode = 0041;
},
{
glyphname = B;
layers = (
{
layerId = master01;
paths = (
{
closed = 1;
nodes = (
"150 12 LINE",
"311 12 LINE SMOOTH",
"418 12 OFFCURVE",
"466 73 OFFCURVE",
"466 186 CURVE SMOOTH",
"466 310 OFFCURVE",
"410 359 OFFCURVE",
"311 359 CURVE SMOOTH",
"150 359 LINE",
"150 371 LINE",
"315 371 LINE SMOOTH",
"407 371 OFFCURVE",
"441 427 OFFCURVE",
"441 526 CURVE SMOOTH",
"441 626 OFFCURVE",
"392 678 OFFCURVE",
"286 678 CURVE SMOOTH",
"165 678 LINE",
"165 690 LINE",
"289 690 LINE SMOOTH",
"446 690 OFFCURVE",
"531 632 OFFCURVE",
"531 526 CURVE SMOOTH",
"531 442 OFFCURVE",
"478 382 OFFCURVE",
"382 368 CURVE",
"382 364 LINE",
"498 348 OFFCURVE",
"561 287 OFFCURVE",
"561 189 CURVE SMOOTH",
"561 93 OFFCURVE",
"500 0 OFFCURVE",
"335 0 CURVE SMOOTH",
"150 0 LINE"
);
},
{
closed = 1;
nodes = (
"40 690 LINE",
"199 690 LINE",
"199 0 LINE",
"40 0 LINE",
"40 8 LINE",
"122 16 LINE",
"122 674 LINE",
"40 682 LINE"
);
}
);
width = 615;
}
);
leftKerningGroup = I;
unicode = 0042;
userData = {
com.typemytype.robofont.guides = (
{
angle = 90;
isGlobal = 0;
magnetic = 5;
x = 175;
y = 0;
},
{
angle = 90;
isGlobal = 0;
magnetic = 5;
x = 287;
y = 0;
}
);
};
},
{
glyphname = C;
layers = (
{
anchors = (
{
name = bottom;
position = "{375, 0}";
},
{
name = top;
position = "{365, 800}";
}
);
layerId = master01;
paths = (
{
closed = 1;
nodes = (
"566 113 OFFCURVE",
"587 176 OFFCURVE",
"600 232 CURVE",
"613 230 LINE",
"613 0 LINE",
"600 0 LINE",
"566 55 LINE",
"507 12 OFFCURVE",
"433 -16 OFFCURVE",
"367 -16 CURVE SMOOTH",
"190 -16 OFFCURVE",
"52 142 OFFCURVE",
"52 345 CURVE SMOOTH",
"52 547 OFFCURVE",
"190 706 OFFCURVE",
"365 706 CURVE SMOOTH",
"425 706 OFFCURVE",
"485 688 OFFCURVE",
"563 646 CURVE",
"587 694 LINE",
"600 694 LINE",
"610 469 LINE",
"596 465 LINE",
"587 515 OFFCURVE",
"572 559 OFFCURVE",
"552 592 CURVE SMOOTH",
"512 658 OFFCURVE",
"445 694 OFFCURVE",
"368 694 CURVE SMOOTH",
"226 694 OFFCURVE",
"148 567 OFFCURVE",
"148 345 CURVE SMOOTH",
"148 124 OFFCURVE",
"227 -2 OFFCURVE",
"367 -2 CURVE SMOOTH",
"428 -2 OFFCURVE",
"488 27 OFFCURVE",
"526 68 CURVE SMOOTH"
);
}
);
width = 676;
}
);
leftKerningGroup = O;
rightKerningGroup = C;
unicode = 0043;
},
{
glyphname = D;
layers = (
{
anchors = (
{
name = bottom;
position = "{318, 0}";
},
{
name = top;
position = "{318, 800}";
}
);
layerId = master01;
paths = (
{
closed = 1;
nodes = (
"40 690 LINE",
"199 690 LINE",
"199 0 LINE",
"40 0 LINE",
"40 8 LINE",
"122 16 LINE",
"122 674 LINE",
"40 682 LINE"
);
},
{
closed = 1;
nodes = (
"306 690 LINE SMOOTH",
"398 690 OFFCURVE",
"467 673 OFFCURVE",
"519 637 CURVE SMOOTH",
"601 580 OFFCURVE",
"648 475 OFFCURVE",
"648 349 CURVE SMOOTH",
"648 222 OFFCURVE",
"600 113 OFFCURVE",
"519 54 CURVE SMOOTH",
"467 16 OFFCURVE",
"403 0 OFFCURVE",
"306 0 CURVE SMOOTH",
"148 0 LINE",
"148 12 LINE",
"297 12 LINE SMOOTH",
"404 12 OFFCURVE",
"448 27 OFFCURVE",
"483 71 CURVE SMOOTH",
"526 126 OFFCURVE",
"552 232 OFFCURVE",
"552 354 CURVE SMOOTH",
"552 472 OFFCURVE",
"528 566 OFFCURVE",
"483 619 CURVE SMOOTH",
"446 662 OFFCURVE",
"399 678 OFFCURVE",
"297 678 CURVE SMOOTH",
"148 678 LINE",
"148 690 LINE"
);
}
);
width = 704;
}
);
leftKerningGroup = I;
rightKerningGroup = D;
unicode = 0044;
},
{
glyphname = E;
layers = (
{
anchors = (
{
name = bottom;
position = "{313, 0}";
},
{
name = top;
position = "{314, 800}";
}
);
layerId = master01;
paths = (
{
closed = 1;
nodes = (
"199 12 LINE",
"423 12 LINE SMOOTH",
"455 12 OFFCURVE",
"466 19 OFFCURVE",
"478 49 CURVE SMOOTH",
"544 211 LINE",
"555 210 LINE",
"530 0 LINE",
"40 0 LINE",
"40 8 LINE",
"122 16 LINE",
"122 674 LINE",
"40 682 LINE",
"40 690 LINE",
"531 690 LINE",
"545 502 LINE",
"535 501 LINE",
"479 641 LINE SMOOTH",
"467 671 OFFCURVE",
"457 678 OFFCURVE",
"425 678 CURVE SMOOTH",
"199 678 LINE"
);
},
{
closed = 1;
nodes = (
"379 371 OFFCURVE",
"389 379 OFFCURVE",
"395 410 CURVE SMOOTH",
"412 491 LINE",
"424 491 LINE",
"424 235 LINE",
"412 235 LINE",
"395 316 LINE SMOOTH",
"389 347 OFFCURVE",
"379 355 OFFCURVE",
"347 355 CURVE SMOOTH",
"190 355 LINE",
"190 371 LINE",
"347 371 LINE SMOOTH"
);
}
);
width = 614;
}
);
leftKerningGroup = I;
rightKerningGroup = E;
unicode = 0045;
},
{
glyphname = F;
layers = (
{
layerId = master01;
paths = (
{
closed = 1;
nodes = (
"199 16 LINE",
"297 8 LINE",
"297 0 LINE",
"40 0 LINE",
"40 8 LINE",
"122 16 LINE",
"122 674 LINE",
"40 682 LINE",
"40 690 LINE",
"508 690 LINE",
"524 491 LINE",
"516 490 LINE",
"456 641 LINE SMOOTH",
"444 671 OFFCURVE",
"434 678 OFFCURVE",
"402 678 CURVE SMOOTH",
"199 678 LINE"
);
},
{
closed = 1;
nodes = (
"376 371 OFFCURVE",
"386 379 OFFCURVE",
"392 410 CURVE SMOOTH",
"409 491 LINE",
"421 491 LINE",
"421 235 LINE",
"409 235 LINE",
"392 316 LINE SMOOTH",
"386 347 OFFCURVE",
"376 355 OFFCURVE",
"344 355 CURVE SMOOTH",
"187 355 LINE",
"187 371 LINE",
"344 371 LINE SMOOTH"
);
}
);
width = 554;
}
);
leftKerningGroup = I;
unicode = 0046;
userData = {
com.typemytype.robofont.guides = (
{
angle = 90;
isGlobal = 0;
magnetic = 5;
x = 98;
y = 0;
},
{
angle = 90;
isGlobal = 0;
magnetic = 5;
x = 175;
y = 0;
}
);
};
},
{
glyphname = G;
layers = (
{
anchors = (
{
name = top;
position = "{372, 800}";
}
);
layerId = master01;
paths = (
{
closed = 1;
nodes = (
"456 345 LINE",
"687 345 LINE",
"687 337 LINE",
"605 329 LINE",
"605 68 LINE",
"533 1 OFFCURVE",
"417 -16 OFFCURVE",
"367 -16 CURVE SMOOTH",
"190 -16 OFFCURVE",
"52 142 OFFCURVE",
"52 345 CURVE SMOOTH",
"52 547 OFFCURVE",
"190 706 OFFCURVE",
"365 706 CURVE SMOOTH",
"423 706 OFFCURVE",
"483 688 OFFCURVE",
"559 646 CURVE",
"583 694 LINE",
"596 694 LINE",
"606 469 LINE",
"592 465 LINE",
"583 515 OFFCURVE",
"568 559 OFFCURVE",
"548 592 CURVE SMOOTH",
"508 658 OFFCURVE",
"443 694 OFFCURVE",
"368 694 CURVE SMOOTH",
"226 694 OFFCURVE",
"148 567 OFFCURVE",
"148 345 CURVE SMOOTH",
"148 122 OFFCURVE",
"227 -4 OFFCURVE",
"367 -4 CURVE SMOOTH",
"435 -4 OFFCURVE",
"496 30 OFFCURVE",
"528 77 CURVE",
"528 329 LINE",
"456 337 LINE"
);
}
);
width = 703;
}
);
leftKerningGroup = O;
rightKerningGroup = G;
unicode = 0047;
},
{
glyphname = H;
layers = (
{
anchors = (
{
name = bottom;
position = "{368, 0}";
},
{
name = top;
position = "{368, 800}";
}
);
layerId = master01;
paths = (
{
closed = 1;
nodes = (
"445 690 LINE",
"691 690 LINE",
"691 682 LINE",
"609 674 LINE",
"609 16 LINE",
"691 8 LINE",
"691 0 LINE",
"445 0 LINE",
"445 8 LINE",
"532 16 LINE",
"532 674 LINE",
"445 682 LINE"
);
},
{
closed = 1;
nodes = (
"40 690 LINE",
"286 690 LINE",
"286 682 LINE",
"199 674 LINE",
"199 16 LINE",
"286 8 LINE",
"286 0 LINE",
"40 0 LINE",
"40 8 LINE",
"122 16 LINE",
"122 674 LINE",
"40 682 LINE"
);
},
{
closed = 1;
nodes = (
"569 371 LINE",
"569 355 LINE",
"162 355 LINE",
"162 371 LINE"
);
}
);
width = 731;
}
);
leftKerningGroup = I;
rightKerningGroup = I;
unicode = 0048;
},
{
glyphname = I;
layers = (
{
anchors = (
{
name = bottom;
position = "{161, 0}";
},
{
name = top;
position = "{161, 800}";
}
);
layerId = master01;
paths = (
{
closed = 1;
nodes = (
"122 16 LINE",
"40 8 LINE",
"40 0 LINE",
"281 0 LINE",
"281 8 LINE",
"199 16 LINE",
"199 674 LINE",
"281 682 LINE",
"281 690 LINE",
"40 690 LINE",
"40 682 LINE",
"122 674 LINE"
);
}
);
width = 321;
}
);
leftKerningGroup = I;
rightKerningGroup = I;
unicode = 0049;
userData = {
com.typemytype.robofont.guides = (
{
angle = 0;
isGlobal = 0;
magnetic = 5;
x = 0;
y = 8;
},
{
angle = 0;
isGlobal = 0;
magnetic = 5;
x = 0;
y = 16;
}
);
};
},
{
glyphname = J;
layers = (
{
anchors = (
{
name = top;
position = "{173, 800}";
}
);
layerId = master01;
paths = (
{
closed = 1;
nodes = (
"52 682 LINE",
"52 690 LINE",
"293 690 LINE",
"293 682 LINE",
"211 674 LINE",
"211 57 LINE SMOOTH",
"211 -30 OFFCURVE",
"202 -74 OFFCURVE",
"178 -109 CURVE SMOOTH",
"151 -147 OFFCURVE",
"105 -171 OFFCURVE",
"55 -171 CURVE SMOOTH",
"-7 -171 OFFCURVE",
"-54 -138 OFFCURVE",
"-54 -94 CURVE SMOOTH",
"-54 -67 OFFCURVE",
"-38 -50 OFFCURVE",
"-12 -50 CURVE SMOOTH",
"14 -50 OFFCURVE",
"30 -67 OFFCURVE",
"30 -95 CURVE SMOOTH",
"30 -102 OFFCURVE",
"29 -117 OFFCURVE",
"29 -124 CURVE SMOOTH",
"29 -147 OFFCURVE",
"41 -159 OFFCURVE",
"63 -159 CURVE SMOOTH",
"106 -159 OFFCURVE",
"134 -104 OFFCURVE",
"134 -20 CURVE SMOOTH",
"134 674 LINE"
);
}
);
width = 330;
}
);
leftKerningGroup = J;
rightKerningGroup = J;
unicode = 004A;
userData = {
com.typemytype.robofont.guides = (
{
angle = 0;
isGlobal = 0;
magnetic = 5;
x = 0;
y = -173;
}
);
};
},
{
glyphname = K;
layers = (
{
anchors = (
{
name = bottom;
position = "{335, 0}";
}
);
layerId = master01;
paths = (
{
closed = 1;
nodes = (
"597 40 LINE SMOOTH",
"619 15 OFFCURVE",
"634 8 OFFCURVE",
"671 8 CURVE SMOOTH",
"675 8 LINE",
"675 0 LINE",
"526 0 LINE",
"252 361 LINE",
"304 423 LINE"
);
},
{
closed = 1;
nodes = (
"40 690 LINE",
"286 690 LINE",
"286 682 LINE",
"199 674 LINE",
"199 16 LINE",
"286 8 LINE",
"286 0 LINE",
"40 0 LINE",
"40 8 LINE",
"122 16 LINE",
"122 674 LINE",
"40 682 LINE"
);
},
{
closed = 1;
nodes = (
"409 690 LINE",
"613 690 LINE",
"613 682 LINE",
"535 669 OFFCURVE",
"521 662 OFFCURVE",
"491 628 CURVE SMOOTH",
"172 263 LINE",
"172 281 LINE",
"471 626 LINE SMOOTH",
"481 638 OFFCURVE",
"487 649 OFFCURVE",
"487 657 CURVE SMOOTH",
"487 670 OFFCURVE",
"472 675 OFFCURVE",
"409 682 CURVE"
);
}
);
width = 656;
}
);
leftKerningGroup = I;
rightKerningGroup = K;
unicode = 004B;
},
{
glyphname = L;
layers = (
{
anchors = (
{
name = bottom;
position = "{300, 0}";
}
);
layerId = master01;
paths = (
{
closed = 1;
nodes = (
"40 690 LINE",
"286 690 LINE",
"286 682 LINE",
"199 674 LINE",
"199 12 LINE",
"420 12 LINE SMOOTH",
"452 12 OFFCURVE",
"463 19 OFFCURVE",
"475 49 CURVE SMOOTH",
"543 220 LINE",
"555 218 LINE",
"530 0 LINE",
"40 0 LINE",
"40 8 LINE",
"122 16 LINE",
"122 674 LINE",
"40 682 LINE"
);
}
);
width = 583;
}
);
leftKerningGroup = I;
rightKerningGroup = L;
unicode = 004C;
userData = {
com.typemytype.robofont.guides = (
{
angle = 90;
isGlobal = 0;
magnetic = 5;
x = 16;
y = 0;
},
{
angle = 90;
isGlobal = 0;
magnetic = 5;
x = 262;
y = 0;
}
);
};
},
{
glyphname = M;
layers = (
{
layerId = master01;
paths = (
{
closed = 1;
nodes = (
"34 690 LINE",
"205 690 LINE",
"451 103 LINE",
"455 103 LINE",
"675 690 LINE",
"697 690 LINE",
"672 625 LINE",
"668 625 LINE",
"427 -16 LINE",
"417 -16 LINE",
"148 626 LINE",
"144 626 LINE",
"136 634 LINE",
"136 645 LINE",
"123 675 OFFCURVE",
"112 682 OFFCURVE",
"80 682 CURVE SMOOTH",
"34 682 LINE"
);
},
{
closed = 1;
nodes = (
"144 61 LINE SMOOTH",
"144 29 OFFCURVE",
"150 19 OFFCURVE",
"174 16 CURVE SMOOTH",
"245 8 LINE",
"245 0 LINE",
"26 0 LINE",
"26 8 LINE",
"98 16 LINE SMOOTH",
"122 19 OFFCURVE",
"128 29 OFFCURVE",
"128 61 CURVE SMOOTH",
"128 678 LINE",
"144 678 LINE"
);
},
{
closed = 1;
nodes = (
"836 682 LINE",
"749 674 LINE",
"749 16 LINE",
"836 8 LINE",
"836 0 LINE",
"590 0 LINE",
"590 8 LINE",
"672 16 LINE",
"672 652 LINE",
"679 690 LINE",
"836 690 LINE"
);
}
);
width = 871;
}
);
leftKerningGroup = I;
rightKerningGroup = I;
unicode = 004D;
userData = {
com.typemytype.robofont.guides = (
{
angle = 0;
isGlobal = 0;
magnetic = 5;
x = 0;
y = 682;
},
{
angle = 90;
isGlobal = 0;
magnetic = 5;
x = 638;
y = 0;
}
);
};
},
{
glyphname = N;
layers = (
{
anchors = (
{
name = bottom;
position = "{376, 0}";
},
{
name = top;
position = "{376, 800}";
}
);
layerId = master01;
paths = (
{
closed = 1;
nodes = (
"43 690 LINE",
"192 690 LINE",
"586 138 LINE",
"606 138 LINE",
"606 -16 LINE",
"596 -16 LINE",
"147 621 LINE",
"138 621 LINE",
"133 635 LINE",
"123 649 LINE SMOOTH",
"105 675 OFFCURVE",
"92 682 OFFCURVE",
"60 682 CURVE SMOOTH",
"43 682 LINE"
);
},
{
closed = 1;
nodes = (
"590 629 LINE SMOOTH",
"590 661 OFFCURVE",
"584 672 OFFCURVE",
"560 674 CURVE SMOOTH",
"479 682 LINE",
"479 690 LINE",
"718 690 LINE",
"718 682 LINE",
"646 674 LINE SMOOTH",
"614 670 OFFCURVE",
"606 661 OFFCURVE",
"606 629 CURVE SMOOTH",
"606 68 LINE",
"590 68 LINE"
);
},
{
closed = 1;
nodes = (
"143 61 LINE SMOOTH",
"143 29 OFFCURVE",
"149 19 OFFCURVE",
"173 16 CURVE SMOOTH",
"244 8 LINE",
"244 0 LINE",
"25 0 LINE",
"25 8 LINE",
"97 16 LINE SMOOTH",
"121 19 OFFCURVE",
"127 29 OFFCURVE",
"127 61 CURVE SMOOTH",
"127 662 LINE",
"143 664 LINE"
);
}
);
width = 734;
}
);
leftKerningGroup = I;
rightKerningGroup = N;
unicode = 004E;
},
{
glyphname = O;
layers = (
{
anchors = (
{
name = bottom;
position = "{368, 0}";
},
{
name = top;
position = "{369, 800}";
}
);
layerId = master01;
paths = (
{
closed = 1;
nodes = (
"190 706 OFFCURVE",
"52 548 OFFCURVE",
"52 345 CURVE SMOOTH",
"52 142 OFFCURVE",
"190 -16 OFFCURVE",
"367 -16 CURVE SMOOTH",
"544 -16 OFFCURVE",
"682 142 OFFCURVE",
"682 345 CURVE SMOOTH",
"682 548 OFFCURVE",
"544 706 OFFCURVE",
"367 706 CURVE SMOOTH"
);
},
{
closed = 1;
nodes = (
"148 568 OFFCURVE",
"227 694 OFFCURVE",
"367 694 CURVE SMOOTH",
"507 694 OFFCURVE",
"586 568 OFFCURVE",
"586 345 CURVE SMOOTH",
"586 123 OFFCURVE",
"507 -3 OFFCURVE",
"367 -3 CURVE SMOOTH",
"227 -3 OFFCURVE",
"148 123 OFFCURVE",
"148 345 CURVE SMOOTH"
);
}
);
width = 734;
}
);
leftKerningGroup = O;
rightKerningGroup = O;
unicode = 004F;
},
{
glyphname = P;
layers = (
{
layerId = master01;
paths = (
{
closed = 1;
nodes = (
"122 674 LINE",
"40 682 LINE",
"40 690 LINE",
"199 690 LINE",
"199 16 LINE",
"297 8 LINE",
"297 0 LINE",
"40 0 LINE",
"40 8 LINE",
"122 16 LINE"
);
},
{
closed = 1;
nodes = (
"293 690 LINE SMOOTH",
"450 690 OFFCURVE",
"535 620 OFFCURVE",
"535 499 CURVE SMOOTH",
"535 369 OFFCURVE",
"450 300 OFFCURVE",
"293 300 CURVE SMOOTH",
"165 300 LINE",
"165 312 LINE",
"290 312 LINE SMOOTH",
"398 312 OFFCURVE",
"445 371 OFFCURVE",
"445 504 CURVE SMOOTH",
"445 602 OFFCURVE",
"416 678 OFFCURVE",
"290 678 CURVE SMOOTH",
"165 678 LINE",
"165 690 LINE"
);
}
);
width = 568;
}
);
leftKerningGroup = I;
unicode = 0050;
userData = {
com.typemytype.robofont.guides = (
{
angle = 90;
isGlobal = 0;
magnetic = 5;
x = 175;
y = 0;
},
{
angle = 90;
isGlobal = 0;
magnetic = 5;
x = 414;
y = 0;
}
);
};
},
{
glyphname = Q;
layers = (
{
layerId = master01;
paths = (
{
closed = 1;
nodes = (
"544 706 OFFCURVE",
"682 548 OFFCURVE",
"682 345 CURVE SMOOTH",
"682 142 OFFCURVE",
"544 -16 OFFCURVE",
"367 -16 CURVE SMOOTH",
"190 -16 OFFCURVE",
"52 142 OFFCURVE",
"52 345 CURVE SMOOTH",
"52 548 OFFCURVE",
"190 706 OFFCURVE",
"367 706 CURVE SMOOTH"
);
},
{
closed = 1;
nodes = (
"148 122 OFFCURVE",
"227 -4 OFFCURVE",
"367 -4 CURVE SMOOTH",
"507 -4 OFFCURVE",
"586 122 OFFCURVE",
"586 345 CURVE SMOOTH",
"586 568 OFFCURVE",
"507 694 OFFCURVE",
"367 694 CURVE SMOOTH",
"227 694 OFFCURVE",
"148 568 OFFCURVE",
"148 345 CURVE SMOOTH"
);
},
{
closed = 1;
nodes = (
"475 -33 OFFCURVE",
"545 -88 OFFCURVE",
"613 -88 CURVE SMOOTH",
"659 -88 OFFCURVE",
"678 -62 OFFCURVE",
"692 -30 CURVE SMOOTH",
"702 -36 LINE SMOOTH",
"675 -98 OFFCURVE",
"614 -149 OFFCURVE",
"547 -149 CURVE SMOOTH",
"495 -149 OFFCURVE",
"455 -119 OFFCURVE",
"429 -85 CURVE SMOOTH",
"402 -50 OFFCURVE",
"368 -16 OFFCURVE",
"327 -16 CURVE SMOOTH",
"301 -16 OFFCURVE",
"265 -30 OFFCURVE",
"265 -55 CURVE SMOOTH",
"265 -70 OFFCURVE",
"278 -88 OFFCURVE",
"278 -108 CURVE SMOOTH",
"278 -131 OFFCURVE",
"260 -150 OFFCURVE",
"236 -150 CURVE SMOOTH",
"213 -150 OFFCURVE",
"197 -132 OFFCURVE",
"197 -106 CURVE SMOOTH",
"197 -62 OFFCURVE",
"243 -29 OFFCURVE",
"299 -8 CURVE",
"403 -8 LINE"
);
}
);
width = 734;
}
);
leftKerningGroup = O;
rightKerningGroup = O;
unicode = 0051;
},
{
glyphname = R;
layers = (
{
anchors = (
{
name = bottom;
position = "{326, 0}";
},
{
name = top;
position = "{323, 800}";
}
);
layerId = master01;
paths = (
{
closed = 1;
nodes = (
"388 328 LINE",
"571 42 LINE SMOOTH",
"588 15 OFFCURVE",
"601 8 OFFCURVE",
"633 8 CURVE SMOOTH",
"647 8 LINE",
"647 0 LINE",
"544 0 LINE SMOOTH",
"512 0 OFFCURVE",
"500 7 OFFCURVE",
"483 34 CURVE SMOOTH",
"330 281 LINE SMOOTH",
"311 311 OFFCURVE",
"306 315 OFFCURVE",
"273 315 CURVE SMOOTH",
"178 315 LINE",
"178 328 LINE"
);
},
{
closed = 1;
nodes = (
"122 674 LINE",
"40 682 LINE",
"40 690 LINE",
"199 690 LINE",
"199 16 LINE",
"286 8 LINE",
"286 0 LINE",
"40 0 LINE",
"40 8 LINE",
"122 16 LINE"
);
},
{
closed = 1;
nodes = (
"293 690 LINE SMOOTH",
"450 690 OFFCURVE",
"535 625 OFFCURVE",
"535 505 CURVE SMOOTH",
"535 385 OFFCURVE",
"449 318 OFFCURVE",
"293 318 CURVE SMOOTH",
"165 318 LINE",
"165 330 LINE",
"290 330 LINE SMOOTH",
"397 330 OFFCURVE",
"447 386 OFFCURVE",
"447 503 CURVE SMOOTH",
"447 621 OFFCURVE",
"396 678 OFFCURVE",
"290 678 CURVE SMOOTH",
"165 678 LINE",
"165 690 LINE"
);
}
);
width = 614;
}
);
leftKerningGroup = I;
rightKerningGroup = R;
unicode = 0052;
},
{
glyphname = S;
layers = (
{
anchors = (
{
name = bottom;
position = "{276, 0}";
},
{
name = top;
position = "{278, 800}";
}
);
layerId = master01;
paths = (
{
closed = 1;
nodes = (
"214 -16 OFFCURVE",
"152 4 OFFCURVE",
"110 39 CURVE",
"89 -16 LINE",
"76 -16 LINE",
"63 223 LINE",
"72 225 LINE",
"92 135 OFFCURVE",
"110 90 OFFCURVE",
"143 53 CURVE SMOOTH",
"177 15 OFFCURVE",
"221 -4 OFFCURVE",
"278 -4 CURVE SMOOTH",
"375 -4 OFFCURVE",
"431 50 OFFCURVE",
"431 135 CURVE SMOOTH",
"431 230 OFFCURVE",
"359 266 OFFCURVE",
"247 315 CURVE SMOOTH",
"159 353 OFFCURVE",
"69 400 OFFCURVE",
"69 515 CURVE SMOOTH",
"69 626 OFFCURVE",
"155 706 OFFCURVE",
"274 706 CURVE SMOOTH",
"328 706 OFFCURVE",
"372 689 OFFCURVE",
"427 646 CURVE",
"451 694 LINE",
"464 694 LINE",
"474 476 LINE",
"464 473 LINE",
"452 522 OFFCURVE",
"437 562 OFFCURVE",
"423 591 CURVE SMOOTH",
"392 655 OFFCURVE",
"342 694 OFFCURVE",
"270 694 CURVE SMOOTH",
"187 694 OFFCURVE",
"134 643 OFFCURVE",
"134 562 CURVE SMOOTH",
"134 471 OFFCURVE",
"201 435 OFFCURVE",
"315 383 CURVE SMOOTH",
"414 338 OFFCURVE",
"493 295 OFFCURVE",
"493 185 CURVE SMOOTH",
"493 68 OFFCURVE",
"402 -16 OFFCURVE",
"276 -16 CURVE SMOOTH"
);
}
);
width = 551;
}
);
leftKerningGroup = S;
rightKerningGroup = S;
unicode = 0053;
},
{
glyphname = T;
layers = (
{
anchors = (
{
name = bottom;
position = "{328, 0}";
},
{
name = top;
position = "{326, 800}";
}
);
layerId = master01;
paths = (
{
closed = 1;
nodes = (
"125 679 OFFCURVE",
"114 671 OFFCURVE",
"101 641 CURVE SMOOTH",
"32 487 LINE",
"24 489 LINE",
"63 706 LINE",
"69 706 LINE",
"99 693 OFFCURVE",
"114 690 OFFCURVE",
"146 690 CURVE SMOOTH",
"531 690 LINE SMOOTH",
"563 690 OFFCURVE",
"578 693 OFFCURVE",
"608 706 CURVE",
"614 706 LINE",
"636 489 LINE",
"628 487 LINE",
"566 641 LINE SMOOTH",
"554 671 OFFCURVE",
"544 679 OFFCURVE",
"512 679 CURVE SMOOTH",
"366 679 LINE",
"366 16 LINE",
"474 8 LINE",
"474 0 LINE",
"181 0 LINE",
"181 8 LINE",
"289 16 LINE",
"289 679 LINE",
"157 679 LINE SMOOTH"
);
}
);
width = 665;
}
);
leftKerningGroup = T;
rightKerningGroup = T;
unicode = 0054;
},
{
glyphname = U;
layers = (
{
anchors = (
{
name = top;
position = "{342, 800}";
}
);
layerId = master01;
paths = (
{
closed = 1;
nodes = (
"536 159 OFFCURVE",
"526 114 OFFCURVE",
"501 77 CURVE SMOOTH",
"467 28 OFFCURVE",
"409 0 OFFCURVE",
"342 0 CURVE SMOOTH",
"306 0 OFFCURVE",
"271 8 OFFCURVE",
"248 22 CURVE SMOOTH",
"206 47 OFFCURVE",
"189 95 OFFCURVE",
"189 192 CURVE SMOOTH",
"189 674 LINE",
"276 682 LINE",
"276 690 LINE",
"30 690 LINE",
"30 682 LINE",
"112 674 LINE",
"112 225 LINE SMOOTH",
"112 126 OFFCURVE",
"128 76 OFFCURVE",
"169 40 CURVE SMOOTH",
"209 5 OFFCURVE",
"274 -16 OFFCURVE",
"335 -16 CURVE SMOOTH",
"411 -16 OFFCURVE",
"477 16 OFFCURVE",
"513 68 CURVE SMOOTH",
"540 108 OFFCURVE",
"552 161 OFFCURVE",
"552 245 CURVE SMOOTH",
"552 629 LINE SMOOTH",
"552 661 OFFCURVE",
"558 670 OFFCURVE",
"582 674 CURVE SMOOTH",
"654 682 LINE",
"654 690 LINE",
"435 690 LINE",
"435 682 LINE",
"506 674 LINE SMOOTH",
"530 670 OFFCURVE",
"536 661 OFFCURVE",
"536 629 CURVE SMOOTH",
"536 240 LINE"
);
}
);
width = 665;
}
);
leftKerningGroup = U;
rightKerningGroup = U;
unicode = 0055;
},
{
glyphname = V;
layers = (
{
layerId = master01;
paths = (
{
closed = 1;
nodes = (
"480 690 LINE",
"693 690 LINE",
"693 682 LINE",
"637 677 LINE SMOOTH",
"603 674 OFFCURVE",
"594 667 OFFCURVE",
"583 637 CURVE SMOOTH",
"338 -16 LINE",
"320 -16 LINE",
"67 674 LINE",
"-15 682 LINE",
"-15 690 LINE",
"235 690 LINE",
"235 682 LINE",
"148 674 LINE",
"360 95 LINE",
"364 95 LINE",
"567 637 LINE SMOOTH",
"571 647 OFFCURVE",
"571 651 OFFCURVE",
"571 656 CURVE SMOOTH",
"571 669 OFFCURVE",
"563 675 OFFCURVE",
"541 677 CURVE SMOOTH",
"480 682 LINE"
);
}
);
width = 658;
}
);
unicode = 0056;
userData = {
com.typemytype.robofont.guides = (
{
angle = 0;
isGlobal = 0;
magnetic = 5;
x = 0;
y = 674;
},
{
angle = 90;
isGlobal = 0;
magnetic = 5;
x = 537;
y = 0;
},
{
angle = 90;
isGlobal = 0;
magnetic = 5;
x = 553;
y = 0;
}
);
};
},
{
glyphname = W;
layers = (
{
anchors = (
{
name = top;
position = "{457, 800}";
}
);
layerId = master01;
paths = (
{
closed = 1;
nodes = (
"319 -16 LINE",
"303 -16 LINE",
"60 674 LINE",
"-22 682 LINE",
"-22 690 LINE",
"228 690 LINE",
"228 682 LINE",
"141 674 LINE",
"338 112 LINE",
"342 112 LINE",
"480 565 LINE",
"496 565 LINE"
);
},
{
closed = 1;
nodes = (
"758 690 LINE",
"971 690 LINE",
"971 682 LINE",
"915 677 LINE SMOOTH",
"879 674 OFFCURVE",
"870 667 OFFCURVE",
"861 637 CURVE SMOOTH",
"662 -16 LINE",
"646 -16 LINE",
"403 674 LINE",
"321 682 LINE",
"321 690 LINE",
"571 690 LINE",
"571 682 LINE",
"484 674 LINE",
"681 112 LINE",
"685 112 LINE",
"845 637 LINE SMOOTH",
"847 644 OFFCURVE",
"848 650 OFFCURVE",
"848 656 CURVE SMOOTH",
"848 670 OFFCURVE",
"842 675 OFFCURVE",
"819 677 CURVE SMOOTH",
"758 682 LINE"
);
}
);
width = 945;
}
);
leftKerningGroup = W;
rightKerningGroup = W;
unicode = 0057;
},
{
glyphname = X;
layers = (
{
layerId = master01;
paths = (
{
closed = 1;
nodes = (
"11 682 LINE",
"11 690 LINE",
"266 690 LINE",
"266 682 LINE",
"179 674 LINE",
"632 16 LINE",
"714 8 LINE",
"714 0 LINE",
"459 0 LINE",
"459 8 LINE",
"546 16 LINE",
"93 674 LINE"
);
},
{
closed = 1;
nodes = (
"205 0 LINE",
"1 0 LINE",
"1 8 LINE",
"52 12 LINE SMOOTH",
"84 15 OFFCURVE",
"97 22 OFFCURVE",
"116 48 CURVE SMOOTH",
"332 340 LINE",
"348 340 LINE",
"132 48 LINE SMOOTH",
"124 37 OFFCURVE",
"120 30 OFFCURVE",
"120 25 CURVE SMOOTH",
"120 18 OFFCURVE",
"129 15 OFFCURVE",
"148 13 CURVE",
"205 8 LINE"
);
},
{
closed = 1;
nodes = (
"500 690 LINE",
"704 690 LINE",
"704 682 LINE",
"653 678 LINE SMOOTH",
"621 675 OFFCURVE",
"608 668 OFFCURVE",
"589 642 CURVE SMOOTH",
"373 350 LINE",
"357 350 LINE",
"573 642 LINE SMOOTH",
"581 653 OFFCURVE",
"585 660 OFFCURVE",
"585 665 CURVE SMOOTH",
"585 672 OFFCURVE",
"576 675 OFFCURVE",
"557 677 CURVE",
"500 682 LINE"
);
}
);
width = 715;
}
);
unicode = 0058;
},
{
glyphname = Y;
layers = (
{
anchors = (
{
name = top;
position = "{313, 800}";
}
);
layerId = master01;
paths = (
{
closed = 1;
nodes = (
"421 690 LINE",
"634 690 LINE",
"634 682 LINE",
"578 677 LINE SMOOTH",
"544 674 OFFCURVE",
"538 666 OFFCURVE",
"524 637 CURVE SMOOTH",
"321 213 LINE",
"303 213 LINE",
"56 674 LINE",
"-26 682 LINE",
"-26 690 LINE",
"223 690 LINE",
"223 682 LINE",
"136 674 LINE",
"339 295 LINE",
"344 295 LINE",
"508 637 LINE SMOOTH",
"512 646 OFFCURVE",
"512 651 OFFCURVE",
"512 656 CURVE SMOOTH",
"512 669 OFFCURVE",
"504 675 OFFCURVE",
"482 677 CURVE SMOOTH",
"421 682 LINE"
);
},
{
closed = 1;
nodes = (
"350 16 LINE",
"437 8 LINE",
"437 0 LINE",
"186 0 LINE",
"186 8 LINE",
"273 16 LINE",
"273 280 LINE",
"350 280 LINE"
);
}
);
width = 612;
}
);
leftKerningGroup = Y;
rightKerningGroup = Y;
unicode = 0059;
},
{
glyphname = Z;
layers = (
{
anchors = (
{
name = bottom;
position = "{291, 0}";
},
{
name = top;
position = "{307, 800}";
}
);
layerId = master01;
paths = (
{
closed = 1;
nodes = (
"203 678 LINE SMOOTH",
"171 678 OFFCURVE",
"159 671 OFFCURVE",
"145 642 CURVE SMOOTH",
"69 491 LINE",
"55 493 LINE",
"96 690 LINE",
"534 690 LINE",
"534 682 LINE",
"125 16 LINE",
"125 12 LINE",
"399 12 LINE SMOOTH",
"431 12 OFFCURVE",
"442 19 OFFCURVE",
"455 49 CURVE SMOOTH",
"527 217 LINE",
"541 215 LINE",
"504 0 LINE",
"35 0 LINE",
"35 8 LINE",
"444 674 LINE",
"444 678 LINE"
);
}
);
width = 587;
}
);
leftKerningGroup = Z;
rightKerningGroup = Z;
unicode = 005A;
},
{
glyphname = bracketleft;
layers = (
{
layerId = master01;
paths = (
{
closed = 1;
nodes = (
"92 734 LINE",
"281 734 LINE",
"281 718 LINE",
"158 718 LINE",
"158 -151 LINE",
"281 -151 LINE",
"281 -167 LINE",
"92 -167 LINE"
);
}
);
width = 306;
}
);
unicode = 005B;
},
{
glyphname = backslash;
layers = (
{
layerId = master01;
paths = (
{
closed = 1;
nodes = (
"279 0 LINE",
"256 0 LINE",
"46 690 LINE",
"69 690 LINE"
);
}
);
width = 325;
}
);
unicode = 005C;
},
{
glyphname = bracketright;
layers = (
{
layerId = master01;
paths = (
{
closed = 1;
nodes = (
"25 -151 LINE",
"148 -151 LINE",
"148 718 LINE",
"25 718 LINE",
"25 734 LINE",
"214 734 LINE",
"214 -167 LINE",
"25 -167 LINE"
);
}
);
width = 306;
}
);
unicode = 005D;
},
{
glyphname = asciicircum;
layers = (
{
layerId = master01;
paths = (
{
closed = 1;
nodes = (
"207 387 OFFCURVE",
"199 396 OFFCURVE",
"182 396 CURVE SMOOTH",
"167 396 OFFCURVE",
"157 389 OFFCURVE",
"151 375 CURVE SMOOTH",
"66 189 LINE",
"69 188 LINE",
"182 334 LINE",
"295 188 LINE",
"298 189 LINE",
"213 375 LINE SMOOTH"
);
}
);
width = 364;
}
);
unicode = 005E;
},
{
glyphname = underscore;
layers = (
{
layerId = master01;
paths = (
{
closed = 1;
nodes = (
"339 -15 LINE",
"332 -37 LINE",
"52 -37 LINE",
"59 -15 LINE"
);
}
);
width = 396;
}
);
unicode = 005F;
},
{
glyphname = grave;
layers = (
{
anchors = (
{
name = _top;
position = "{97, 530}";
}
);
layerId = master01;
paths = (
{
closed = 1;
nodes = (
"99 685 OFFCURVE",
"88 691 OFFCURVE",
"73 691 CURVE SMOOTH",
"55 691 OFFCURVE",
"45 677 OFFCURVE",
"45 660 CURVE SMOOTH",
"45 647 OFFCURVE",
"55 638 OFFCURVE",
"81 605 CURVE SMOOTH",
"146 523 LINE",
"149 524 LINE",
"104 670 LINE"
);
}
);
width = 194;
}
);
unicode = 0060;
},
{
glyphname = a;
layers = (
{
anchors = (
{
name = bottom;
position = "{309, 0}";
},
{
name = top;
position = "{190, 530}";
}
);
layerId = master01;
paths = (
{
closed = 1;
nodes = (
"171 -7 OFFCURVE",
"214 17 OFFCURVE",
"244 55 CURVE",
"247 54 LINE",
"249 20 OFFCURVE",
"274 -3 OFFCURVE",
"309 -3 CURVE SMOOTH {name = hr01;}",
"340 -3 OFFCURVE",
"368 16 OFFCURVE",
"384 49 CURVE",
"380 51 LINE",
"372 39 OFFCURVE",
"357 32 OFFCURVE",
"340 32 CURVE SMOOTH",
"316 32 OFFCURVE",
"308 47 OFFCURVE",
"308 95 CURVE SMOOTH",
"308 286 LINE SMOOTH",
"308 358 OFFCURVE",
"307 373 OFFCURVE",
"300 391 CURVE SMOOTH",
"288 418 OFFCURVE",
"261 433 OFFCURVE",
"224 433 CURVE SMOOTH",
"194 433 OFFCURVE",
"160 424 OFFCURVE",
"131 408 CURVE SMOOTH",
"82 382 OFFCURVE",
"47 340 OFFCURVE",
"47 308 CURVE SMOOTH",
"47 287 OFFCURVE",
"61 272 OFFCURVE",
"81 272 CURVE SMOOTH",
"103 272 OFFCURVE",
"117 292 OFFCURVE",
"117 326 CURVE SMOOTH",
"117 335 OFFCURVE",
"116 346 OFFCURVE",
"116 353 CURVE SMOOTH",
"116 390 OFFCURVE",
"144 414 OFFCURVE",
"185 414 CURVE SMOOTH",
"228 414 OFFCURVE",
"243 388 OFFCURVE",
"243 311 CURVE SMOOTH",
"243 220 LINE",
"97 191 OFFCURVE",
"43 155 OFFCURVE",
"43 88 CURVE SMOOTH",
"43 32 OFFCURVE",
"79 -7 OFFCURVE",
"130 -7 CURVE SMOOTH"
);
},
{
closed = 1;
nodes = (
"134 31 OFFCURVE",
"110 60 OFFCURVE",
"110 107 CURVE SMOOTH",
"110 161 OFFCURVE",
"141 184 OFFCURVE",
"243 209 CURVE",
"243 68 LINE",
"227 44 OFFCURVE",
"200 31 OFFCURVE",
"173 31 CURVE SMOOTH"
);
}
);
width = 391;
}
);
leftKerningGroup = a;
rightKerningGroup = a;
unicode = 0061;
},
{
glyphname = b;
layers = (
{
layerId = master01;
paths = (
{
closed = 1;
nodes = (
"185 -10 OFFCURVE",
"146 3 OFFCURVE",
"114 27 CURVE",
"110 27 LINE",
"80 0 LINE",
"72 0 LINE",
"72 653 LINE",
"13 675 LINE",
"13 682 LINE",
"129 721 LINE",
"137 721 LINE",
"137 377 LINE",
"172 415 OFFCURVE",
"213 434 OFFCURVE",
"260 434 CURVE SMOOTH",
"360 434 OFFCURVE",
"427 351 OFFCURVE",
"427 228 CURVE SMOOTH",
"427 91 OFFCURVE",
"342 -10 OFFCURVE",
"226 -10 CURVE SMOOTH {name = hr00;}"
);
},
{
closed = 1;
nodes = (
"302 0 OFFCURVE",
"352 82 OFFCURVE",
"352 207 CURVE SMOOTH",
"352 329 OFFCURVE",
"304 404 OFFCURVE",
"226 404 CURVE SMOOTH",
"190 404 OFFCURVE",
"157 388 OFFCURVE",
"137 362 CURVE",
"137 101 LINE SMOOTH",
"137 40 OFFCURVE",
"172 0 OFFCURVE",
"225 0 CURVE SMOOTH"
);
}
);
width = 467;
}
);
leftKerningGroup = b;
rightKerningGroup = b;
unicode = 0062;
},
{
glyphname = c;
layers = (
{
anchors = (
{
name = bottom;
position = "{224, 0}";
},
{
name = top;
position = "{231, 530}";
}
);
layerId = master01;
paths = (
{
closed = 1;
nodes = (
"312 434 OFFCURVE",
"371 396 OFFCURVE",
"371 347 CURVE SMOOTH",
"371 324 OFFCURVE",
"357 309 OFFCURVE",
"334 309 CURVE SMOOTH",
"270 309 OFFCURVE",
"318 424 OFFCURVE",
"234 424 CURVE SMOOTH",
"161 424 OFFCURVE",
"107 339 OFFCURVE",
"107 222 CURVE SMOOTH",
"107 106 OFFCURVE",
"159 39 OFFCURVE",
"249 39 CURVE SMOOTH",
"299 39 OFFCURVE",
"337 59 OFFCURVE",
"370 102 CURVE SMOOTH",
"379 114 LINE",
"383 112 LINE",
"379 101 LINE SMOOTH",
"353 31 OFFCURVE",
"296 -10 OFFCURVE",
"223 -10 CURVE SMOOTH",
"116 -10 OFFCURVE",
"40 80 OFFCURVE",
"40 207 CURVE SMOOTH",
"40 339 OFFCURVE",
"122 434 OFFCURVE",
"238 434 CURVE SMOOTH {name = hr00;}"
);
}
);
width = 406;
}
);
leftKerningGroup = o;
rightKerningGroup = c;
unicode = 0063;
},
{
glyphname = d;
layers = (
{
anchors = (
{
name = bottom;
position = "{206, 0}";
}
);
layerId = master01;
paths = (
{
closed = 1;
nodes = (
"111 -10 OFFCURVE",
"40 81 OFFCURVE",
"40 204 CURVE SMOOTH",
"40 340 OFFCURVE",
"126 434 OFFCURVE",
"252 434 CURVE SMOOTH",
"278 434 OFFCURVE",
"304 430 OFFCURVE",
"330 422 CURVE",
"330 653 LINE",
"271 675 LINE",
"271 682 LINE",
"387 721 LINE",
"395 721 LINE",
"395 62 LINE",
"450 50 LINE",
"450 45 LINE",
"341 -5 LINE",
"335 -5 LINE",
"335 63 LINE",
"332 64 LINE",
"301 16 OFFCURVE",
"257 -10 OFFCURVE",
"206 -10 CURVE SMOOTH {name = hr00;}"
);
},
{
closed = 1;
nodes = (
"279 30 OFFCURVE",
"313 47 OFFCURVE",
"330 77 CURVE",
"330 333 LINE SMOOTH",
"330 392 OFFCURVE",
"302 424 OFFCURVE",
"251 424 CURVE SMOOTH",
"166 424 OFFCURVE",
"111 341 OFFCURVE",
"111 218 CURVE SMOOTH",
"111 102 OFFCURVE",
"159 30 OFFCURVE",
"241 30 CURVE SMOOTH"
);
}
);
width = 472;
}
);
leftKerningGroup = d;
rightKerningGroup = d;
unicode = 0064;
userData = {
com.typemytype.robofont.guides = (
{
angle = 0;
isGlobal = 0;
magnetic = 5;
x = 0;
y = 35;
}
);
};
},
{
glyphname = e;
layers = (
{
anchors = (
{
name = bottom;
position = "{226, 0}";
},
{
name = top;
position = "{232, 530}";
}
);
layerId = master01;
paths = (
{
closed = 1;
nodes = (
"385 378 OFFCURVE",
"334 434 OFFCURVE",
"241 434 CURVE SMOOTH",
"121 434 OFFCURVE",
"40 343 OFFCURVE",
"40 211 CURVE SMOOTH",
"40 80 OFFCURVE",
"115 -10 OFFCURVE",
"225 -10 CURVE SMOOTH",
"298 -10 OFFCURVE",
"353 30 OFFCURVE",
"379 101 CURVE SMOOTH",
"383 112 LINE",
"379 114 LINE",
"370 102 LINE SMOOTH",
"337 60 OFFCURVE",
"293 40 OFFCURVE",
"249 40 CURVE SMOOTH",
"162 40 OFFCURVE",
"109 102 OFFCURVE",
"109 226 CURVE SMOOTH",
"109 342 OFFCURVE",
"155 423 OFFCURVE",
"230 423 CURVE SMOOTH",
"276 423 OFFCURVE",
"309 401 OFFCURVE",
"309 325 CURVE SMOOTH",
"309 310 OFFCURVE",
"308 293 OFFCURVE",
"306 285 CURVE",
"103 278 LINE",
"103 267 LINE",
"381 267 LINE",
"387 272 LINE {name = hr00;}"
);
}
);
width = 423;
}
);
leftKerningGroup = o;
rightKerningGroup = e;
unicode = 0065;
},
{
glyphname = f;
layers = (
{
layerId = master01;
paths = (
{
closed = 1;
nodes = (
"237 8 LINE",
"237 0 LINE",
"24 0 LINE",
"24 8 LINE",
"85 16 LINE",
"85 482 LINE SMOOTH",
"85 578 OFFCURVE",
"87 606 OFFCURVE",
"97 632 CURVE SMOOTH",
"120 691 OFFCURVE",
"182 733 OFFCURVE",
"247 733 CURVE SMOOTH",
"299 733 OFFCURVE",
"344 706 OFFCURVE",
"344 674 CURVE SMOOTH",
"344 654 OFFCURVE",
"327 638 OFFCURVE",
"307 638 CURVE SMOOTH",
"285 638 OFFCURVE",
"273 651 OFFCURVE",
"268 679 CURVE SMOOTH",
"260 712 OFFCURVE",
"252 720 OFFCURVE",
"230 720 CURVE SMOOTH",
"201 720 OFFCURVE",
"178 702 OFFCURVE",
"164 668 CURVE SMOOTH",
"153 640 OFFCURVE",
"150 610 OFFCURVE",
"150 537 CURVE SMOOTH",
"150 18 LINE {name = hr00;}"
);
},
{
closed = 1;
nodes = (
"243 424 LINE",
"238 408 LINE",
"18 408 LINE",
"23 424 LINE"
);
}
);
width = 263;
}
);
leftKerningGroup = f;
rightKerningGroup = f;
unicode = 0066;
},
{
glyphname = g;
layers = (
{
anchors = (
{
name = top;
position = "{204, 530}";
}
);
layerId = master01;
paths = (
{
closed = 1;
nodes = (
"297 142 OFFCURVE",
"363 203 OFFCURVE",
"363 288 CURVE SMOOTH",
"363 373 OFFCURVE",
"297 434 OFFCURVE",
"204 434 CURVE SMOOTH",
"111 434 OFFCURVE",
"45 374 OFFCURVE",
"45 289 CURVE SMOOTH",
"45 203 OFFCURVE",
"111 142 OFFCURVE",
"204 142 CURVE SMOOTH"
);
},
{
closed = 1;
nodes = (
"154 152 OFFCURVE",
"119 208 OFFCURVE",
"119 288 CURVE SMOOTH",
"119 368 OFFCURVE",
"154 424 OFFCURVE",
"204 424 CURVE SMOOTH",
"254 424 OFFCURVE",
"289 368 OFFCURVE",
"289 288 CURVE SMOOTH",
"289 208 OFFCURVE",
"254 152 OFFCURVE",
"204 152 CURVE SMOOTH"
);
},
{
closed = 1;
nodes = (
"314 426 OFFCURVE",
"323 441 OFFCURVE",
"338 441 CURVE SMOOTH {name = hr01;}",
"355 441 OFFCURVE",
"365 421 OFFCURVE",
"385 421 CURVE SMOOTH",
"404 421 OFFCURVE",
"419 436 OFFCURVE",
"419 455 CURVE SMOOTH",
"419 478 OFFCURVE",
"403 493 OFFCURVE",
"378 493 CURVE SMOOTH",
"342 493 OFFCURVE",
"315 461 OFFCURVE",
"299 400 CURVE",
"308 393 LINE"
);
},
{
closed = 1;
nodes = (
"300 -246 OFFCURVE",
"386 -185 OFFCURVE",
"386 -104 CURVE SMOOTH {name = hr02;}",
"386 -34 OFFCURVE",
"343 2 OFFCURVE",
"229 23 CURVE SMOOTH",
"128 42 OFFCURVE",
"111 55 OFFCURVE",
"111 82 CURVE SMOOTH",
"111 112 OFFCURVE",
"159 136 OFFCURVE",
"244 146 CURVE",
"199 146 LINE",
"104 128 OFFCURVE",
"54 94 OFFCURVE",
"54 55 CURVE SMOOTH",
"54 13 OFFCURVE",
"87 -18 OFFCURVE",
"199 -40 CURVE SMOOTH",
"301 -60 OFFCURVE",
"328 -84 OFFCURVE",
"328 -134 CURVE SMOOTH",
"328 -196 OFFCURVE",
"275 -236 OFFCURVE",
"191 -236 CURVE SMOOTH",
"107 -236 OFFCURVE",
"59 -196 OFFCURVE",
"59 -125 CURVE SMOOTH",
"59 -70 OFFCURVE",
"85 -35 OFFCURVE",
"139 -19 CURVE",
"139 -13 LINE",
"61 -32 OFFCURVE",
"11 -80 OFFCURVE",
"11 -134 CURVE SMOOTH",
"11 -205 OFFCURVE",
"75 -246 OFFCURVE",
"185 -246 CURVE SMOOTH"
);
}
);
width = 403;
}
);
leftKerningGroup = g;
rightKerningGroup = g;
unicode = 0067;
},
{
glyphname = h;
layers = (
{
anchors = (
{
name = bottom;
position = "{229, 0}";
}
);
layerId = master01;
paths = (
{
closed = 1;
nodes = (
"205 0 LINE",
"18 0 LINE",
"18 8 LINE",
"79 16 LINE",
"79 653 LINE",
"20 675 LINE",
"20 682 LINE",
"136 721 LINE",
"144 721 LINE",
"144 16 LINE",
"205 8 LINE {name = hr00;}"
);
},
{
closed = 1;
nodes = (
"179 408 OFFCURVE",
"228 434 OFFCURVE",
"275 434 CURVE SMOOTH",
"315 434 OFFCURVE",
"350 415 OFFCURVE",
"366 385 CURVE SMOOTH",
"375 367 OFFCURVE",
"377 346 OFFCURVE",
"377 271 CURVE SMOOTH",
"377 16 LINE",
"438 8 LINE",
"438 0 LINE",
"251 0 LINE",
"251 8 LINE",
"312 16 LINE",
"312 271 LINE SMOOTH",
"312 326 OFFCURVE",
"310 345 OFFCURVE",
"302 361 CURVE SMOOTH",
"291 384 OFFCURVE",
"266 397 OFFCURVE",
"234 397 CURVE SMOOTH",
"196 397 OFFCURVE",
"163 379 OFFCURVE",
"136 345 CURVE",
"136 361 LINE"
);
}
);
width = 453;
}
);
leftKerningGroup = h;
rightKerningGroup = n;
unicode = 0068;
},
{
glyphname = i;
layers = (
{
layerId = master01;
paths = (
{
closed = 1;
nodes = (
"65 551 OFFCURVE",
"84 530 OFFCURVE",
"113 530 CURVE SMOOTH",
"142 530 OFFCURVE",
"161 551 OFFCURVE",
"161 578 CURVE SMOOTH",
"161 605 OFFCURVE",
"142 626 OFFCURVE",
"113 626 CURVE SMOOTH",
"84 626 OFFCURVE",
"65 605 OFFCURVE",
"65 578 CURVE SMOOTH {name = hr00;}"
);
},
{
closed = 1;
nodes = (
"212 0 LINE",
"25 0 LINE",
"25 8 LINE",
"86 16 LINE",
"86 366 LINE",
"27 388 LINE",
"27 395 LINE",
"143 434 LINE",
"151 434 LINE",
"151 16 LINE",
"212 8 LINE"
);
}
);
width = 229;
}
);
leftKerningGroup = i;
rightKerningGroup = i;
unicode = 0069;
},
{
glyphname = j;
layers = (
{
layerId = master01;
paths = (
{
closed = 1;
nodes = (
"60 550 OFFCURVE",
"80 530 OFFCURVE",
"108 530 CURVE SMOOTH",
"136 530 OFFCURVE",
"156 550 OFFCURVE",
"156 578 CURVE SMOOTH",
"156 606 OFFCURVE",
"136 626 OFFCURVE",
"108 626 CURVE SMOOTH",
"80 626 OFFCURVE",
"60 606 OFFCURVE",
"60 578 CURVE SMOOTH {name = hr00;}"
);
},
{
closed = 1;
nodes = (
"22 388 LINE",
"22 395 LINE",
"138 434 LINE",
"146 434 LINE",
"146 40 LINE SMOOTH",
"146 -91 OFFCURVE",
"142 -123 OFFCURVE",
"123 -158 CURVE SMOOTH",
"93 -214 OFFCURVE",
"43 -247 OFFCURVE",
"-13 -247 CURVE SMOOTH",
"-59 -247 OFFCURVE",
"-90 -223 OFFCURVE",
"-90 -189 CURVE SMOOTH",
"-90 -165 OFFCURVE",
"-74 -149 OFFCURVE",
"-52 -149 CURVE SMOOTH",
"-32 -149 OFFCURVE",
"-20 -161 OFFCURVE",
"-13 -188 CURVE SMOOTH",
"-6 -218 OFFCURVE",
"3 -228 OFFCURVE",
"24 -228 CURVE SMOOTH",
"63 -228 OFFCURVE",
"81 -188 OFFCURVE",
"81 -102 CURVE SMOOTH",
"81 366 LINE"
);
}
);
width = 218;
}
);
leftKerningGroup = j;
rightKerningGroup = j;
unicode = 006A;
},
{
glyphname = k;
layers = (
{
anchors = (
{
name = bottom;
position = "{227, 0}";
}
);
layerId = master01;
paths = (
{
closed = 1;
nodes = (
"414 16 LINE",
"469 8 LINE",
"469 0 LINE",
"341 0 LINE",
"168 210 LINE",
"211 262 LINE {name = hr00;}"
);
},
{
closed = 1;
nodes = (
"204 0 LINE",
"18 0 LINE",
"18 8 LINE",
"79 16 LINE",
"79 653 LINE",
"20 675 LINE",
"20 682 LINE",
"136 721 LINE",
"144 721 LINE",
"144 16 LINE",
"204 8 LINE"
);
},
{
closed = 1;
nodes = (
"242 424 LINE",
"411 424 LINE",
"411 416 LINE",
"357 407 OFFCURVE",
"333 394 OFFCURVE",
"306 362 CURVE SMOOTH",
"122 145 LINE",
"122 163 LINE",
"286 360 LINE SMOOTH",
"298 375 OFFCURVE",
"304 385 OFFCURVE",
"304 392 CURVE SMOOTH",
"304 404 OFFCURVE",
"290 409 OFFCURVE",
"242 416 CURVE"
);
}
);
width = 457;
}
);
leftKerningGroup = h;
rightKerningGroup = k;
unicode = 006B;
},
{
glyphname = l;
layers = (
{
anchors = (
{
name = bottom;
position = "{111, 0}";
}
);
layerId = master01;
paths = (
{
closed = 1;
nodes = (
"205 0 LINE",
"18 0 LINE",
"18 8 LINE",
"79 16 LINE",
"79 653 LINE",
"20 675 LINE",
"20 682 LINE",
"136 721 LINE",
"144 721 LINE",
"144 16 LINE",
"205 8 LINE {name = hr00;}"
);
}
);
width = 223;
}
);
leftKerningGroup = l;
rightKerningGroup = l;
unicode = 006C;
},
{
glyphname = m;
layers = (
{
layerId = master01;
paths = (
{
closed = 1;
nodes = (
"212 0 LINE",
"26 0 LINE",
"26 8 LINE",
"86 16 LINE",
"86 366 LINE",
"27 388 LINE",
"27 395 LINE",
"140 434 LINE",
"148 434 LINE",
"148 362 LINE",
"151 358 LINE",
"151 16 LINE",
"212 8 LINE {name = hr00;}"
);
},
{
closed = 1;
nodes = (
"184 409 OFFCURVE",
"227 434 OFFCURVE",
"271 434 CURVE SMOOTH",
"309 434 OFFCURVE",
"337 417 OFFCURVE",
"353 385 CURVE SMOOTH",
"362 367 OFFCURVE",
"364 346 OFFCURVE",
"364 271 CURVE SMOOTH",
"364 16 LINE",
"426 8 LINE",
"426 0 LINE",
"237 0 LINE",
"237 8 LINE",
"299 16 LINE",
"299 271 LINE SMOOTH",
"299 323 OFFCURVE",
"297 344 OFFCURVE",
"290 361 CURVE SMOOTH",
"280 385 OFFCURVE",
"259 397 OFFCURVE",
"230 397 CURVE SMOOTH",
"195 397 OFFCURVE",
"167 380 OFFCURVE",
"143 345 CURVE",
"143 361 LINE"
);
},
{
closed = 1;
nodes = (
"397 409 OFFCURVE",
"440 434 OFFCURVE",
"484 434 CURVE SMOOTH",
"522 434 OFFCURVE",
"550 417 OFFCURVE",
"566 385 CURVE SMOOTH",
"575 367 OFFCURVE",
"577 342 OFFCURVE",
"577 271 CURVE SMOOTH",
"577 16 LINE",
"639 8 LINE",
"639 0 LINE",
"451 0 LINE",
"451 8 LINE",
"512 16 LINE",
"512 271 LINE SMOOTH",
"512 323 OFFCURVE",
"510 344 OFFCURVE",
"503 361 CURVE SMOOTH",
"493 385 OFFCURVE",
"472 397 OFFCURVE",
"443 397 CURVE SMOOTH",
"408 397 OFFCURVE",
"380 380 OFFCURVE",
"356 345 CURVE",
"356 361 LINE"
);
}
);
width = 652;
}
);
leftKerningGroup = n;
rightKerningGroup = n;
unicode = 006D;
},
{
glyphname = n;
layers = (
{
anchors = (
{
name = bottom;
position = "{237, 0}";
},
{
name = top;
position = "{234, 530}";
}
);
layerId = master01;
paths = (
{
closed = 1;
nodes = (
"212 0 LINE",
"25 0 LINE",
"25 8 LINE",
"86 16 LINE",
"86 361 LINE",
"27 383 LINE",
"27 390 LINE",
"140 429 LINE",
"148 429 LINE",
"148 362 LINE",
"151 358 LINE",
"151 16 LINE",
"212 8 LINE {name = hr00;}"
);
},
{
closed = 1;
nodes = (
"188 410 OFFCURVE",
"235 434 OFFCURVE",
"282 434 CURVE SMOOTH",
"323 434 OFFCURVE",
"360 415 OFFCURVE",
"375 385 CURVE SMOOTH",
"384 367 OFFCURVE",
"386 346 OFFCURVE",
"386 271 CURVE SMOOTH",
"386 16 LINE",
"446 8 LINE",
"446 0 LINE",
"260 0 LINE",
"260 8 LINE",
"321 16 LINE",
"321 271 LINE SMOOTH",
"321 322 OFFCURVE",
"319 344 OFFCURVE",
"311 361 CURVE SMOOTH",
"300 384 OFFCURVE",
"274 397 OFFCURVE",
"242 397 CURVE SMOOTH",
"205 397 OFFCURVE",
"172 380 OFFCURVE",
"143 345 CURVE",
"143 361 LINE"
);
}
);
width = 462;
}
);
leftKerningGroup = n;
rightKerningGroup = n;
unicode = 006E;
},
{
glyphname = o;
layers = (
{
anchors = (
{
name = bottom;
position = "{238, 0}";
},
{
name = top;
position = "{238, 530}";
}
);
layerId = master01;
paths = (
{
closed = 1;
nodes = (
"121 434 OFFCURVE",
"40 344 OFFCURVE",
"40 212 CURVE SMOOTH",
"40 80 OFFCURVE",
"121 -10 OFFCURVE",
"238 -10 CURVE SMOOTH",
"355 -10 OFFCURVE",
"436 80 OFFCURVE",
"436 212 CURVE SMOOTH",
"436 344 OFFCURVE",
"355 434 OFFCURVE",
"238 434 CURVE SMOOTH {name = hr00;}"
);
},
{
closed = 1;
nodes = (
"114 345 OFFCURVE",
"160 424 OFFCURVE",
"238 424 CURVE SMOOTH",
"315 424 OFFCURVE",
"362 345 OFFCURVE",
"362 212 CURVE SMOOTH",
"362 79 OFFCURVE",
"315 0 OFFCURVE",
"238 0 CURVE SMOOTH",
"160 0 OFFCURVE",
"114 79 OFFCURVE",
"114 212 CURVE SMOOTH"
);
}
);
width = 476;
}
);
leftKerningGroup = o;
rightKerningGroup = o;
unicode = 006F;
},
{
glyphname = p;
layers = (
{
layerId = master01;
paths = (
{
closed = 1;
nodes = (
"144 -216 LINE",
"234 -227 LINE",
"234 -234 LINE",
"18 -234 LINE",
"18 -226 LINE",
"79 -218 LINE",
"79 366 LINE",
"20 388 LINE",
"20 395 LINE",
"133 434 LINE",
"141 434 LINE",
"141 363 LINE",
"145 363 LINE",
"174 407 OFFCURVE",
"223 434 OFFCURVE",
"275 434 CURVE SMOOTH",
"365 434 OFFCURVE",
"431 346 OFFCURVE",
"431 224 CURVE SMOOTH",
"431 87 OFFCURVE",
"346 -10 OFFCURVE",
"226 -10 CURVE SMOOTH",
"197 -10 OFFCURVE",
"171 -4 OFFCURVE",
"144 8 CURVE {name = hr00;}"
);
},
{
closed = 1;
nodes = (
"305 0 OFFCURVE",
"358 88 OFFCURVE",
"358 210 CURVE SMOOTH",
"358 328 OFFCURVE",
"310 404 OFFCURVE",
"237 404 CURVE SMOOTH",
"196 404 OFFCURVE",
"160 381 OFFCURVE",
"144 344 CURVE",
"144 71 LINE SMOOTH",
"144 33 OFFCURVE",
"185 0 OFFCURVE",
"233 0 CURVE SMOOTH"
);
}
);
width = 472;
}
);
rightKerningGroup = b;
unicode = 0070;
},
{
glyphname = q;
layers = (
{
layerId = master01;
paths = (
{
closed = 1;
nodes = (
"330 49 LINE",
"297 10 OFFCURVE",
"254 -10 OFFCURVE",
"207 -10 CURVE SMOOTH",
"109 -10 OFFCURVE",
"40 76 OFFCURVE",
"40 198 CURVE SMOOTH",
"40 333 OFFCURVE",
"127 434 OFFCURVE",
"243 434 CURVE SMOOTH",
"283 434 OFFCURVE",
"319 422 OFFCURVE",
"353 397 CURVE",
"357 397 LINE",
"384 424 LINE",
"395 424 LINE",
"395 -218 LINE",
"456 -226 LINE",
"456 -234 LINE",
"240 -234 LINE",
"240 -227 LINE",
"330 -216 LINE {name = hr00;}"
);
},
{
closed = 1;
nodes = (
"166 424 OFFCURVE",
"114 342 OFFCURVE",
"114 216 CURVE SMOOTH",
"114 95 OFFCURVE",
"162 20 OFFCURVE",
"240 20 CURVE SMOOTH",
"275 20 OFFCURVE",
"309 36 OFFCURVE",
"330 62 CURVE",
"330 323 LINE SMOOTH",
"330 387 OFFCURVE",
"299 424 OFFCURVE",
"246 424 CURVE SMOOTH"
);
}
);
width = 467;
}
);
leftKerningGroup = d;
unicode = 0071;
},
{
glyphname = r;
layers = (
{
anchors = (
{
name = bottom;
position = "{117, 0}";
},
{
name = top;
position = "{169, 530}";
}
);
layerId = master01;
paths = (
{
closed = 1;
nodes = (
"182 402 OFFCURVE",
"219 434 OFFCURVE",
"253 434 CURVE SMOOTH",
"280 434 OFFCURVE",
"301 413 OFFCURVE",
"301 388 CURVE SMOOTH",
"301 366 OFFCURVE",
"284 350 OFFCURVE",
"263 350 CURVE SMOOTH",
"234 350 OFFCURVE",
"232 384 OFFCURVE",
"207 384 CURVE SMOOTH",
"186 384 OFFCURVE",
"160 355 OFFCURVE",
"151 321 CURVE",
"144 340 LINE"
);
},
{
closed = 1;
nodes = (
"231 0 LINE",
"25 0 LINE",
"25 8 LINE",
"86 16 LINE",
"86 366 LINE",
"27 388 LINE",
"27 395 LINE",
"140 434 LINE {name = hr01;}",
"148 434 LINE {name = hr02;}",
"148 344 LINE",
"151 340 LINE {name = hr03;}",
"151 16 LINE",
"231 8 LINE"
);
}
);
width = 315;
}
);
leftKerningGroup = n;
rightKerningGroup = r;
unicode = 0072;
},
{
glyphname = s;
layers = (
{
anchors = (
{
name = bottom;
position = "{165, 0}";
},
{
name = top;
position = "{170, 530}";
}
);
layerId = master01;
paths = (
{
closed = 1;
nodes = (
"228 434 OFFCURVE",
"264 428 OFFCURVE",
"285 420 CURVE",
"285 309 LINE",
"274 309 LINE",
"256 389 OFFCURVE",
"229 423 OFFCURVE",
"181 423 CURVE SMOOTH",
"137 423 OFFCURVE",
"108 394 OFFCURVE",
"108 348 CURVE SMOOTH",
"108 228 OFFCURVE",
"302 272 OFFCURVE",
"302 122 CURVE SMOOTH",
"302 41 OFFCURVE",
"246 -10 OFFCURVE",
"158 -10 CURVE SMOOTH",
"125 -10 OFFCURVE",
"81 -2 OFFCURVE",
"53 8 CURVE",
"48 138 LINE",
"60 138 LINE",
"74 45 OFFCURVE",
"107 1 OFFCURVE",
"162 1 CURVE SMOOTH",
"211 1 OFFCURVE",
"243 35 OFFCURVE",
"243 86 CURVE SMOOTH {name = hr01;}",
"243 212 OFFCURVE",
"48 171 OFFCURVE",
"48 316 CURVE SMOOTH",
"48 391 OFFCURVE",
"101 434 OFFCURVE",
"195 434 CURVE SMOOTH"
);
}
);
width = 344;
}
);
leftKerningGroup = s;
rightKerningGroup = s;
unicode = 0073;
userData = {
com.typemytype.robofont.guides = (
{
angle = 90;
isGlobal = 0;
magnetic = 5;
x = 43;
y = 0;
},
{
angle = 90;
isGlobal = 0;
magnetic = 5;
x = 296;
y = 0;
}
);
};
},
{
glyphname = t;
layers = (
{
anchors = (
{
name = bottom;
position = "{156, 0}";
}
);
layerId = master01;
paths = (
{
closed = 1;
nodes = (
"138 424 LINE",
"252 424 LINE",
"246 408 LINE",
"138 408 LINE",
"138 102 LINE SMOOTH",
"138 79 OFFCURVE",
"142 61 OFFCURVE",
"149 50 CURVE SMOOTH",
"157 34 OFFCURVE",
"173 26 OFFCURVE",
"194 26 CURVE SMOOTH",
"216 26 OFFCURVE",
"234 36 OFFCURVE",
"258 60 CURVE",
"262 57 LINE",
"242 16 OFFCURVE",
"203 -10 OFFCURVE",
"161 -10 CURVE SMOOTH",
"140 -10 OFFCURVE",
"119 -3 OFFCURVE",
"104 8 CURVE SMOOTH",
"82 24 OFFCURVE",
"73 47 OFFCURVE",
"73 89 CURVE SMOOTH",
"73 409 LINE",
"26 409 LINE",
"24 414 LINE",
"134 520 LINE",
"138 519 LINE {name = hr00;}"
);
}
);
width = 268;
}
);
leftKerningGroup = t;
rightKerningGroup = t;
unicode = 0074;
},
{
glyphname = u;
layers = (
{
anchors = (
{
name = bottom;
position = "{210, 0}";
},
{
name = top;
position = "{220, 530}";
}
);
layerId = master01;
paths = (
{
closed = 1;
nodes = (
"278 46 OFFCURVE",
"245 28 OFFCURVE",
"211 28 CURVE SMOOTH",
"183 28 OFFCURVE",
"160 41 OFFCURVE",
"150 63 CURVE SMOOTH",
"142 80 OFFCURVE",
"140 101 OFFCURVE",
"140 153 CURVE SMOOTH",
"140 424 LINE",
"15 424 LINE",
"15 416 LINE",
"75 408 LINE",
"75 153 LINE SMOOTH",
"75 78 OFFCURVE",
"77 57 OFFCURVE",
"86 39 CURVE SMOOTH",
"101 9 OFFCURVE",
"135 -10 OFFCURVE",
"176 -10 CURVE SMOOTH",
"222 -10 OFFCURVE",
"263 14 OFFCURVE",
"303 64 CURVE",
"303 80 LINE {name = hr00;}"
);
},
{
closed = 1;
nodes = (
"301 70 LINE",
"303 64 LINE",
"306 63 LINE",
"306 -5 LINE",
"312 -5 LINE",
"421 45 LINE",
"421 50 LINE",
"366 62 LINE",
"366 424 LINE",
"241 424 LINE",
"241 416 LINE",
"301 408 LINE"
);
}
);
width = 443;
}
);
leftKerningGroup = u;
rightKerningGroup = u;
unicode = 0075;
},
{
glyphname = v;
layers = (
{
layerId = master01;
paths = (
{
closed = 1;
nodes = (
"72 374 LINE SMOOTH",
"60 405 OFFCURVE",
"48 413 OFFCURVE",
"2 416 CURVE",
"2 424 LINE",
"195 424 LINE",
"195 416 LINE",
"147 413 OFFCURVE",
"138 410 OFFCURVE",
"138 399 CURVE SMOOTH",
"138 394 OFFCURVE",
"140 387 OFFCURVE",
"145 373 CURVE SMOOTH",
"249 78 LINE",
"253 78 LINE",
"343 348 LINE SMOOTH",
"347 361 OFFCURVE",
"349 371 OFFCURVE",
"349 379 CURVE SMOOTH",
"349 400 OFFCURVE",
"332 408 OFFCURVE",
"279 416 CURVE",
"279 424 LINE",
"458 424 LINE",
"458 416 LINE",
"397 409 OFFCURVE",
"375 397 OFFCURVE",
"364 363 CURVE SMOOTH",
"239 -3 LINE",
"219 -3 LINE {name = hr00;}"
);
}
);
width = 446;
}
);
unicode = 0076;
},
{
glyphname = w;
layers = (
{
anchors = (
{
name = top;
position = "{325, 530}";
}
);
layerId = master01;
paths = (
{
closed = 1;
nodes = (
"211 -3 LINE",
"200 -3 LINE",
"65 382 LINE SMOOTH",
"57 406 OFFCURVE",
"53 410 OFFCURVE",
"5 416 CURVE",
"5 424 LINE",
"184 424 LINE",
"184 416 LINE",
"141 413 OFFCURVE",
"135 407 OFFCURVE",
"135 396 CURVE SMOOTH",
"135 390 OFFCURVE",
"137 383 OFFCURVE",
"141 372 CURVE SMOOTH",
"228 106 LINE",
"232 106 LINE",
"308 339 LINE",
"321 333 LINE {name = hr00;}"
);
},
{
closed = 1;
nodes = (
"285 377 LINE SMOOTH",
"277 400 OFFCURVE",
"268 412 OFFCURVE",
"230 416 CURVE",
"230 424 LINE",
"399 424 LINE",
"399 416 LINE",
"356 413 OFFCURVE",
"350 407 OFFCURVE",
"350 396 CURVE SMOOTH",
"350 390 OFFCURVE",
"352 383 OFFCURVE",
"356 372 CURVE SMOOTH",
"444 106 LINE",
"448 106 LINE",
"525 348 LINE SMOOTH",
"529 361 OFFCURVE",
"531 371 OFFCURVE",
"531 379 CURVE SMOOTH",
"531 400 OFFCURVE",
"517 408 OFFCURVE",
"470 416 CURVE",
"470 424 LINE",
"631 424 LINE",
"631 416 LINE",
"572 406 OFFCURVE",
"555 393 OFFCURVE",
"540 347 CURVE SMOOTH",
"426 -3 LINE",
"415 -3 LINE"
);
}
);
width = 619;
}
);
leftKerningGroup = w;
rightKerningGroup = w;
unicode = 0077;
},
{
glyphname = x;
layers = (
{
layerId = master01;
paths = (
{
closed = 1;
nodes = (
"404 20 OFFCURVE",
"416 13 OFFCURVE",
"458 8 CURVE",
"458 0 LINE",
"273 0 LINE",
"273 8 LINE",
"309 12 OFFCURVE",
"320 14 OFFCURVE",
"320 24 CURVE SMOOTH",
"320 31 OFFCURVE",
"315 40 OFFCURVE",
"308 51 CURVE SMOOTH",
"89 382 LINE SMOOTH",
"74 404 OFFCURVE",
"61 411 OFFCURVE",
"19 416 CURVE",
"19 424 LINE",
"204 424 LINE",
"204 416 LINE",
"168 412 OFFCURVE",
"157 410 OFFCURVE",
"157 400 CURVE SMOOTH",
"157 393 OFFCURVE",
"162 384 OFFCURVE",
"169 373 CURVE SMOOTH",
"389 42 LINE SMOOTH {name = hr00;}"
);
},
{
closed = 1;
nodes = (
"122 65 LINE SMOOTH",
"113 53 OFFCURVE",
"108 44 OFFCURVE",
"108 36 CURVE SMOOTH",
"108 23 OFFCURVE",
"121 16 OFFCURVE",
"166 8 CURVE",
"166 0 LINE",
"1 0 LINE",
"1 8 LINE",
"55 17 OFFCURVE",
"77 29 OFFCURVE",
"102 62 CURVE SMOOTH",
"219 217 LINE",
"228 207 LINE"
);
},
{
closed = 1;
nodes = (
"322 359 LINE SMOOTH",
"331 371 OFFCURVE",
"336 380 OFFCURVE",
"336 388 CURVE SMOOTH",
"336 401 OFFCURVE",
"323 408 OFFCURVE",
"278 416 CURVE",
"278 424 LINE",
"443 424 LINE",
"443 416 LINE",
"389 407 OFFCURVE",
"367 395 OFFCURVE",
"342 362 CURVE SMOOTH",
"233 220 LINE",
"224 230 LINE"
);
}
);
width = 460;
}
);
unicode = 0078;
userData = {
com.typemytype.robofont.guides = (
{
angle = 90;
isGlobal = 0;
magnetic = 5;
x = 2;
y = 0;
},
{
angle = 90;
isGlobal = 0;
magnetic = 5;
x = 427;
y = 0;
}
);
};
},
{
glyphname = y;
layers = (
{
anchors = (
{
name = top;
position = "{238, 530}";
}
);
layerId = master01;
paths = (
{
closed = 1;
nodes = (
"342 348 LINE SMOOTH",
"346 361 OFFCURVE",
"348 371 OFFCURVE",
"348 379 CURVE SMOOTH",
"348 400 OFFCURVE",
"331 408 OFFCURVE",
"278 416 CURVE",
"278 424 LINE",
"457 424 LINE",
"457 416 LINE",
"393 406 OFFCURVE",
"373 392 OFFCURVE",
"358 347 CURVE SMOOTH",
"191 -144 LINE SMOOTH",
"179 -180 OFFCURVE",
"168 -202 OFFCURVE",
"153 -217 CURVE SMOOTH",
"136 -236 OFFCURVE",
"116 -246 OFFCURVE",
"93 -246 CURVE SMOOTH",
"55 -246 OFFCURVE",
"27 -221 OFFCURVE",
"27 -188 CURVE SMOOTH {name = hr01;}",
"27 -161 OFFCURVE",
"44 -144 OFFCURVE",
"70 -144 CURVE SMOOTH",
"122 -144 OFFCURVE",
"100 -209 OFFCURVE",
"132 -209 CURVE SMOOTH",
"150 -209 OFFCURVE",
"163 -187 OFFCURVE",
"180 -137 CURVE SMOOTH",
"219 -18 LINE",
"65 382 LINE SMOOTH",
"55 407 OFFCURVE",
"44 413 OFFCURVE",
"-2 416 CURVE",
"-2 424 LINE",
"191 424 LINE",
"191 416 LINE",
"143 413 OFFCURVE",
"134 410 OFFCURVE",
"134 399 CURVE SMOOTH",
"134 394 OFFCURVE",
"136 387 OFFCURVE",
"141 373 CURVE SMOOTH",
"247 73 LINE",
"251 73 LINE"
);
}
);
width = 452;
}
);
leftKerningGroup = y;
rightKerningGroup = y;
unicode = 0079;
},
{
glyphname = z;
layers = (
{
anchors = (
{
name = bottom;
position = "{196, 0}";
},
{
name = top;
position = "{195, 530}";
}
);
layerId = master01;
paths = (
{
closed = 1;
nodes = (
"349 402 LINE",
"99 15 LINE",
"285 15 LINE",
"292 33 LINE SMOOTH",
"306 71 OFFCURVE",
"319 113 OFFCURVE",
"330 155 CURVE",
"344 154 LINE",
"338 0 LINE",
"31 0 LINE",
"31 22 LINE",
"279 410 LINE",
"103 410 LINE",
"97 394 LINE SMOOTH",
"84 359 OFFCURVE",
"69 309 OFFCURVE",
"63 277 CURVE",
"48 278 LINE",
"57 424 LINE",
"349 424 LINE"
);
}
);
width = 388;
}
);
leftKerningGroup = z;
rightKerningGroup = z;
unicode = 007A;
},
{
glyphname = braceleft;
layers = (
{
layerId = master01;
paths = (
{
closed = 1;
nodes = (
"160 281 OFFCURVE",
"190 243 OFFCURVE",
"190 175 CURVE SMOOTH",
"190 101 OFFCURVE",
"155 25 OFFCURVE",
"155 -58 CURVE SMOOTH",
"155 -126 OFFCURVE",
"179 -160 OFFCURVE",
"226 -160 CURVE SMOOTH",
"239 -160 OFFCURVE",
"253 -158 OFFCURVE",
"275 -152 CURVE",
"278 -163 LINE",
"254 -170 OFFCURVE",
"230 -174 OFFCURVE",
"208 -174 CURVE SMOOTH",
"130 -174 OFFCURVE",
"84 -130 OFFCURVE",
"84 -54 CURVE SMOOTH",
"84 13 OFFCURVE",
"120 105 OFFCURVE",
"120 196 CURVE SMOOTH",
"120 270 OFFCURVE",
"96 295 OFFCURVE",
"24 295 CURVE",
"24 305 LINE",
"96 305 OFFCURVE",
"120 327 OFFCURVE",
"120 395 CURVE SMOOTH",
"120 478 OFFCURVE",
"84 559 OFFCURVE",
"84 625 CURVE SMOOTH",
"84 699 OFFCURVE",
"130 744 OFFCURVE",
"208 744 CURVE SMOOTH",
"230 744 OFFCURVE",
"254 740 OFFCURVE",
"278 733 CURVE",
"275 722 LINE",
"253 728 OFFCURVE",
"239 730 OFFCURVE",
"226 730 CURVE SMOOTH",
"179 730 OFFCURVE",
"155 695 OFFCURVE",
"155 629 CURVE SMOOTH",
"155 549 OFFCURVE",
"190 484 OFFCURVE",
"190 415 CURVE SMOOTH",
"190 352 OFFCURVE",
"161 318 OFFCURVE",
"93 302 CURVE",
"93 298 LINE"
);
}
);
width = 305;
}
);
unicode = 007B;
},
{
glyphname = bar;
layers = (
{
layerId = master01;
paths = (
{
closed = 1;
nodes = (
"115 -135 LINE",
"93 -135 LINE",
"93 690 LINE",
"115 690 LINE"
);
}
);
width = 208;
}
);
unicode = 007C;
},
{
glyphname = braceright;
layers = (
{
layerId = master01;
paths = (
{
closed = 1;
nodes = (
"144 318 OFFCURVE",
"115 352 OFFCURVE",
"115 415 CURVE SMOOTH",
"115 484 OFFCURVE",
"150 549 OFFCURVE",
"150 629 CURVE SMOOTH",
"150 695 OFFCURVE",
"126 730 OFFCURVE",
"79 730 CURVE SMOOTH",
"66 730 OFFCURVE",
"51 727 OFFCURVE",
"30 722 CURVE",
"27 733 LINE",
"51 740 OFFCURVE",
"75 744 OFFCURVE",
"97 744 CURVE SMOOTH",
"175 744 OFFCURVE",
"221 699 OFFCURVE",
"221 625 CURVE SMOOTH",
"221 559 OFFCURVE",
"185 478 OFFCURVE",
"185 395 CURVE SMOOTH",
"185 327 OFFCURVE",
"209 305 OFFCURVE",
"281 305 CURVE",
"281 295 LINE",
"209 295 OFFCURVE",
"185 270 OFFCURVE",
"185 196 CURVE SMOOTH",
"185 105 OFFCURVE",
"221 13 OFFCURVE",
"221 -54 CURVE SMOOTH",
"221 -130 OFFCURVE",
"175 -174 OFFCURVE",
"97 -174 CURVE SMOOTH",
"75 -174 OFFCURVE",
"51 -170 OFFCURVE",
"27 -163 CURVE",
"30 -152 LINE",
"51 -157 OFFCURVE",
"66 -160 OFFCURVE",
"79 -160 CURVE SMOOTH",
"126 -160 OFFCURVE",
"150 -126 OFFCURVE",
"150 -58 CURVE SMOOTH",
"150 25 OFFCURVE",
"115 101 OFFCURVE",
"115 175 CURVE SMOOTH",
"115 243 OFFCURVE",
"145 281 OFFCURVE",
"212 298 CURVE",
"212 302 LINE"
);
}
);
width = 305;
}
);
unicode = 007D;
},
{
glyphname = asciitilde;
layers = (
{
layerId = master01;
paths = (
{
closed = 1;
nodes = (
"76 279 OFFCURVE",
"104 313 OFFCURVE",
"146 313 CURVE SMOOTH",
"198 313 OFFCURVE",
"272 280 OFFCURVE",
"325 280 CURVE SMOOTH",
"349 280 OFFCURVE",
"362 293 OFFCURVE",
"367 316 CURVE",
"372 316 LINE",
"372 261 OFFCURVE",
"345 226 OFFCURVE",
"302 226 CURVE SMOOTH",
"247 226 OFFCURVE",
"177 262 OFFCURVE",
"122 262 CURVE SMOOTH",
"98 262 OFFCURVE",
"83 249 OFFCURVE",
"80 227 CURVE",
"76 227 LINE"
);
}
);
width = 444;
}
);
unicode = 007E;
},
{
glyphname = exclamdown;
layers = (
{
layerId = master01;
paths = (
{
closed = 1;
nodes = (
"96 186 OFFCURVE",
"91 85 OFFCURVE",
"84 1 CURVE SMOOTH",
"76 -98 OFFCURVE",
"67 -173 OFFCURVE",
"67 -200 CURVE SMOOTH",
"67 -229 OFFCURVE",
"80 -246 OFFCURVE",
"106 -246 CURVE SMOOTH",
"130 -246 OFFCURVE",
"145 -228 OFFCURVE",
"145 -197 CURVE SMOOTH",
"145 -171 OFFCURVE",
"138 -95 OFFCURVE",
"128 5 CURVE SMOOTH",
"119 88 OFFCURVE",
"117 187 OFFCURVE",
"111 296 CURVE",
"101 296 LINE"
);
},
{
closed = 1;
nodes = (
"154 455 OFFCURVE",
"135 476 OFFCURVE",
"106 476 CURVE SMOOTH",
"77 476 OFFCURVE",
"58 455 OFFCURVE",
"58 428 CURVE SMOOTH",
"58 401 OFFCURVE",
"77 380 OFFCURVE",
"106 380 CURVE SMOOTH",
"135 380 OFFCURVE",
"154 401 OFFCURVE",
"154 428 CURVE SMOOTH"
);
}
);
width = 212;
}
);
unicode = 00A1;
},
{
glyphname = cent;
layers = (
{
layerId = master01;
paths = (
{
closed = 1;
nodes = (
"324 434 OFFCURVE",
"383 396 OFFCURVE",
"383 347 CURVE SMOOTH",
"383 324 OFFCURVE",
"369 309 OFFCURVE",
"346 309 CURVE SMOOTH",
"282 309 OFFCURVE",
"330 424 OFFCURVE",
"246 424 CURVE SMOOTH",
"173 424 OFFCURVE",
"119 339 OFFCURVE",
"119 222 CURVE SMOOTH",
"119 106 OFFCURVE",
"171 39 OFFCURVE",
"261 39 CURVE SMOOTH",
"311 39 OFFCURVE",
"349 59 OFFCURVE",
"382 102 CURVE SMOOTH",
"391 114 LINE",
"395 112 LINE",
"391 101 LINE SMOOTH",
"365 31 OFFCURVE",
"308 -10 OFFCURVE",
"235 -10 CURVE SMOOTH",
"128 -10 OFFCURVE",
"52 80 OFFCURVE",
"52 207 CURVE SMOOTH",
"52 339 OFFCURVE",
"134 434 OFFCURVE",
"250 434 CURVE SMOOTH {name = hr00;}"
);
},
{
closed = 1;
nodes = (
"251 -135 LINE",
"229 -135 LINE",
"229 570 LINE",
"251 570 LINE"
);
}
);
width = 437;
}
);
unicode = 00A2;
},
{
glyphname = sterling;
layers = (
{
layerId = master01;
paths = (
{
closed = 1;
nodes = (
"394 693 OFFCURVE",
"382 658 OFFCURVE",
"329 392 CURVE SMOOTH",
"290 199 OFFCURVE",
"288 193 OFFCURVE",
"242 95 CURVE",
"299 68 OFFCURVE",
"357 53 OFFCURVE",
"408 53 CURVE SMOOTH",
"486 53 OFFCURVE",
"536 87 OFFCURVE",
"548 148 CURVE",
"553 148 LINE",
"553 54 OFFCURVE",
"499 -8 OFFCURVE",
"415 -8 CURVE SMOOTH",
"354 -8 OFFCURVE",
"287 24 OFFCURVE",
"233 80 CURVE",
"188 14 OFFCURVE",
"155 -9 OFFCURVE",
"109 -9 CURVE SMOOTH",
"62 -9 OFFCURVE",
"32 16 OFFCURVE",
"32 55 CURVE SMOOTH",
"32 101 OFFCURVE",
"73 134 OFFCURVE",
"130 134 CURVE SMOOTH",
"146 134 OFFCURVE",
"164 132 OFFCURVE",
"188 126 CURVE",
"206 202 OFFCURVE",
"207 209 OFFCURVE",
"252 440 CURVE SMOOTH",
"286 616 OFFCURVE",
"350 706 OFFCURVE",
"441 706 CURVE SMOOTH",
"506 706 OFFCURVE",
"568 661 OFFCURVE",
"568 615 CURVE SMOOTH",
"568 592 OFFCURVE",
"553 577 OFFCURVE",
"532 577 CURVE SMOOTH",
"473 577 OFFCURVE",
"503 693 OFFCURVE",
"435 693 CURVE SMOOTH"
);
},
{
closed = 1;
nodes = (
"167 119 OFFCURVE",
"148 122 OFFCURVE",
"132 122 CURVE SMOOTH",
"82 122 OFFCURVE",
"46 94 OFFCURVE",
"46 55 CURVE SMOOTH",
"46 23 OFFCURVE",
"68 3 OFFCURVE",
"103 3 CURVE SMOOTH",
"143 3 OFFCURVE",
"165 32 OFFCURVE",
"186 113 CURVE"
);
},
{
closed = 1;
nodes = (
"146 354 LINE",
"507 354 LINE",
"502 332 LINE",
"141 332 LINE"
);
}
);
width = 627;
}
);
unicode = 00A3;
},
{
glyphname = currency;
layers = (
{
layerId = master01;
paths = (
{
closed = 1;
nodes = (
"96 238 OFFCURVE",
"185 149 OFFCURVE",
"294 149 CURVE SMOOTH",
"403 149 OFFCURVE",
"492 238 OFFCURVE",
"492 347 CURVE SMOOTH",
"492 456 OFFCURVE",
"403 545 OFFCURVE",
"294 545 CURVE SMOOTH",
"185 545 OFFCURVE",
"96 456 OFFCURVE",
"96 347 CURVE SMOOTH"
);
},
{
closed = 1;
nodes = (
"115 445 OFFCURVE",
"195 525 OFFCURVE",
"294 525 CURVE SMOOTH",
"393 525 OFFCURVE",
"473 445 OFFCURVE",
"473 347 CURVE SMOOTH",
"473 248 OFFCURVE",
"393 168 OFFCURVE",
"294 168 CURVE SMOOTH",
"195 168 OFFCURVE",
"115 248 OFFCURVE",
"115 347 CURVE SMOOTH"
);
},
{
closed = 1;
nodes = (
"498 566 LINE",
"419 487 LINE",
"435 473 LINE",
"513 551 LINE"
);
},
{
closed = 1;
nodes = (
"91 129 LINE",
"165 203 LINE",
"153 221 LINE",
"76 144 LINE"
);
},
{
closed = 1;
nodes = (
"75 551 LINE",
"154 472 LINE",
"168 488 LINE",
"90 566 LINE"
);
},
{
closed = 1;
nodes = (
"512 144 LINE",
"438 218 LINE",
"420 206 LINE",
"497 129 LINE"
);
}
);
width = 588;
}
);
unicode = 00A4;
},
{
glyphname = yen;
layers = (
{
layerId = master01;
paths = (
{
closed = 1;
nodes = (
"477 690 LINE",
"690 690 LINE",
"690 682 LINE",
"634 677 LINE SMOOTH",
"600 674 OFFCURVE",
"594 666 OFFCURVE",
"580 637 CURVE SMOOTH",
"377 213 LINE",
"359 213 LINE",
"112 674 LINE",
"30 682 LINE",
"30 690 LINE",
"279 690 LINE",
"279 682 LINE",
"192 674 LINE",
"395 295 LINE",
"400 295 LINE",
"564 637 LINE SMOOTH",
"568 646 OFFCURVE",
"568 651 OFFCURVE",
"568 656 CURVE SMOOTH",
"568 669 OFFCURVE",
"560 675 OFFCURVE",
"538 677 CURVE SMOOTH",
"477 682 LINE"
);
},
{
closed = 1;
nodes = (
"406 16 LINE",
"493 8 LINE",
"493 0 LINE",
"242 0 LINE",
"242 8 LINE",
"329 16 LINE",
"329 280 LINE",
"406 280 LINE"
);
},
{
closed = 1;
nodes = (
"188 295 LINE",
"549 295 LINE",
"544 273 LINE",
"183 273 LINE"
);
},
{
closed = 1;
nodes = (
"188 178 LINE",
"549 178 LINE",
"544 156 LINE",
"183 156 LINE"
);
}
);
width = 721;
}
);
unicode = 00A5;
},
{
glyphname = brokenbar;
layers = (
{
layerId = master01;
paths = (
{
closed = 1;
nodes = (
"116 329 LINE",
"94 329 LINE",
"94 690 LINE",
"116 690 LINE"
);
},
{
closed = 1;
nodes = (
"116 -135 LINE",
"94 -135 LINE",
"94 226 LINE",
"116 226 LINE"
);
}
);
width = 210;
}
);
unicode = 00A6;
},
{
glyphname = section;
layers = (
{
layerId = master01;
paths = (
{
closed = 1;
nodes = (
"337 734 OFFCURVE",
"420 687 OFFCURVE",
"420 639 CURVE SMOOTH",
"420 619 OFFCURVE",
"404 604 OFFCURVE",
"385 604 CURVE SMOOTH",
"330 604 OFFCURVE",
"340 722 OFFCURVE",
"241 722 CURVE SMOOTH",
"183 722 OFFCURVE",
"146 681 OFFCURVE",
"146 621 CURVE SMOOTH",
"146 462 OFFCURVE",
"440 487 OFFCURVE",
"440 302 CURVE SMOOTH",
"440 202 OFFCURVE",
"351 122 OFFCURVE",
"242 122 CURVE",
"245 126 LINE",
"323 126 OFFCURVE",
"377 179 OFFCURVE",
"377 254 CURVE SMOOTH",
"377 426 OFFCURVE",
"80 386 OFFCURVE",
"80 576 CURVE SMOOTH",
"80 668 OFFCURVE",
"154 734 OFFCURVE",
"252 734 CURVE SMOOTH"
);
},
{
closed = 1;
nodes = (
"142 -153 OFFCURVE",
"58 -106 OFFCURVE",
"58 -58 CURVE SMOOTH",
"58 -38 OFFCURVE",
"74 -23 OFFCURVE",
"93 -23 CURVE SMOOTH",
"149 -23 OFFCURVE",
"135 -141 OFFCURVE",
"240 -141 CURVE SMOOTH",
"306 -141 OFFCURVE",
"353 -93 OFFCURVE",
"353 -23 CURVE SMOOTH",
"353 150 OFFCURVE",
"56 107 OFFCURVE",
"56 290 CURVE SMOOTH",
"56 383 OFFCURVE",
"137 449 OFFCURVE",
"247 449 CURVE",
"235 437 LINE",
"168 437 OFFCURVE",
"121 395 OFFCURVE",
"121 334 CURVE SMOOTH",
"121 184 OFFCURVE",
"416 207 OFFCURVE",
"416 24 CURVE SMOOTH",
"416 -76 OFFCURVE",
"334 -153 OFFCURVE",
"230 -153 CURVE SMOOTH"
);
}
);
width = 491;
}
);
unicode = 00A7;
},
{
glyphname = dieresis;
layers = (
{
anchors = (
{
name = _top;
position = "{171, 530}";
}
);
layerId = master01;
paths = (
{
closed = 1;
nodes = (
"45 549 OFFCURVE",
"62 530 OFFCURVE",
"88 530 CURVE SMOOTH",
"114 530 OFFCURVE",
"131 549 OFFCURVE",
"131 573 CURVE SMOOTH",
"131 597 OFFCURVE",
"114 616 OFFCURVE",
"88 616 CURVE SMOOTH",
"62 616 OFFCURVE",
"45 597 OFFCURVE",
"45 573 CURVE SMOOTH"
);
},
{
closed = 1;
nodes = (
"212 549 OFFCURVE",
"229 530 OFFCURVE",
"255 530 CURVE SMOOTH",
"281 530 OFFCURVE",
"298 549 OFFCURVE",
"298 573 CURVE SMOOTH",
"298 597 OFFCURVE",
"281 616 OFFCURVE",
"255 616 CURVE SMOOTH",
"229 616 OFFCURVE",
"212 597 OFFCURVE",
"212 573 CURVE SMOOTH"
);
}
);
width = 343;
}
);
unicode = 00A8;
},
{
glyphname = copyright;
layers = (
{
layerId = master01;
paths = (
{
closed = 1;
nodes = (
"534 187 OFFCURVE",
"548 230 OFFCURVE",
"557 268 CURVE",
"568 267 LINE",
"568 111 LINE",
"557 111 LINE",
"534 148 LINE",
"494 119 OFFCURVE",
"444 100 OFFCURVE",
"399 100 CURVE SMOOTH",
"277 100 OFFCURVE",
"181 207 OFFCURVE",
"181 345 CURVE SMOOTH",
"181 482 OFFCURVE",
"277 590 OFFCURVE",
"397 590 CURVE SMOOTH",
"438 590 OFFCURVE",
"479 578 OFFCURVE",
"532 549 CURVE",
"548 582 LINE",
"559 582 LINE",
"566 429 LINE",
"554 426 LINE",
"548 460 OFFCURVE",
"538 490 OFFCURVE",
"524 513 CURVE SMOOTH",
"497 555 OFFCURVE",
"452 578 OFFCURVE",
"399 578 CURVE SMOOTH",
"306 578 OFFCURVE",
"254 493 OFFCURVE",
"254 345 CURVE SMOOTH",
"254 198 OFFCURVE",
"307 113 OFFCURVE",
"399 113 CURVE SMOOTH",
"440 113 OFFCURVE",
"481 131 OFFCURVE",
"507 157 CURVE SMOOTH"
);
},
{
closed = 1;
nodes = (
"53 151 OFFCURVE",
"211 -10 OFFCURVE",
"404 -10 CURVE SMOOTH",
"597 -10 OFFCURVE",
"755 151 OFFCURVE",
"755 344 CURVE SMOOTH",
"755 537 OFFCURVE",
"597 700 OFFCURVE",
"404 700 CURVE SMOOTH",
"211 700 OFFCURVE",
"53 537 OFFCURVE",
"53 344 CURVE SMOOTH"
);
},
{
closed = 1;
nodes = (
"69 529 OFFCURVE",
"217 684 OFFCURVE",
"404 684 CURVE SMOOTH",
"588 684 OFFCURVE",
"739 529 OFFCURVE",
"739 344 CURVE SMOOTH",
"739 157 OFFCURVE",
"588 6 OFFCURVE",
"404 6 CURVE SMOOTH",
"217 6 OFFCURVE",
"69 157 OFFCURVE",
"69 344 CURVE SMOOTH"
);
}
);
width = 808;
}
);
unicode = 00A9;
},
{
glyphname = ordfeminine;
layers = (
{
layerId = master01;
paths = (
{
closed = 1;
nodes = (
"145 530 OFFCURVE",
"173 548 OFFCURVE",
"192 573 CURVE",
"195 572 LINE",
"197 549 OFFCURVE",
"216 533 OFFCURVE",
"241 533 CURVE SMOOTH {name = hr01;}",
"264 533 OFFCURVE",
"283 546 OFFCURVE",
"294 567 CURVE",
"289 572 LINE",
"285 566 OFFCURVE",
"281 561 OFFCURVE",
"272 561 CURVE SMOOTH",
"256 561 OFFCURVE",
"251 575 OFFCURVE",
"251 601 CURVE SMOOTH",
"251 732 LINE SMOOTH",
"251 782 OFFCURVE",
"251 792 OFFCURVE",
"246 804 CURVE SMOOTH",
"239 819 OFFCURVE",
"215 834 OFFCURVE",
"186 834 CURVE SMOOTH",
"162 834 OFFCURVE",
"133 824 OFFCURVE",
"118 816 CURVE SMOOTH",
"86 799 OFFCURVE",
"61 770 OFFCURVE",
"61 747 CURVE SMOOTH",
"61 734 OFFCURVE",
"70 723 OFFCURVE",
"84 723 CURVE SMOOTH",
"100 723 OFFCURVE",
"110 738 OFFCURVE",
"110 759 CURVE SMOOTH",
"110 768 OFFCURVE",
"108 772 OFFCURVE",
"108 779 CURVE SMOOTH",
"108 802 OFFCURVE",
"130 816 OFFCURVE",
"155 816 CURVE SMOOTH",
"182 816 OFFCURVE",
"191 800 OFFCURVE",
"191 749 CURVE SMOOTH",
"191 689 LINE",
"87 667 OFFCURVE",
"48 642 OFFCURVE",
"48 597 CURVE SMOOTH",
"48 555 OFFCURVE",
"81 530 OFFCURVE",
"116 530 CURVE SMOOTH"
);
},
{
closed = 1;
nodes = (
"123 560 OFFCURVE",
"110 581 OFFCURVE",
"110 610 CURVE SMOOTH",
"110 645 OFFCURVE",
"129 661 OFFCURVE",
"191 679 CURVE",
"191 589 LINE",
"182 568 OFFCURVE",
"164 560 OFFCURVE",
"148 560 CURVE SMOOTH"
);
}
);
width = 334;
}
);
unicode = 00AA;
},
{
glyphname = guillemotleft;
layers = (
{
layerId = master01;
paths = (
{
closed = 1;
nodes = (
"49 207 LINE",
"49 212 LINE",
"196 390 LINE",
"199 388 LINE",
"112 210 LINE",
"202 30 LINE",
"198 27 LINE"
);
},
{
closed = 1;
nodes = (
"167 207 LINE",
"167 212 LINE",
"314 390 LINE",
"317 388 LINE",
"230 210 LINE",
"320 30 LINE",
"316 27 LINE"
);
}
);
width = 373;
}
);
leftKerningGroup = guilsinglleft;
rightKerningGroup = guilsinglleft;
unicode = 00AB;
},
{
glyphname = logicalnot;
layers = (
{
layerId = master01;
paths = (
{
closed = 1;
nodes = (
"387 370 LINE",
"387 348 LINE",
"77 348 LINE",
"77 370 LINE"
);
},
{
closed = 1;
nodes = (
"387 217 LINE",
"365 217 LINE",
"365 352 LINE",
"387 352 LINE"
);
}
);
width = 459;
}
);
unicode = 00AC;
},
{
glyphname = uni00AD;
layers = (
{
layerId = master01;
paths = (
{
closed = 1;
nodes = (
"292 238 LINE",
"285 216 LINE",
"65 216 LINE",
"72 238 LINE"
);
}
);
width = 356;
}
);
leftKerningGroup = hyphen;
rightKerningGroup = hyphen;
unicode = 00AD;
},
{
glyphname = registered;
layers = (
{
layerId = master01;
paths = (
{
closed = 1;
nodes = (
"53 151 OFFCURVE",
"211 -10 OFFCURVE",
"404 -10 CURVE SMOOTH",
"597 -10 OFFCURVE",
"755 151 OFFCURVE",
"755 344 CURVE SMOOTH",
"755 537 OFFCURVE",
"597 700 OFFCURVE",
"404 700 CURVE SMOOTH",
"211 700 OFFCURVE",
"53 537 OFFCURVE",
"53 344 CURVE SMOOTH"
);
},
{
closed = 1;
nodes = (
"69 529 OFFCURVE",
"217 684 OFFCURVE",
"404 684 CURVE SMOOTH",
"588 684 OFFCURVE",
"739 529 OFFCURVE",
"739 344 CURVE SMOOTH",
"739 157 OFFCURVE",
"588 6 OFFCURVE",
"404 6 CURVE SMOOTH",
"217 6 OFFCURVE",
"69 157 OFFCURVE",
"69 344 CURVE SMOOTH"
);
},
{
closed = 1;
nodes = (
"443 336 LINE",
"569 138 LINE SMOOTH",
"581 119 OFFCURVE",
"590 115 OFFCURVE",
"612 115 CURVE SMOOTH",
"622 115 LINE",
"622 107 LINE",
"542 107 LINE SMOOTH",
"520 107 OFFCURVE",
"511 112 OFFCURVE",
"500 131 CURVE SMOOTH",
"394 301 LINE SMOOTH",
"381 322 OFFCURVE",
"377 325 OFFCURVE",
"354 325 CURVE SMOOTH",
"298 325 LINE",
"298 336 LINE"
);
},
{
closed = 1;
nodes = (
"272 571 LINE",
"222 576 LINE",
"222 584 LINE",
"332 584 LINE",
"332 120 LINE",
"392 115 LINE",
"392 107 LINE",
"222 107 LINE",
"222 115 LINE",
"272 120 LINE"
);
},
{
closed = 1;
nodes = (
"397 584 LINE SMOOTH",
"506 584 OFFCURVE",
"565 539 OFFCURVE",
"565 456 CURVE SMOOTH",
"565 373 OFFCURVE",
"505 327 OFFCURVE",
"397 327 CURVE SMOOTH",
"309 327 LINE",
"309 337 LINE",
"395 337 LINE SMOOTH",
"469 337 OFFCURVE",
"504 374 OFFCURVE",
"504 455 CURVE SMOOTH",
"504 536 OFFCURVE",
"468 574 OFFCURVE",
"395 574 CURVE SMOOTH",
"309 574 LINE",
"309 584 LINE"
);
}
);
width = 808;
}
);
unicode = 00AE;
},
{
glyphname = macron;
layers = (
{
anchors = (
{
name = _top;
position = "{145, 530}";
}
);
layerId = master01;
paths = (
{
closed = 1;
nodes = (
"245 575 LINE",
"245 553 LINE",
"45 553 LINE",
"45 575 LINE"
);
}
);
width = 290;
}
);
unicode = 00AF;
},
{
glyphname = degree;
layers = (
{
layerId = master01;
paths = (
{
closed = 1;
nodes = (
"45 782 OFFCURVE",
"98 837 OFFCURVE",
"171 837 CURVE SMOOTH",
"244 837 OFFCURVE",
"295 784 OFFCURVE",
"295 709 CURVE SMOOTH",
"295 635 OFFCURVE",
"245 581 OFFCURVE",
"170 581 CURVE SMOOTH",
"95 581 OFFCURVE",
"45 636 OFFCURVE",
"45 708 CURVE SMOOTH"
);
},
{
closed = 1;
nodes = (
"63 647 OFFCURVE",
"108 599 OFFCURVE",
"170 599 CURVE SMOOTH",
"231 599 OFFCURVE",
"276 647 OFFCURVE",
"276 709 CURVE SMOOTH",
"276 771 OFFCURVE",
"231 818 OFFCURVE",
"170 818 CURVE SMOOTH",
"108 818 OFFCURVE",
"63 771 OFFCURVE",
"63 709 CURVE SMOOTH"
);
}
);
width = 341;
}
);
unicode = 00B0;
},
{
glyphname = twosuperior;
layers = (
{
layerId = master01;
paths = (
{
closed = 1;
nodes = (
"233 633 LINE",
"226 634 LINE",
"219 606 LINE SMOOTH",
"215 590 OFFCURVE",
"209 586 OFFCURVE",
"190 586 CURVE SMOOTH",
"86 586 LINE",
"125 625 LINE SMOOTH",
"209 709 OFFCURVE",
"225 732 OFFCURVE",
"225 767 CURVE SMOOTH",
"225 818 OFFCURVE",
"183 854 OFFCURVE",
"124 854 CURVE SMOOTH",
"85 854 OFFCURVE",
"49 828 OFFCURVE",
"33 789 CURVE",
"41 785 LINE",
"55 814 OFFCURVE",
"78 829 OFFCURVE",
"105 829 CURVE SMOOTH",
"142 829 OFFCURVE",
"163 803 OFFCURVE",
"163 757 CURVE SMOOTH",
"163 702 OFFCURVE",
"133 647 OFFCURVE",
"71 586 CURVE SMOOTH",
"24 540 LINE",
"25 536 LINE",
"221 536 LINE"
);
}
);
width = 267;
}
);
unicode = 00B2;
},
{
glyphname = threesuperior;
layers = (
{
layerId = master01;
paths = (
{
closed = 1;
nodes = (
"91 693 OFFCURVE",
"102 695 OFFCURVE",
"110 695 CURVE SMOOTH",
"144 695 OFFCURVE",
"168 662 OFFCURVE",
"168 613 CURVE SMOOTH",
"168 566 OFFCURVE",
"147 540 OFFCURVE",
"108 540 CURVE SMOOTH",
"91 540 OFFCURVE",
"86 546 OFFCURVE",
"77 572 CURVE SMOOTH",
"64 602 OFFCURVE",
"60 608 OFFCURVE",
"48 608 CURVE SMOOTH",
"36 608 OFFCURVE",
"28 600 OFFCURVE",
"28 586 CURVE SMOOTH",
"28 555 OFFCURVE",
"65 530 OFFCURVE",
"111 530 CURVE SMOOTH",
"174 530 OFFCURVE",
"224 575 OFFCURVE",
"224 630 CURVE SMOOTH",
"224 677 OFFCURVE",
"188 714 OFFCURVE",
"140 715 CURVE",
"140 719 LINE",
"178 733 OFFCURVE",
"203 765 OFFCURVE",
"203 797 CURVE SMOOTH",
"203 831 OFFCURVE",
"177 855 OFFCURVE",
"142 855 CURVE SMOOTH",
"93 855 OFFCURVE",
"58 831 OFFCURVE",
"40 785 CURVE",
"48 781 LINE",
"62 813 OFFCURVE",
"82 830 OFFCURVE",
"107 830 CURVE SMOOTH",
"133 830 OFFCURVE",
"148 812 OFFCURVE",
"148 783 CURVE SMOOTH",
"148 746 OFFCURVE",
"125 717 OFFCURVE",
"80 699 CURVE",
"84 691 LINE"
);
}
);
width = 256;
}
);
unicode = 00B3;
},
{
glyphname = acute;
layers = (
{
anchors = (
{
name = _top;
position = "{97, 530}";
}
);
layerId = master01;
paths = (
{
closed = 1;
nodes = (
"95 685 OFFCURVE",
"106 691 OFFCURVE",
"121 691 CURVE SMOOTH",
"139 691 OFFCURVE",
"149 677 OFFCURVE",
"149 660 CURVE SMOOTH",
"149 647 OFFCURVE",
"139 638 OFFCURVE",
"113 605 CURVE SMOOTH",
"48 523 LINE",
"45 524 LINE",
"90 670 LINE"
);
}
);
width = 194;
}
);
unicode = 00B4;
},
{
glyphname = mu;
layers = (
{
layerId = master01;
paths = (
{
closed = 1;
nodes = (
"328 70 LINE",
"330 64 LINE",
"333 63 LINE",
"333 -5 LINE",
"339 -5 LINE",
"448 45 LINE",
"448 50 LINE",
"393 62 LINE",
"393 424 LINE",
"268 424 LINE",
"268 416 LINE",
"328 408 LINE {name = hr00;}"
);
},
{
closed = 1;
nodes = (
"133 12 OFFCURVE",
"162 -10 OFFCURVE",
"204 -10 CURVE SMOOTH",
"249 -10 OFFCURVE",
"291 15 OFFCURVE",
"330 64 CURVE",
"330 80 LINE",
"305 46 OFFCURVE",
"272 28 OFFCURVE",
"238 28 CURVE SMOOTH",
"209 28 OFFCURVE",
"188 40 OFFCURVE",
"177 63 CURVE SMOOTH",
"169 79 OFFCURVE",
"167 98 OFFCURVE",
"167 153 CURVE SMOOTH",
"167 424 LINE",
"42 424 LINE",
"42 416 LINE",
"102 408 LINE",
"102 153 LINE SMOOTH",
"102 37 OFFCURVE",
"87 -115 OFFCURVE",
"87 -162 CURVE SMOOTH",
"87 -200 OFFCURVE",
"95 -216 OFFCURVE",
"115 -216 CURVE SMOOTH",
"134 -216 OFFCURVE",
"145 -202 OFFCURVE",
"145 -180 CURVE SMOOTH",
"145 -146 OFFCURVE",
"113 -100 OFFCURVE",
"113 49 CURVE",
"118 51 LINE"
);
}
);
width = 491;
}
);
unicode = 00B5;
},
{
glyphname = paragraph;
layers = (
{
layerId = master01;
paths = (
{
closed = 1;
nodes = (
"295 676 LINE",
"335 676 LINE",
"335 -108 LINE",
"357 -108 LINE",
"357 674 LINE",
"433 681 LINE",
"433 690 LINE",
"245 690 LINE SMOOTH",
"114 690 OFFCURVE",
"34 613 OFFCURVE",
"34 493 CURVE SMOOTH",
"34 388 OFFCURVE",
"107 299 OFFCURVE",
"222 299 CURVE SMOOTH",
"273 299 LINE",
"273 -108 LINE",
"295 -108 LINE"
);
}
);
width = 473;
}
);
unicode = 00B6;
},
{
glyphname = periodcentered;
layers = (
{
layerId = master01;
paths = (
{
closed = 1;
nodes = (
"65 209 OFFCURVE",
"86 186 OFFCURVE",
"117 186 CURVE SMOOTH",
"148 186 OFFCURVE",
"168 209 OFFCURVE",
"168 238 CURVE SMOOTH",
"168 267 OFFCURVE",
"148 289 OFFCURVE",
"117 289 CURVE SMOOTH",
"86 289 OFFCURVE",
"65 267 OFFCURVE",
"65 238 CURVE SMOOTH"
);
}
);
width = 233;
}
);
unicode = 00B7;
},
{
glyphname = cedilla;
layers = (
{
anchors = (
{
name = _bottom;
position = "{135, 0}";
}
);
layerId = master01;
paths = (
{
closed = 1;
nodes = (
"60 -208 OFFCURVE",
"79 -212 OFFCURVE",
"97 -212 CURVE SMOOTH",
"139 -212 OFFCURVE",
"167 -194 OFFCURVE",
"167 -166 CURVE SMOOTH",
"167 -140 OFFCURVE",
"145 -124 OFFCURVE",
"110 -124 CURVE SMOOTH",
"96 -124 OFFCURVE",
"82 -126 OFFCURVE",
"72 -130 CURVE",
"69 -127 LINE",
"124 1 LINE",
"136 1 LINE",
"104 -74 LINE",
"113 -72 OFFCURVE",
"118 -72 OFFCURVE",
"131 -72 CURVE SMOOTH",
"187 -72 OFFCURVE",
"226 -102 OFFCURVE",
"226 -144 CURVE SMOOTH",
"226 -191 OFFCURVE",
"180 -226 OFFCURVE",
"118 -226 CURVE SMOOTH",
"87 -226 OFFCURVE",
"60 -218 OFFCURVE",
"45 -205 CURVE",
"47 -202 LINE"
);
}
);
width = 271;
}
);
unicode = 00B8;
},
{
glyphname = onesuperior;
layers = (
{
layerId = master01;
paths = (
{
closed = 1;
nodes = (
"29 806 LINE",
"29 811 LINE",
"77 816 OFFCURVE",
"99 829 OFFCURVE",
"122 858 CURVE",
"127 857 LINE",
"127 548 LINE",
"168 544 LINE",
"168 536 LINE",
"29 536 LINE",
"29 544 LINE",
"75 548 LINE",
"75 806 LINE"
);
}
);
width = 191;
}
);
unicode = 00B9;
},
{
glyphname = ordmasculine;
layers = (
{
layerId = master01;
paths = (
{
closed = 1;
nodes = (
"101 834 OFFCURVE",
"45 772 OFFCURVE",
"45 682 CURVE SMOOTH",
"45 591 OFFCURVE",
"101 529 OFFCURVE",
"181 529 CURVE SMOOTH",
"261 529 OFFCURVE",
"317 591 OFFCURVE",
"317 682 CURVE SMOOTH",
"317 772 OFFCURVE",
"261 834 OFFCURVE",
"181 834 CURVE SMOOTH {name = hr00;}"
);
},
{
closed = 1;
nodes = (
"106 772 OFFCURVE",
"133 824 OFFCURVE",
"181 824 CURVE SMOOTH",
"228 824 OFFCURVE",
"256 772 OFFCURVE",
"256 682 CURVE SMOOTH",
"256 592 OFFCURVE",
"228 539 OFFCURVE",
"181 539 CURVE SMOOTH",
"133 539 OFFCURVE",
"106 592 OFFCURVE",
"106 682 CURVE SMOOTH"
);
}
);
width = 362;
}
);
unicode = 00BA;
},
{
glyphname = guillemotright;
layers = (
{
layerId = master01;
paths = (
{
closed = 1;
nodes = (
"261 210 LINE",
"174 388 LINE",
"177 390 LINE",
"324 212 LINE",
"324 207 LINE",
"175 27 LINE",
"171 30 LINE"
);
},
{
closed = 1;
nodes = (
"143 210 LINE",
"56 388 LINE",
"59 390 LINE",
"206 212 LINE",
"206 207 LINE",
"57 27 LINE",
"53 30 LINE"
);
}
);
width = 373;
}
);
leftKerningGroup = guilsinglright;
rightKerningGroup = guilsinglright;
unicode = 00BB;
},
{
glyphname = questiondown;
layers = (
{
layerId = master01;
paths = (
{
closed = 1;
nodes = (
"259 64 LINE",
"232 64 LINE SMOOTH",
"110 64 OFFCURVE",
"56 39 OFFCURVE",
"56 -19 CURVE SMOOTH",
"56 -137 OFFCURVE",
"285 -130 OFFCURVE",
"285 -214 CURVE SMOOTH",
"285 -235 OFFCURVE",
"270 -246 OFFCURVE",
"241 -246 CURVE SMOOTH",
"144 -246 OFFCURVE",
"42 -125 OFFCURVE",
"42 -9 CURVE SMOOTH",
"42 82 OFFCURVE",
"104 139 OFFCURVE",
"207 143 CURVE SMOOTH",
"233 144 LINE",
"241 296 LINE",
"251 296 LINE"
);
},
{
closed = 1;
nodes = (
"298 456 OFFCURVE",
"278 476 OFFCURVE",
"250 476 CURVE SMOOTH",
"222 476 OFFCURVE",
"202 456 OFFCURVE",
"202 428 CURVE SMOOTH",
"202 400 OFFCURVE",
"222 380 OFFCURVE",
"250 380 CURVE SMOOTH",
"278 380 OFFCURVE",
"298 400 OFFCURVE",
"298 428 CURVE"
);
}
);
width = 352;
}
);
unicode = 00BF;
},
{
glyphname = AE;
layers = (
{
layerId = master01;
paths = (
{
closed = 1;
nodes = (
"172 0 LINE",
"-40 0 LINE",
"-38 8 LINE",
"19 13 LINE SMOOTH",
"53 16 OFFCURVE",
"64 23 OFFCURVE",
"82 53 CURVE SMOOTH",
"451 682 LINE",
"469 682 LINE",
"419 595 LINE",
"415 595 LINE",
"98 53 LINE SMOOTH",
"91 42 OFFCURVE",
"89 35 OFFCURVE",
"89 29 CURVE SMOOTH",
"89 18 OFFCURVE",
"97 15 OFFCURVE",
"114 13 CURVE SMOOTH",
"174 8 LINE"
);
},
{
closed = 1;
nodes = (
"491 290 LINE",
"488 274 LINE",
"221 274 LINE",
"224 290 LINE"
);
},
{
closed = 1;
nodes = (
"496 12 LINE",
"660 12 LINE SMOOTH",
"692 12 OFFCURVE",
"703 19 OFFCURVE",
"715 49 CURVE SMOOTH",
"781 211 LINE",
"792 210 LINE",
"767 0 LINE",
"337 0 LINE",
"337 8 LINE",
"419 16 LINE",
"419 674 LINE",
"337 682 LINE",
"337 690 LINE",
"768 690 LINE",
"782 502 LINE",
"772 501 LINE",
"716 641 LINE SMOOTH",
"704 671 OFFCURVE",
"694 678 OFFCURVE",
"662 678 CURVE SMOOTH",
"496 678 LINE"
);
},
{
closed = 1;
nodes = (
"617 371 OFFCURVE",
"627 379 OFFCURVE",
"633 410 CURVE SMOOTH",
"650 491 LINE",
"662 491 LINE",
"662 235 LINE",
"650 235 LINE",
"633 316 LINE SMOOTH",
"627 347 OFFCURVE",
"617 355 OFFCURVE",
"585 355 CURVE SMOOTH",
"488 355 LINE",
"488 371 LINE",
"585 371 LINE SMOOTH"
);
}
);
width = 851;
}
);
leftKerningGroup = AE;
rightKerningGroup = E;
unicode = 00C6;
},
{
glyphname = Eth;
layers = (
{
components = (
{
name = D;
transform = "{1, 0, 0, 1, 11, 0}";
}
);
layerId = master01;
paths = (
{
closed = 1;
nodes = (
"335 363 LINE",
"335 341 LINE",
"51 341 LINE",
"51 363 LINE"
);
}
);
width = 715;
}
);
leftKerningGroup = I;
rightKerningGroup = D;
unicode = 00D0;
},
{
glyphname = multiply;
layers = (
{
layerId = master01;
paths = (
{
closed = 1;
nodes = (
"381 212 LINE",
"366 198 LINE",
"86 478 LINE",
"101 492 LINE"
);
},
{
closed = 1;
nodes = (
"100 198 LINE",
"85 212 LINE",
"365 492 LINE",
"380 478 LINE"
);
}
);
width = 466;
}
);
unicode = 00D7;
},
{
glyphname = Oslash;
layers = (
{
layerId = master01;
paths = (
{
closed = 1;
nodes = (
"164 -75 LINE",
"141 -75 LINE",
"561 750 LINE",
"584 750 LINE"
);
},
{
closed = 1;
nodes = (
"544 706 OFFCURVE",
"682 548 OFFCURVE",
"682 345 CURVE SMOOTH",
"682 142 OFFCURVE",
"544 -16 OFFCURVE",
"367 -16 CURVE SMOOTH",
"190 -16 OFFCURVE",
"52 142 OFFCURVE",
"52 345 CURVE SMOOTH",
"52 548 OFFCURVE",
"190 706 OFFCURVE",
"367 706 CURVE SMOOTH"
);
},
{
closed = 1;
nodes = (
"148 123 OFFCURVE",
"227 -3 OFFCURVE",
"367 -3 CURVE SMOOTH",
"507 -3 OFFCURVE",
"586 123 OFFCURVE",
"586 345 CURVE SMOOTH",
"586 568 OFFCURVE",
"507 694 OFFCURVE",
"367 694 CURVE SMOOTH",
"227 694 OFFCURVE",
"148 568 OFFCURVE",
"148 345 CURVE SMOOTH"
);
}
);
width = 734;
}
);
leftKerningGroup = O;
rightKerningGroup = O;
unicode = 00D8;
},
{
glyphname = Thorn;
layers = (
{
layerId = master01;
paths = (
{
closed = 1;
nodes = (
"293 549 LINE SMOOTH",
"450 549 OFFCURVE",
"535 479 OFFCURVE",
"535 358 CURVE SMOOTH",
"535 228 OFFCURVE",
"450 159 OFFCURVE",
"293 159 CURVE SMOOTH",
"165 159 LINE",
"165 171 LINE",
"290 171 LINE SMOOTH",
"398 171 OFFCURVE",
"445 230 OFFCURVE",
"445 363 CURVE SMOOTH",
"445 461 OFFCURVE",
"416 537 OFFCURVE",
"290 537 CURVE SMOOTH",
"165 537 LINE",
"165 549 LINE"
);
},
{
closed = 1;
nodes = (
"122 674 LINE",
"40 682 LINE",
"40 690 LINE",
"297 690 LINE",
"297 682 LINE",
"199 674 LINE",
"199 16 LINE",
"297 8 LINE",
"297 0 LINE",
"40 0 LINE",
"40 8 LINE",
"122 16 LINE"
);
}
);
width = 571;
}
);
leftKerningGroup = I;
unicode = 00DE;
},
{
glyphname = germandbls;
layers = (
{
layerId = master01;
paths = (
{
closed = 1;
nodes = (
"182 733 OFFCURVE",
"130 705 OFFCURVE",
"101 656 CURVE SMOOTH",
"81 621 OFFCURVE",
"77 590 OFFCURVE",
"77 455 CURVE SMOOTH",
"77 16 LINE",
"16 8 LINE",
"16 0 LINE",
"142 0 LINE",
"142 560 LINE SMOOTH",
"142 668 OFFCURVE",
"172 721 OFFCURVE",
"234 721 CURVE SMOOTH",
"286 721 OFFCURVE",
"317 684 OFFCURVE",
"317 620 CURVE SMOOTH",
"317 502 OFFCURVE",
"221 502 OFFCURVE",
"221 392 CURVE SMOOTH",
"221 235 OFFCURVE",
"417 246 OFFCURVE",
"417 96 CURVE SMOOTH",
"417 37 OFFCURVE",
"383 1 OFFCURVE",
"327 1 CURVE SMOOTH",
"265 1 OFFCURVE",
"226 47 OFFCURVE",
"213 138 CURVE",
"201 138 LINE",
"206 9 LINE",
"241 -2 OFFCURVE",
"292 -10 OFFCURVE",
"327 -10 CURVE SMOOTH",
"418 -10 OFFCURVE",
"475 46 OFFCURVE",
"475 134 CURVE SMOOTH",
"475 320 OFFCURVE",
"239 292 OFFCURVE",
"239 416 CURVE SMOOTH",
"239 511 OFFCURVE",
"381 518 OFFCURVE",
"381 625 CURVE SMOOTH",
"381 690 OFFCURVE",
"327 733 OFFCURVE",
"246 733 CURVE SMOOTH {name = hr00;}"
);
}
);
width = 504;
}
);
leftKerningGroup = h;
unicode = 00DF;
},
{
glyphname = ae;
layers = (
{
layerId = master01;
paths = (
{
closed = 1;
nodes = (
"178 -7 OFFCURVE",
"228 24 OFFCURVE",
"264 79 CURVE",
"290 26 OFFCURVE",
"348 -10 OFFCURVE",
"417 -10 CURVE SMOOTH",
"487 -10 OFFCURVE",
"543 31 OFFCURVE",
"569 101 CURVE SMOOTH",
"573 112 LINE",
"569 114 LINE",
"560 102 LINE SMOOTH",
"530 63 OFFCURVE",
"485 40 OFFCURVE",
"437 40 CURVE SMOOTH",
"355 40 OFFCURVE",
"309 107 OFFCURVE",
"309 228 CURVE SMOOTH",
"309 241 OFFCURVE",
"309 254 OFFCURVE",
"310 267 CURVE",
"571 267 LINE",
"577 272 LINE",
"574 379 OFFCURVE",
"524 434 OFFCURVE",
"430 434 CURVE SMOOTH",
"377 434 OFFCURVE",
"328 415 OFFCURVE",
"303 384 CURVE",
"288 418 OFFCURVE",
"263 433 OFFCURVE",
"224 433 CURVE SMOOTH {name = hr01;}",
"193 433 OFFCURVE",
"161 424 OFFCURVE",
"131 408 CURVE SMOOTH",
"82 382 OFFCURVE",
"47 340 OFFCURVE",
"47 308 CURVE SMOOTH",
"47 287 OFFCURVE",
"61 272 OFFCURVE",
"81 272 CURVE SMOOTH",
"103 272 OFFCURVE",
"117 292 OFFCURVE",
"117 326 CURVE SMOOTH",
"117 335 OFFCURVE",
"116 346 OFFCURVE",
"116 353 CURVE SMOOTH",
"116 390 OFFCURVE",
"144 414 OFFCURVE",
"185 414 CURVE SMOOTH",
"228 414 OFFCURVE",
"243 388 OFFCURVE",
"243 311 CURVE SMOOTH",
"243 220 LINE",
"97 191 OFFCURVE",
"43 155 OFFCURVE",
"43 88 CURVE SMOOTH",
"43 32 OFFCURVE",
"79 -7 OFFCURVE",
"130 -7 CURVE SMOOTH"
);
},
{
closed = 1;
nodes = (
"474 423 OFFCURVE",
"499 389 OFFCURVE",
"499 324 CURVE SMOOTH",
"499 308 OFFCURVE",
"498 292 OFFCURVE",
"496 285 CURVE",
"312 278 LINE",
"322 369 OFFCURVE",
"363 423 OFFCURVE",
"425 423 CURVE SMOOTH"
);
},
{
closed = 1;
nodes = (
"134 31 OFFCURVE",
"110 60 OFFCURVE",
"110 107 CURVE SMOOTH",
"110 160 OFFCURVE",
"141 183 OFFCURVE",
"244 209 CURVE",
"248 120 OFFCURVE",
"253 105 OFFCURVE",
"258 91 CURVE",
"237 52 OFFCURVE",
"208 31 OFFCURVE",
"173 31 CURVE SMOOTH"
);
}
);
width = 613;
}
);
leftKerningGroup = a;
rightKerningGroup = e;
unicode = 00E6;
},
{
glyphname = eth;
layers = (
{
layerId = master01;
paths = (
{
closed = 1;
nodes = (
"123 -16 OFFCURVE",
"41 71 OFFCURVE",
"41 202 CURVE SMOOTH",
"41 330 OFFCURVE",
"118 413 OFFCURVE",
"238 413 CURVE SMOOTH",
"286 413 OFFCURVE",
"320 400 OFFCURVE",
"354 370 CURVE",
"334 527 OFFCURVE",
"278 611 OFFCURVE",
"122 706 CURVE",
"126 714 LINE",
"322 632 OFFCURVE",
"459 451 OFFCURVE",
"459 245 CURVE SMOOTH",
"459 82 OFFCURVE",
"380 -16 OFFCURVE",
"248 -16 CURVE SMOOTH"
);
},
{
closed = 1;
nodes = (
"326 -4 OFFCURVE",
"367 73 OFFCURVE",
"367 213 CURVE SMOOTH",
"367 258 OFFCURVE",
"363 311 OFFCURVE",
"356 352 CURVE",
"333 375 OFFCURVE",
"297 389 OFFCURVE",
"261 389 CURVE SMOOTH",
"179 389 OFFCURVE",
"134 319 OFFCURVE",
"134 194 CURVE SMOOTH",
"134 70 OFFCURVE",
"178 -4 OFFCURVE",
"252 -4 CURVE SMOOTH"
);
},
{
closed = 1;
nodes = (
"141 507 LINE",
"141 525 LINE",
"417 685 LINE",
"417 666 LINE"
);
}
);
width = 511;
}
);
leftKerningGroup = o;
unicode = 00F0;
},
{
glyphname = divide;
layers = (
{
layerId = master01;
paths = (
{
closed = 1;
nodes = (
"419 355 LINE",
"419 333 LINE",
"79 333 LINE",
"79 355 LINE"
);
},
{
closed = 1;
nodes = (
"199 475 OFFCURVE",
"218 454 OFFCURVE",
"247 454 CURVE SMOOTH",
"276 454 OFFCURVE",
"295 475 OFFCURVE",
"295 502 CURVE SMOOTH",
"295 529 OFFCURVE",
"276 550 OFFCURVE",
"247 550 CURVE SMOOTH",
"218 550 OFFCURVE",
"199 529 OFFCURVE",
"199 502 CURVE SMOOTH"
);
},
{
closed = 1;
nodes = (
"199 159 OFFCURVE",
"218 138 OFFCURVE",
"247 138 CURVE SMOOTH",
"276 138 OFFCURVE",
"295 159 OFFCURVE",
"295 186 CURVE SMOOTH",
"295 213 OFFCURVE",
"276 234 OFFCURVE",
"247 234 CURVE SMOOTH",
"218 234 OFFCURVE",
"199 213 OFFCURVE",
"199 186 CURVE SMOOTH"
);
}
);
width = 498;
}
);
unicode = 00F7;
},
{
glyphname = oslash;
layers = (
{
layerId = master01;
paths = (
{
closed = 1;
nodes = (
"81 -65 LINE",
"104 -65 LINE",
"414 490 LINE",
"391 490 LINE {name = hr00;}"
);
},
{
closed = 1;
nodes = (
"121 434 OFFCURVE",
"40 344 OFFCURVE",
"40 212 CURVE SMOOTH",
"40 80 OFFCURVE",
"121 -10 OFFCURVE",
"238 -10 CURVE SMOOTH",
"355 -10 OFFCURVE",
"436 80 OFFCURVE",
"436 212 CURVE SMOOTH",
"436 344 OFFCURVE",
"355 434 OFFCURVE",
"238 434 CURVE SMOOTH"
);
},
{
closed = 1;
nodes = (
"114 345 OFFCURVE",
"160 424 OFFCURVE",
"238 424 CURVE SMOOTH",
"315 424 OFFCURVE",
"362 345 OFFCURVE",
"362 212 CURVE SMOOTH",
"362 79 OFFCURVE",
"315 0 OFFCURVE",
"238 0 CURVE SMOOTH",
"160 0 OFFCURVE",
"114 79 OFFCURVE",
"114 212 CURVE SMOOTH"
);
}
);
width = 476;
}
);
leftKerningGroup = o;
rightKerningGroup = o;
unicode = 00F8;
},
{
glyphname = thorn;
layers = (
{
layerId = master01;
paths = (
{
closed = 1;
nodes = (
"425 87 OFFCURVE",
"340 -10 OFFCURVE",
"220 -10 CURVE SMOOTH",
"191 -10 OFFCURVE",
"165 -4 OFFCURVE",
"138 8 CURVE",
"138 -216 LINE",
"228 -227 LINE",
"228 -234 LINE",
"12 -234 LINE",
"12 -226 LINE",
"73 -218 LINE",
"73 653 LINE",
"14 675 LINE",
"14 682 LINE",
"130 721 LINE",
"138 721 LINE",
"138 377 LINE",
"173 415 OFFCURVE",
"214 434 OFFCURVE",
"261 434 CURVE SMOOTH",
"361 434 OFFCURVE",
"425 347 OFFCURVE",
"425 224 CURVE SMOOTH {name = hr00;}"
);
},
{
closed = 1;
nodes = (
"299 0 OFFCURVE",
"353 85 OFFCURVE",
"353 207 CURVE SMOOTH",
"353 329 OFFCURVE",
"305 404 OFFCURVE",
"227 404 CURVE SMOOTH",
"191 404 OFFCURVE",
"158 388 OFFCURVE",
"138 362 CURVE",
"138 71 LINE SMOOTH",
"138 33 OFFCURVE",
"179 0 OFFCURVE",
"227 0 CURVE SMOOTH"
);
}
);
width = 466;
}
);
leftKerningGroup = b;
rightKerningGroup = b;
unicode = 00FE;
},
{
glyphname = Aogonek;
layers = (
{
components = (
{
name = A;
transform = "{1, 0, 0, 1, -3, 0}";
}
);
layerId = master01;
paths = (
{
closed = 1;
nodes = (
"598 -211 OFFCURVE",
"567 -226 OFFCURVE",
"528 -226 CURVE SMOOTH",
"473 -226 OFFCURVE",
"438 -196 OFFCURVE",
"438 -149 CURVE SMOOTH",
"438 -99 OFFCURVE",
"480 -42 OFFCURVE",
"552 9 CURVE",
"564 9 LINE",
"531 -23 OFFCURVE",
"499 -87 OFFCURVE",
"499 -132 CURVE SMOOTH",
"499 -175 OFFCURVE",
"523 -198 OFFCURVE",
"561 -198 CURVE SMOOTH",
"584 -198 OFFCURVE",
"604 -191 OFFCURVE",
"623 -173 CURVE",
"626 -178 LINE"
);
}
);
width = 653;
}
);
leftKerningGroup = A;
rightKerningGroup = A;
unicode = 0104;
},
{
glyphname = Dcroat;
layers = (
{
components = (
{
name = D;
transform = "{1, 0, 0, 1, 11, 0}";
}
);
layerId = master01;
paths = (
{
closed = 1;
nodes = (
"335 363 LINE",
"335 341 LINE",
"51 341 LINE",
"51 363 LINE"
);
}
);
width = 715;
}
);
leftKerningGroup = I;
rightKerningGroup = D;
unicode = 0110;
},
{
glyphname = dcroat;
layers = (
{
components = (
{
name = d;
}
);
layerId = master01;
paths = (
{
closed = 1;
nodes = (
"448 553 LINE",
"448 531 LINE",
"234 531 LINE",
"234 553 LINE"
);
}
);
width = 472;
}
);
leftKerningGroup = d;
rightKerningGroup = d;
unicode = 0111;
},
{
glyphname = eogonek;
layers = (
{
layerId = master01;
paths = (
{
closed = 1;
nodes = (
"328 -191 OFFCURVE",
"308 -198 OFFCURVE",
"285 -198 CURVE SMOOTH",
"247 -198 OFFCURVE",
"223 -175 OFFCURVE",
"223 -132 CURVE SMOOTH",
"223 -81 OFFCURVE",
"257 -29 OFFCURVE",
"295 0 CURVE SMOOTH",
"334 26 OFFCURVE",
"362 53 OFFCURVE",
"379 101 CURVE SMOOTH",
"383 112 LINE",
"379 114 LINE",
"370 102 LINE SMOOTH",
"337 60 OFFCURVE",
"293 40 OFFCURVE",
"249 40 CURVE SMOOTH",
"162 40 OFFCURVE",
"109 102 OFFCURVE",
"109 226 CURVE SMOOTH",
"109 240 OFFCURVE",
"109 254 OFFCURVE",
"111 267 CURVE",
"381 267 LINE",
"387 272 LINE",
"385 378 OFFCURVE",
"334 434 OFFCURVE",
"241 434 CURVE SMOOTH",
"121 434 OFFCURVE",
"40 343 OFFCURVE",
"40 211 CURVE SMOOTH",
"40 80 OFFCURVE",
"115 -10 OFFCURVE",
"225 -10 CURVE SMOOTH",
"241 -10 OFFCURVE",
"256 -8 OFFCURVE",
"271 -4 CURVE",
"202 -51 OFFCURVE",
"162 -103 OFFCURVE",
"162 -149 CURVE SMOOTH",
"162 -196 OFFCURVE",
"197 -226 OFFCURVE",
"252 -226 CURVE SMOOTH",
"291 -226 OFFCURVE",
"322 -211 OFFCURVE",
"350 -178 CURVE",
"347 -173 LINE {name = hr00;}"
);
},
{
closed = 1;
nodes = (
"276 423 OFFCURVE",
"309 401 OFFCURVE",
"309 325 CURVE SMOOTH",
"309 310 OFFCURVE",
"308 293 OFFCURVE",
"306 285 CURVE",
"112 278 LINE",
"124 365 OFFCURVE",
"167 423 OFFCURVE",
"230 423 CURVE SMOOTH"
);
}
);
width = 423;
}
);
leftKerningGroup = o;
rightKerningGroup = e;
unicode = 0119;
},
{
glyphname = gcommaaccent;
layers = (
{
components = (
{
name = g;
}
);
layerId = master01;
paths = (
{
closed = 1;
nodes = (
"197 673 OFFCURVE",
"174 633 OFFCURVE",
"174 591 CURVE SMOOTH",
"174 555 OFFCURVE",
"191 531 OFFCURVE",
"216 531 CURVE SMOOTH",
"235 531 OFFCURVE",
"248 545 OFFCURVE",
"248 565 CURVE SMOOTH",
"248 599 OFFCURVE",
"210 599 OFFCURVE",
"210 636 CURVE SMOOTH",
"210 657 OFFCURVE",
"223 683 OFFCURVE",
"243 698 CURVE",
"239 703 LINE"
);
}
);
width = 403;
}
);
leftKerningGroup = g;
rightKerningGroup = g;
unicode = 0123;
},
{
glyphname = Hbar;
layers = (
{
components = (
{
name = H;
transform = "{1, 0, 0, 1, 6, 0}";
}
);
layerId = master01;
paths = (
{
closed = 1;
nodes = (
"697 531 LINE",
"697 514 LINE",
"47 514 LINE",
"47 531 LINE"
);
}
);
width = 745;
}
);
leftKerningGroup = I;
rightKerningGroup = I;
unicode = 0126;
},
{
glyphname = hbar;
layers = (
{
components = (
{
name = h;
}
);
layerId = master01;
paths = (
{
closed = 1;
nodes = (
"235 553 LINE",
"235 531 LINE",
"21 531 LINE",
"21 553 LINE"
);
}
);
width = 453;
}
);
leftKerningGroup = h;
rightKerningGroup = n;
unicode = 0127;
},
{
glyphname = iogonek;
layers = (
{
components = (
{
name = i;
}
);
layerId = master01;
paths = (
{
closed = 1;
nodes = (
"175 -211 OFFCURVE",
"144 -226 OFFCURVE",
"105 -226 CURVE SMOOTH",
"50 -226 OFFCURVE",
"15 -196 OFFCURVE",
"15 -149 CURVE SMOOTH",
"15 -99 OFFCURVE",
"57 -40 OFFCURVE",
"129 11 CURVE",
"141 11 LINE",
"108 -21 OFFCURVE",
"76 -87 OFFCURVE",
"76 -132 CURVE SMOOTH",
"76 -175 OFFCURVE",
"100 -198 OFFCURVE",
"138 -198 CURVE SMOOTH",
"161 -198 OFFCURVE",
"181 -191 OFFCURVE",
"200 -173 CURVE",
"203 -178 LINE"
);
}
);
width = 226;
}
);
leftKerningGroup = i;
rightKerningGroup = i;
unicode = 012F;
},
{
glyphname = dotlessi;
layers = (
{
anchors = (
{
name = bottom;
position = "{117, 0}";
},
{
name = top;
position = "{117, 530}";
}
);
layerId = master01;
paths = (
{
closed = 1;
nodes = (
"212 0 LINE",
"25 0 LINE",
"25 8 LINE",
"86 16 LINE",
"86 366 LINE",
"27 388 LINE",
"27 395 LINE",
"143 434 LINE",
"151 434 LINE",
"151 16 LINE",
"212 8 LINE {name = hr00;}"
);
}
);
width = 229;
}
);
leftKerningGroup = i;
rightKerningGroup = i;
unicode = 0131;
},
{
glyphname = kgreenlandic;
layers = (
{
layerId = master01;
paths = (
{
closed = 1;
nodes = (
"421 16 LINE",
"476 8 LINE",
"476 0 LINE",
"348 0 LINE",
"175 210 LINE",
"218 262 LINE {name = hr00;}"
);
},
{
closed = 1;
nodes = (
"211 0 LINE",
"25 0 LINE",
"25 8 LINE",
"86 16 LINE",
"86 361 LINE",
"27 383 LINE",
"27 390 LINE",
"143 429 LINE",
"151 429 LINE",
"151 16 LINE",
"211 8 LINE"
);
},
{
closed = 1;
nodes = (
"249 424 LINE",
"418 424 LINE",
"418 416 LINE",
"364 407 OFFCURVE",
"340 394 OFFCURVE",
"313 362 CURVE SMOOTH",
"129 145 LINE",
"129 163 LINE",
"293 360 LINE SMOOTH",
"305 375 OFFCURVE",
"311 385 OFFCURVE",
"311 392 CURVE SMOOTH",
"311 404 OFFCURVE",
"297 409 OFFCURVE",
"249 416 CURVE"
);
}
);
width = 464;
}
);
unicode = 0138;
},
{
glyphname = Lslash;
layers = (
{
components = (
{
name = L;
}
);
layerId = master01;
paths = (
{
closed = 1;
nodes = (
"40 253 LINE",
"40 271 LINE",
"316 431 LINE",
"316 412 LINE"
);
}
);
width = 583;
}
);
leftKerningGroup = I;
rightKerningGroup = L;
unicode = 0141;
},
{
glyphname = lslash;
layers = (
{
components = (
{
name = l;
transform = "{1, 0, 0, 1, 36, 0}";
}
);
layerId = master01;
paths = (
{
closed = 1;
nodes = (
"11 253 LINE",
"11 271 LINE",
"287 431 LINE",
"287 412 LINE"
);
}
);
width = 279;
}
);
leftKerningGroup = l;
rightKerningGroup = l;
unicode = 0142;
},
{
glyphname = Eng;
layers = (
{
layerId = master01;
paths = (
{
closed = 1;
nodes = (
"43 690 LINE",
"192 690 LINE",
"586 138 LINE",
"590 138 LINE",
"590 629 LINE SMOOTH",
"590 662 OFFCURVE",
"583 672 OFFCURVE",
"560 674 CURVE SMOOTH",
"479 682 LINE",
"479 690 LINE",
"718 690 LINE",
"718 682 LINE",
"646 674 LINE SMOOTH",
"614 670 OFFCURVE",
"606 661 OFFCURVE",
"606 629 CURVE SMOOTH",
"606 -14 LINE SMOOTH",
"606 -178 OFFCURVE",
"574 -246 OFFCURVE",
"496 -246 CURVE SMOOTH",
"439 -246 OFFCURVE",
"393 -210 OFFCURVE",
"393 -165 CURVE SMOOTH",
"393 -138 OFFCURVE",
"409 -121 OFFCURVE",
"435 -121 CURVE SMOOTH",
"461 -121 OFFCURVE",
"477 -138 OFFCURVE",
"477 -166 CURVE SMOOTH",
"477 -173 OFFCURVE",
"476 -188 OFFCURVE",
"476 -195 CURVE SMOOTH",
"476 -218 OFFCURVE",
"488 -230 OFFCURVE",
"509 -230 CURVE SMOOTH",
"561 -230 OFFCURVE",
"590 -161 OFFCURVE",
"590 -40 CURVE SMOOTH",
"590 -3 LINE",
"147 621 LINE",
"143 621 LINE",
"143 61 LINE SMOOTH",
"143 28 OFFCURVE",
"150 18 OFFCURVE",
"173 16 CURVE SMOOTH",
"244 8 LINE",
"244 0 LINE",
"25 0 LINE",
"25 8 LINE",
"97 16 LINE SMOOTH",
"120 18 OFFCURVE",
"127 28 OFFCURVE",
"127 61 CURVE SMOOTH",
"127 643 LINE",
"123 649 LINE SMOOTH",
"105 675 OFFCURVE",
"92 682 OFFCURVE",
"60 682 CURVE SMOOTH",
"43 682 LINE"
);
}
);
width = 734;
}
);
leftKerningGroup = I;
rightKerningGroup = N;
unicode = 014A;
},
{
glyphname = eng;
layers = (
{
layerId = master01;
paths = (
{
closed = 1;
nodes = (
"211 0 LINE",
"24 0 LINE",
"24 8 LINE",
"85 16 LINE",
"85 361 LINE",
"26 383 LINE",
"26 390 LINE",
"139 429 LINE",
"147 429 LINE",
"147 366 LINE",
"190 411 OFFCURVE",
"235 434 OFFCURVE",
"281 434 CURVE SMOOTH",
"322 434 OFFCURVE",
"359 415 OFFCURVE",
"374 385 CURVE SMOOTH",
"383 367 OFFCURVE",
"385 346 OFFCURVE",
"385 271 CURVE SMOOTH",
"385 40 LINE SMOOTH",
"385 -91 OFFCURVE",
"381 -123 OFFCURVE",
"362 -158 CURVE SMOOTH",
"332 -214 OFFCURVE",
"282 -247 OFFCURVE",
"226 -247 CURVE SMOOTH",
"180 -247 OFFCURVE",
"149 -223 OFFCURVE",
"149 -189 CURVE SMOOTH",
"149 -165 OFFCURVE",
"165 -149 OFFCURVE",
"187 -149 CURVE SMOOTH",
"207 -149 OFFCURVE",
"219 -161 OFFCURVE",
"226 -188 CURVE SMOOTH",
"233 -218 OFFCURVE",
"242 -228 OFFCURVE",
"263 -228 CURVE SMOOTH",
"302 -228 OFFCURVE",
"320 -188 OFFCURVE",
"320 -102 CURVE SMOOTH",
"320 271 LINE SMOOTH",
"320 322 OFFCURVE",
"318 344 OFFCURVE",
"310 361 CURVE SMOOTH",
"299 384 OFFCURVE",
"273 397 OFFCURVE",
"241 397 CURVE SMOOTH",
"207 397 OFFCURVE",
"177 383 OFFCURVE",
"150 354 CURVE",
"150 16 LINE",
"211 8 LINE {name = hr00;}"
);
}
);
width = 447;
}
);
leftKerningGroup = n;
rightKerningGroup = n;
unicode = 014B;
},
{
glyphname = OE;
layers = (
{
layerId = master01;
paths = (
{
closed = 1;
nodes = (
"190 706 OFFCURVE",
"52 548 OFFCURVE",
"52 345 CURVE SMOOTH",
"52 142 OFFCURVE",
"190 -16 OFFCURVE",
"367 -16 CURVE SMOOTH",
"412 -16 OFFCURVE",
"456 -10 OFFCURVE",
"495 0 CURVE",
"902 0 LINE",
"927 210 LINE",
"916 211 LINE",
"850 49 LINE SMOOTH",
"838 19 OFFCURVE",
"827 12 OFFCURVE",
"795 12 CURVE SMOOTH",
"571 12 LINE",
"571 355 LINE",
"719 355 LINE SMOOTH",
"751 355 OFFCURVE",
"761 347 OFFCURVE",
"767 316 CURVE SMOOTH",
"784 235 LINE",
"796 235 LINE",
"796 491 LINE",
"784 491 LINE",
"767 410 LINE SMOOTH",
"761 379 OFFCURVE",
"751 371 OFFCURVE",
"719 371 CURVE SMOOTH",
"571 371 LINE",
"571 678 LINE",
"797 678 LINE SMOOTH",
"829 678 OFFCURVE",
"839 671 OFFCURVE",
"851 641 CURVE SMOOTH",
"907 501 LINE",
"917 502 LINE",
"903 690 LINE",
"494 690 LINE",
"461 700 OFFCURVE",
"416 706 OFFCURVE",
"367 706 CURVE SMOOTH"
);
},
{
closed = 1;
nodes = (
"148 568 OFFCURVE",
"227 694 OFFCURVE",
"367 694 CURVE SMOOTH",
"417 694 OFFCURVE",
"460 680 OFFCURVE",
"494 649 CURVE",
"494 41 LINE",
"456 12 OFFCURVE",
"413 -3 OFFCURVE",
"367 -3 CURVE SMOOTH",
"227 -3 OFFCURVE",
"148 123 OFFCURVE",
"148 345 CURVE SMOOTH"
);
}
);
width = 985;
}
);
leftKerningGroup = O;
rightKerningGroup = E;
unicode = 0152;
},
{
glyphname = oe;
layers = (
{
components = (
{
name = e;
transform = "{1, 0, 0, 1, 322, 0}";
}
);
layerId = master01;
paths = (
{
closed = 1;
nodes = (
"121 434 OFFCURVE",
"40 344 OFFCURVE",
"40 212 CURVE SMOOTH",
"40 80 OFFCURVE",
"121 -10 OFFCURVE",
"238 -10 CURVE SMOOTH",
"347 -10 OFFCURVE",
"428 80 OFFCURVE",
"428 212 CURVE SMOOTH",
"428 344 OFFCURVE",
"347 434 OFFCURVE",
"238 434 CURVE SMOOTH {name = hr00;}"
);
},
{
closed = 1;
nodes = (
"114 345 OFFCURVE",
"160 424 OFFCURVE",
"238 424 CURVE SMOOTH",
"315 424 OFFCURVE",
"362 345 OFFCURVE",
"362 212 CURVE SMOOTH",
"362 79 OFFCURVE",
"315 0 OFFCURVE",
"238 0 CURVE SMOOTH",
"160 0 OFFCURVE",
"114 79 OFFCURVE",
"114 212 CURVE SMOOTH"
);
}
);
width = 745;
}
);
leftKerningGroup = o;
rightKerningGroup = e;
unicode = 0153;
},
{
glyphname = Tbar;
layers = (
{
components = (
{
name = T;
}
);
layerId = master01;
paths = (
{
closed = 1;
nodes = (
"502 418 LINE",
"502 401 LINE",
"152 401 LINE",
"152 418 LINE"
);
}
);
width = 663;
}
);
leftKerningGroup = T;
rightKerningGroup = T;
unicode = 0166;
},
{
glyphname = tbar;
layers = (
{
components = (
{
name = t;
transform = "{1, 0, 0, 1, 4, 0}";
}
);
layerId = master01;
paths = (
{
closed = 1;
nodes = (
"256 327 LINE",
"256 310 LINE",
"29 310 LINE",
"29 327 LINE"
);
}
);
width = 284;
}
);
leftKerningGroup = t;
rightKerningGroup = t;
unicode = 0167;
},
{
glyphname = Schwa;
layers = (
{
layerId = master01;
paths = (
{
closed = 1;
nodes = (
"52 74 OFFCURVE",
"130 -16 OFFCURVE",
"274 -16 CURVE SMOOTH",
"468 -16 OFFCURVE",
"598 131 OFFCURVE",
"598 349 CURVE SMOOTH",
"598 561 OFFCURVE",
"481 706 OFFCURVE",
"310 706 CURVE SMOOTH",
"192 706 OFFCURVE",
"104 641 OFFCURVE",
"62 527 CURVE SMOOTH",
"55 509 LINE",
"60 507 LINE",
"74 526 LINE SMOOTH",
"132 604 OFFCURVE",
"201 645 OFFCURVE",
"271 645 CURVE SMOOTH",
"417 645 OFFCURVE",
"502 539 OFFCURVE",
"502 325 CURVE SMOOTH",
"502 127 OFFCURVE",
"420 -3 OFFCURVE",
"292 -3 CURVE SMOOTH",
"211 -3 OFFCURVE",
"150 32 OFFCURVE",
"150 166 CURVE SMOOTH",
"150 190 OFFCURVE",
"151 217 OFFCURVE",
"155 230 CURVE",
"512 242 LINE",
"512 255 LINE",
"59 255 LINE",
"49 247 LINE {name = hr00;}"
);
}
);
width = 652;
}
);
rightKerningGroup = O;
unicode = 018F;
},
{
glyphname = florin;
layers = (
{
layerId = master01;
paths = (
{
closed = 1;
nodes = (
"115 424 LINE",
"52 32 LINE SMOOTH",
"36 -69 OFFCURVE",
"-14 -115 OFFCURVE",
"-64 -115 CURVE SMOOTH",
"-119 -115 OFFCURVE",
"-96 -33 OFFCURVE",
"-144 -33 CURVE SMOOTH",
"-162 -33 OFFCURVE",
"-178 -49 OFFCURVE",
"-178 -69 CURVE SMOOTH",
"-178 -106 OFFCURVE",
"-125 -128 OFFCURVE",
"-81 -128 CURVE SMOOTH",
"7 -128 OFFCURVE",
"103 -50 OFFCURVE",
"135 142 CURVE SMOOTH",
"182 424 LINE",
"294 424 LINE",
"298 440 LINE",
"183 440 LINE",
"191 489 LINE SMOOTH",
"217 652 OFFCURVE",
"261 693 OFFCURVE",
"320 693 CURVE SMOOTH",
"370 693 OFFCURVE",
"336 611 OFFCURVE",
"393 611 CURVE SMOOTH",
"417 611 OFFCURVE",
"430 631 OFFCURVE",
"430 647 CURVE SMOOTH",
"430 676 OFFCURVE",
"393 706 OFFCURVE",
"331 706 CURVE SMOOTH",
"258 706 OFFCURVE",
"195 662 OFFCURVE",
"167 612 CURVE SMOOTH",
"142 566 OFFCURVE",
"132 536 OFFCURVE",
"117 440 CURVE",
"50 440 LINE",
"45 424 LINE {name = hr00;}"
);
}
);
width = 295;
}
);
unicode = 0192;
},
{
glyphname = Oogonek;
layers = (
{
components = (
{
name = O;
}
);
layerId = master01;
paths = (
{
closed = 1;
nodes = (
"320 -52 OFFCURVE",
"280 -103 OFFCURVE",
"280 -149 CURVE SMOOTH",
"280 -196 OFFCURVE",
"315 -226 OFFCURVE",
"370 -226 CURVE SMOOTH",
"409 -226 OFFCURVE",
"440 -211 OFFCURVE",
"468 -178 CURVE",
"465 -173 LINE",
"446 -191 OFFCURVE",
"426 -198 OFFCURVE",
"403 -198 CURVE SMOOTH",
"365 -198 OFFCURVE",
"341 -175 OFFCURVE",
"341 -132 CURVE SMOOTH",
"341 -93 OFFCURVE",
"368 -41 OFFCURVE",
"398 -9 CURVE",
"389 -5 LINE"
);
}
);
width = 734;
}
);
unicode = 01EA;
},
{
glyphname = Aringacute;
layers = (
{
components = (
{
name = A;
},
{
name = ring;
transform = "{1, 0, 0, 1, 226, 165}";
}
);
layerId = master01;
paths = (
{
closed = 1;
nodes = (
"382 941 LINE SMOOTH",
"387 956 OFFCURVE",
"398 962 OFFCURVE",
"413 962 CURVE SMOOTH",
"431 962 OFFCURVE",
"441 948 OFFCURVE",
"441 931 CURVE SMOOTH",
"441 918 OFFCURVE",
"431 909 OFFCURVE",
"405 876 CURVE SMOOTH",
"349 806 LINE",
"342 811 LINE"
);
}
);
width = 659;
}
);
leftKerningGroup = A;
rightKerningGroup = A;
unicode = 01FA;
},
{
glyphname = Oslashacute;
layers = (
{
components = (
{
name = acute;
transform = "{1, 0, 0, 1, 310, 270}";
},
{
name = O;
transform = "{1, 0, 0, 1, 1, 0}";
}
);
layerId = master01;
paths = (
{
closed = 1;
nodes = (
"142 -75 LINE",
"165 -75 LINE",
"585 750 LINE",
"562 750 LINE"
);
}
);
width = 734;
}
);
leftKerningGroup = O;
rightKerningGroup = O;
unicode = 01FE;
},
{
glyphname = oslashacute;
layers = (
{
components = (
{
name = acute;
transform = "{1, 0, 0, 1, 185, 0}";
}
);
layerId = master01;
paths = (
{
closed = 1;
nodes = (
"81 -65 LINE",
"104 -65 LINE",
"414 490 LINE",
"391 490 LINE"
);
},
{
closed = 1;
nodes = (
"121 434 OFFCURVE",
"40 344 OFFCURVE",
"40 212 CURVE SMOOTH",
"40 80 OFFCURVE",
"121 -10 OFFCURVE",
"238 -10 CURVE SMOOTH",
"355 -10 OFFCURVE",
"436 80 OFFCURVE",
"436 212 CURVE SMOOTH",
"436 344 OFFCURVE",
"355 434 OFFCURVE",
"238 434 CURVE SMOOTH"
);
},
{
closed = 1;
nodes = (
"114 345 OFFCURVE",
"160 424 OFFCURVE",
"238 424 CURVE SMOOTH",
"315 424 OFFCURVE",
"362 345 OFFCURVE",
"362 212 CURVE SMOOTH",
"362 79 OFFCURVE",
"315 0 OFFCURVE",
"238 0 CURVE SMOOTH",
"160 0 OFFCURVE",
"114 79 OFFCURVE",
"114 212 CURVE SMOOTH"
);
}
);
width = 476;
}
);
leftKerningGroup = o;
rightKerningGroup = o;
unicode = 01FF;
},
{
glyphname = dotlessj;
layers = (
{
anchors = (
{
name = top;
position = "{113, 530}";
}
);
layerId = master01;
paths = (
{
closed = 1;
nodes = (
"22 388 LINE",
"22 395 LINE",
"138 434 LINE",
"146 434 LINE",
"146 40 LINE SMOOTH",
"146 -91 OFFCURVE",
"142 -123 OFFCURVE",
"123 -158 CURVE SMOOTH",
"93 -214 OFFCURVE",
"43 -247 OFFCURVE",
"-13 -247 CURVE SMOOTH",
"-59 -247 OFFCURVE",
"-90 -223 OFFCURVE",
"-90 -189 CURVE SMOOTH",
"-90 -165 OFFCURVE",
"-74 -149 OFFCURVE",
"-52 -149 CURVE SMOOTH",
"-32 -149 OFFCURVE",
"-20 -161 OFFCURVE",
"-13 -188 CURVE SMOOTH",
"-6 -218 OFFCURVE",
"3 -228 OFFCURVE",
"24 -228 CURVE SMOOTH",
"63 -228 OFFCURVE",
"81 -188 OFFCURVE",
"81 -102 CURVE SMOOTH",
"81 366 LINE {name = hr00;}"
);
}
);
width = 218;
}
);
leftKerningGroup = j;
rightKerningGroup = j;
unicode = 0237;
},
{
glyphname = schwa;
layers = (
{
layerId = master01;
paths = (
{
closed = 1;
nodes = (
"39 46 OFFCURVE",
"90 -10 OFFCURVE",
"183 -10 CURVE SMOOTH",
"303 -10 OFFCURVE",
"384 81 OFFCURVE",
"384 213 CURVE SMOOTH",
"384 344 OFFCURVE",
"309 434 OFFCURVE",
"199 434 CURVE SMOOTH",
"126 434 OFFCURVE",
"71 394 OFFCURVE",
"45 323 CURVE SMOOTH",
"41 312 LINE",
"45 310 LINE",
"54 322 LINE SMOOTH",
"87 364 OFFCURVE",
"131 384 OFFCURVE",
"175 384 CURVE SMOOTH",
"262 384 OFFCURVE",
"315 322 OFFCURVE",
"315 198 CURVE SMOOTH",
"315 82 OFFCURVE",
"269 1 OFFCURVE",
"194 1 CURVE SMOOTH",
"148 1 OFFCURVE",
"115 23 OFFCURVE",
"115 99 CURVE SMOOTH",
"115 114 OFFCURVE",
"116 131 OFFCURVE",
"118 139 CURVE",
"321 146 LINE",
"321 157 LINE",
"43 157 LINE",
"37 152 LINE {name = hr00;}"
);
}
);
width = 424;
}
);
rightKerningGroup = o;
unicode = 0259;
},
{
glyphname = apostrophe;
layers = (
{
anchors = (
{
name = _top;
position = "{72, 530}";
}
);
layerId = master01;
paths = (
{
closed = 1;
nodes = (
"74 530 LINE",
"97 651 LINE SMOOTH",
"98 657 OFFCURVE",
"99 662 OFFCURVE",
"99 666 CURVE SMOOTH",
"99 687 OFFCURVE",
"88 696 OFFCURVE",
"72 696 CURVE SMOOTH",
"56 696 OFFCURVE",
"45 687 OFFCURVE",
"45 666 CURVE SMOOTH",
"45 662 OFFCURVE",
"46 657 OFFCURVE",
"47 651 CURVE SMOOTH",
"70 530 LINE"
);
}
);
width = 144;
}
);
unicode = 02BC;
},
{
glyphname = circumflex;
layers = (
{
anchors = (
{
name = _top;
position = "{141, 530}";
}
);
layerId = master01;
paths = (
{
closed = 1;
nodes = (
"166 682 OFFCURVE",
"158 691 OFFCURVE",
"141 691 CURVE SMOOTH",
"126 691 OFFCURVE",
"116 684 OFFCURVE",
"110 670 CURVE SMOOTH",
"45 524 LINE",
"48 523 LINE",
"141 629 LINE",
"234 523 LINE",
"237 524 LINE",
"172 670 LINE SMOOTH"
);
}
);
width = 282;
}
);
unicode = 02C6;
},
{
glyphname = caron;
layers = (
{
anchors = (
{
name = _top;
position = "{141, 530}";
}
);
layerId = master01;
paths = (
{
closed = 1;
nodes = (
"234 696 LINE",
"141 590 LINE",
"48 696 LINE",
"45 695 LINE",
"110 549 LINE SMOOTH",
"116 535 OFFCURVE",
"126 528 OFFCURVE",
"141 528 CURVE SMOOTH",
"158 528 OFFCURVE",
"166 537 OFFCURVE",
"172 549 CURVE SMOOTH",
"237 695 LINE"
);
}
);
width = 282;
}
);
unicode = 02C7;
},
{
glyphname = uni02C9;
layers = (
{
anchors = (
{
name = _top;
position = "{145, 530}";
}
);
layerId = master01;
paths = (
{
closed = 1;
nodes = (
"245 575 LINE",
"245 553 LINE",
"45 553 LINE",
"45 575 LINE"
);
}
);
width = 290;
}
);
unicode = 02C9;
},
{
glyphname = breve;
layers = (
{
anchors = (
{
name = _top;
position = "{152, 530}";
}
);
layerId = master01;
paths = (
{
closed = 1;
nodes = (
"100 530 OFFCURVE",
"62 564 OFFCURVE",
"45 625 CURVE",
"50 625 LINE",
"69 594 OFFCURVE",
"104 578 OFFCURVE",
"153 578 CURVE SMOOTH",
"202 578 OFFCURVE",
"236 594 OFFCURVE",
"256 625 CURVE",
"261 625 LINE",
"244 564 OFFCURVE",
"205 530 OFFCURVE",
"153 530 CURVE SMOOTH"
);
}
);
width = 306;
}
);
unicode = 02D8;
},
{
glyphname = dotaccent;
layers = (
{
anchors = (
{
name = _top;
position = "{93, 530}";
}
);
layerId = master01;
paths = (
{
closed = 1;
nodes = (
"45 551 OFFCURVE",
"64 530 OFFCURVE",
"93 530 CURVE SMOOTH",
"122 530 OFFCURVE",
"141 551 OFFCURVE",
"141 578 CURVE SMOOTH",
"141 605 OFFCURVE",
"122 626 OFFCURVE",
"93 626 CURVE SMOOTH",
"64 626 OFFCURVE",
"45 605 OFFCURVE",
"45 578 CURVE SMOOTH"
);
}
);
width = 186;
}
);
unicode = 02D9;
},
{
glyphname = ring;
layers = (
{
anchors = (
{
name = _top;
position = "{108, 530}";
}
);
layerId = master01;
paths = (
{
closed = 1;
nodes = (
"45 628 OFFCURVE",
"70 656 OFFCURVE",
"108 656 CURVE SMOOTH",
"146 656 OFFCURVE",
"171 628 OFFCURVE",
"171 593 CURVE SMOOTH",
"171 558 OFFCURVE",
"146 530 OFFCURVE",
"108 530 CURVE SMOOTH",
"70 530 OFFCURVE",
"45 558 OFFCURVE",
"45 593 CURVE SMOOTH"
);
},
{
closed = 1;
nodes = (
"57 564 OFFCURVE",
"77 542 OFFCURVE",
"108 542 CURVE SMOOTH",
"138 542 OFFCURVE",
"158 564 OFFCURVE",
"158 593 CURVE SMOOTH",
"158 622 OFFCURVE",
"138 643 OFFCURVE",
"108 643 CURVE SMOOTH",
"77 643 OFFCURVE",
"57 622 OFFCURVE",
"57 593 CURVE"
);
}
);
width = 216;
}
);
unicode = 02DA;
},
{
glyphname = ogonek;
layers = (
{
anchors = (
{
name = _bottom;
position = "{153, 0}";
}
);
layerId = master01;
paths = (
{
closed = 1;
nodes = (
"211 -191 OFFCURVE",
"191 -198 OFFCURVE",
"168 -198 CURVE SMOOTH",
"130 -198 OFFCURVE",
"106 -175 OFFCURVE",
"106 -132 CURVE SMOOTH",
"106 -90 OFFCURVE",
"138 -31 OFFCURVE",
"171 -1 CURVE",
"159 -1 LINE",
"87 -49 OFFCURVE",
"45 -102 OFFCURVE",
"45 -149 CURVE SMOOTH",
"45 -196 OFFCURVE",
"80 -226 OFFCURVE",
"135 -226 CURVE SMOOTH",
"174 -226 OFFCURVE",
"205 -211 OFFCURVE",
"233 -178 CURVE",
"230 -173 LINE"
);
}
);
width = 278;
}
);
unicode = 02DB;
},
{
glyphname = tilde;
layers = (
{
anchors = (
{
name = _top;
position = "{168, 530}";
}
);
layerId = master01;
paths = (
{
closed = 1;
nodes = (
"45 583 OFFCURVE",
"73 617 OFFCURVE",
"115 617 CURVE SMOOTH",
"152 617 OFFCURVE",
"206 584 OFFCURVE",
"244 584 CURVE SMOOTH",
"267 584 OFFCURVE",
"281 597 OFFCURVE",
"286 620 CURVE",
"291 620 LINE",
"291 565 OFFCURVE",
"264 530 OFFCURVE",
"221 530 CURVE SMOOTH",
"181 530 OFFCURVE",
"131 566 OFFCURVE",
"91 566 CURVE SMOOTH",
"67 566 OFFCURVE",
"52 553 OFFCURVE",
"49 531 CURVE",
"45 531 LINE"
);
}
);
width = 336;
}
);
unicode = 02DC;
},
{
glyphname = hungarumlaut;
layers = (
{
anchors = (
{
name = _top;
position = "{150, 530}";
}
);
layerId = master01;
paths = (
{
closed = 1;
nodes = (
"48 523 LINE",
"113 605 LINE SMOOTH",
"139 638 OFFCURVE",
"149 647 OFFCURVE",
"149 660 CURVE SMOOTH",
"149 677 OFFCURVE",
"139 691 OFFCURVE",
"121 691 CURVE SMOOTH",
"106 691 OFFCURVE",
"95 685 OFFCURVE",
"90 670 CURVE SMOOTH",
"45 524 LINE"
);
},
{
closed = 1;
nodes = (
"153 523 LINE",
"218 605 LINE SMOOTH",
"244 638 OFFCURVE",
"254 647 OFFCURVE",
"254 660 CURVE SMOOTH",
"254 677 OFFCURVE",
"244 691 OFFCURVE",
"226 691 CURVE SMOOTH",
"211 691 OFFCURVE",
"200 685 OFFCURVE",
"195 670 CURVE SMOOTH",
"150 524 LINE"
);
}
);
width = 299;
}
);
unicode = 02DD;
},
{
glyphname = uni030F;
layers = (
{
anchors = (
{
name = _top;
position = "{150, 530}";
}
);
layerId = master01;
paths = (
{
closed = 1;
nodes = (
"204 684 OFFCURVE",
"193 690 OFFCURVE",
"178 690 CURVE SMOOTH",
"160 690 OFFCURVE",
"150 676 OFFCURVE",
"150 659 CURVE SMOOTH",
"150 646 OFFCURVE",
"160 637 OFFCURVE",
"186 604 CURVE SMOOTH",
"251 522 LINE",
"254 523 LINE",
"209 669 LINE"
);
},
{
closed = 1;
nodes = (
"99 684 OFFCURVE",
"88 690 OFFCURVE",
"73 690 CURVE SMOOTH",
"55 690 OFFCURVE",
"45 676 OFFCURVE",
"45 659 CURVE SMOOTH",
"45 646 OFFCURVE",
"55 637 OFFCURVE",
"81 604 CURVE SMOOTH",
"146 522 LINE",
"149 523 LINE",
"104 669 LINE"
);
}
);
width = 299;
}
);
unicode = 030F;
},
{
glyphname = uni0311;
layers = (
{
anchors = (
{
name = _top;
position = "{152, 530}";
}
);
layerId = master01;
paths = (
{
closed = 1;
nodes = (
"205 625 OFFCURVE",
"244 591 OFFCURVE",
"261 530 CURVE",
"256 530 LINE",
"236 561 OFFCURVE",
"202 577 OFFCURVE",
"153 577 CURVE SMOOTH",
"104 577 OFFCURVE",
"69 561 OFFCURVE",
"50 530 CURVE",
"45 530 LINE",
"62 591 OFFCURVE",
"100 625 OFFCURVE",
"153 625 CURVE SMOOTH"
);
}
);
width = 306;
}
);
unicode = 0311;
},
{
glyphname = uni0394;
layers = (
{
layerId = master01;
paths = (
{
closed = 1;
nodes = (
"621 24 LINE",
"329 706 LINE",
"287 694 LINE",
"3 24 LINE",
"3 0 LINE",
"621 0 LINE {name = hr00;}"
);
},
{
closed = 1;
nodes = (
"60 47 LINE",
"283 590 LINE",
"510 47 LINE"
);
}
);
width = 624;
}
);
unicode = 0394;
},
{
glyphname = uni03A9;
layers = (
{
layerId = master01;
paths = (
{
closed = 1;
nodes = (
"759 147 LINE",
"734 76 OFFCURVE",
"723 67 OFFCURVE",
"676 67 CURVE SMOOTH",
"552 67 LINE",
"635 143 OFFCURVE",
"739 248 OFFCURVE",
"739 390 CURVE SMOOTH",
"739 588 OFFCURVE",
"605 706 OFFCURVE",
"417 706 CURVE SMOOTH",
"234 706 OFFCURVE",
"91 579 OFFCURVE",
"91 381 CURVE SMOOTH",
"91 217 OFFCURVE",
"204 123 OFFCURVE",
"275 67 CURVE",
"156 67 LINE SMOOTH",
"111 67 OFFCURVE",
"95 80 OFFCURVE",
"71 147 CURVE",
"46 146 LINE",
"72 0 LINE",
"332 0 LINE",
"340 21 LINE",
"277 111 OFFCURVE",
"194 226 OFFCURVE",
"194 373 CURVE SMOOTH",
"194 592 OFFCURVE",
"293 675 OFFCURVE",
"415 675 CURVE SMOOTH",
"526 675 OFFCURVE",
"638 599 OFFCURVE",
"638 379 CURVE SMOOTH",
"638 224 OFFCURVE",
"537 96 OFFCURVE",
"489 21 CURVE",
"496 0 LINE",
"758 0 LINE",
"786 146 LINE {name = hr00;}"
);
}
);
width = 827;
}
);
unicode = 03A9;
},
{
glyphname = uni03BC;
layers = (
{
layerId = master01;
paths = (
{
closed = 1;
nodes = (
"304 70 LINE",
"306 64 LINE",
"309 63 LINE",
"309 -5 LINE",
"315 -5 LINE",
"424 45 LINE",
"424 50 LINE",
"369 62 LINE",
"369 424 LINE",
"244 424 LINE",
"244 416 LINE",
"304 408 LINE {name = hr00;}"
);
},
{
closed = 1;
nodes = (
"109 12 OFFCURVE",
"138 -10 OFFCURVE",
"180 -10 CURVE SMOOTH",
"225 -10 OFFCURVE",
"267 15 OFFCURVE",
"306 64 CURVE",
"306 80 LINE",
"281 46 OFFCURVE",
"248 28 OFFCURVE",
"214 28 CURVE SMOOTH",
"185 28 OFFCURVE",
"164 40 OFFCURVE",
"153 63 CURVE SMOOTH",
"145 79 OFFCURVE",
"143 98 OFFCURVE",
"143 153 CURVE SMOOTH",
"143 424 LINE",
"18 424 LINE",
"18 416 LINE",
"78 408 LINE",
"78 153 LINE SMOOTH",
"78 37 OFFCURVE",
"63 -115 OFFCURVE",
"63 -162 CURVE SMOOTH",
"63 -200 OFFCURVE",
"71 -216 OFFCURVE",
"91 -216 CURVE SMOOTH",
"110 -216 OFFCURVE",
"121 -202 OFFCURVE",
"121 -180 CURVE SMOOTH",
"121 -146 OFFCURVE",
"89 -100 OFFCURVE",
"89 49 CURVE",
"94 51 LINE"
);
}
);
width = 446;
}
);
unicode = 03BC;
},
{
glyphname = pi;
layers = (
{
layerId = master01;
paths = (
{
closed = 1;
nodes = (
"539 456 OFFCURVE",
"524 450 OFFCURVE",
"492 450 CURVE SMOOTH",
"388 450 OFFCURVE",
"275 454 OFFCURVE",
"196 454 CURVE SMOOTH",
"87 454 OFFCURVE",
"46 399 OFFCURVE",
"15 359 CURVE",
"30 337 LINE",
"69 365 OFFCURVE",
"98 387 OFFCURVE",
"170 387 CURVE",
"170 283 OFFCURVE",
"149 97 OFFCURVE",
"70 5 CURVE",
"77 -12 LINE {name = hr01;}",
"93 -11 OFFCURVE",
"120 -2 OFFCURVE",
"138 5 CURVE",
"153 22 OFFCURVE",
"209 135 OFFCURVE",
"209 366 CURVE SMOOTH",
"209 385 LINE",
"252 385 OFFCURVE",
"320 384 OFFCURVE",
"387 383 CURVE",
"382 305 OFFCURVE",
"376 209 OFFCURVE",
"376 117 CURVE SMOOTH",
"376 15 OFFCURVE",
"415 -12 OFFCURVE",
"470 -12 CURVE SMOOTH",
"509 -12 OFFCURVE",
"553 9 OFFCURVE",
"580 56 CURVE",
"567 78 LINE",
"549 58 OFFCURVE",
"535 46 OFFCURVE",
"512 46 CURVE SMOOTH",
"468 46 OFFCURVE",
"463 77 OFFCURVE",
"463 181 CURVE SMOOTH",
"463 381 LINE",
"493 381 OFFCURVE",
"526 381 OFFCURVE",
"543 385 CURVE",
"557 402 OFFCURVE",
"574 438 OFFCURVE",
"582 476 CURVE",
"558 486 LINE"
);
}
);
width = 604;
}
);
unicode = 03C0;
},
{
glyphname = endash;
layers = (
{
layerId = master01;
paths = (
{
closed = 1;
nodes = (
"432 238 LINE",
"425 216 LINE",
"65 216 LINE",
"72 238 LINE"
);
}
);
width = 496;
}
);
leftKerningGroup = hyphen;
rightKerningGroup = hyphen;
unicode = 2013;
},
{
glyphname = emdash;
layers = (
{
layerId = master01;
paths = (
{
closed = 1;
nodes = (
"616 238 LINE",
"609 216 LINE",
"65 216 LINE",
"72 238 LINE"
);
}
);
width = 680;
}
);
leftKerningGroup = hyphen;
rightKerningGroup = hyphen;
unicode = 2014;
},
{
glyphname = quoteleft;
layers = (
{
layerId = master01;
paths = (
{
closed = 1;
nodes = (
"81 675 OFFCURVE",
"56 620 OFFCURVE",
"56 569 CURVE SMOOTH",
"56 528 OFFCURVE",
"72 504 OFFCURVE",
"98 504 CURVE SMOOTH",
"117 504 OFFCURVE",
"130 518 OFFCURVE",
"130 538 CURVE SMOOTH",
"130 571 OFFCURVE",
"92 574 OFFCURVE",
"92 626 CURVE SMOOTH",
"92 657 OFFCURVE",
"105 690 OFFCURVE",
"125 709 CURVE",
"121 714 LINE"
);
}
);
width = 187;
}
);
leftKerningGroup = quoteleft;
rightKerningGroup = quoteleft;
unicode = 2018;
},
{
glyphname = quoteright;
layers = (
{
layerId = master01;
paths = (
{
closed = 1;
nodes = (
"110 543 OFFCURVE",
"135 598 OFFCURVE",
"135 649 CURVE SMOOTH",
"135 690 OFFCURVE",
"119 714 OFFCURVE",
"93 714 CURVE SMOOTH",
"74 714 OFFCURVE",
"61 700 OFFCURVE",
"61 680 CURVE SMOOTH",
"61 647 OFFCURVE",
"99 644 OFFCURVE",
"99 592 CURVE SMOOTH",
"99 561 OFFCURVE",
"86 528 OFFCURVE",
"66 509 CURVE",
"70 504 LINE"
);
}
);
width = 186;
}
);
leftKerningGroup = quoteright;
rightKerningGroup = quoteright;
unicode = 2019;
},
{
glyphname = quotesinglbase;
layers = (
{
layerId = master01;
paths = (
{
closed = 1;
nodes = (
"116 -72 OFFCURVE",
"141 -17 OFFCURVE",
"141 34 CURVE SMOOTH",
"141 75 OFFCURVE",
"125 99 OFFCURVE",
"99 99 CURVE SMOOTH",
"80 99 OFFCURVE",
"67 85 OFFCURVE",
"67 65 CURVE SMOOTH",
"67 32 OFFCURVE",
"105 29 OFFCURVE",
"105 -23 CURVE SMOOTH",
"105 -54 OFFCURVE",
"92 -87 OFFCURVE",
"72 -106 CURVE",
"76 -111 LINE"
);
}
);
width = 207;
}
);
leftKerningGroup = period;
rightKerningGroup = period;
unicode = 201A;
},
{
glyphname = quotedblleft;
layers = (
{
layerId = master01;
paths = (
{
closed = 1;
nodes = (
"81 675 OFFCURVE",
"56 620 OFFCURVE",
"56 569 CURVE SMOOTH",
"56 528 OFFCURVE",
"72 504 OFFCURVE",
"98 504 CURVE SMOOTH",
"117 504 OFFCURVE",
"130 518 OFFCURVE",
"130 538 CURVE SMOOTH",
"130 571 OFFCURVE",
"92 574 OFFCURVE",
"92 626 CURVE SMOOTH",
"92 657 OFFCURVE",
"105 690 OFFCURVE",
"125 709 CURVE",
"121 714 LINE"
);
},
{
closed = 1;
nodes = (
"191 675 OFFCURVE",
"166 620 OFFCURVE",
"166 569 CURVE SMOOTH",
"166 528 OFFCURVE",
"182 504 OFFCURVE",
"208 504 CURVE SMOOTH",
"227 504 OFFCURVE",
"240 518 OFFCURVE",
"240 538 CURVE SMOOTH",
"240 571 OFFCURVE",
"202 574 OFFCURVE",
"202 626 CURVE SMOOTH",
"202 657 OFFCURVE",
"215 690 OFFCURVE",
"235 709 CURVE",
"231 714 LINE"
);
}
);
width = 297;
}
);
leftKerningGroup = quoteleft;
rightKerningGroup = quoteleft;
unicode = 201C;
},
{
glyphname = quotedblright;
layers = (
{
layerId = master01;
paths = (
{
closed = 1;
nodes = (
"220 543 OFFCURVE",
"245 598 OFFCURVE",
"245 649 CURVE SMOOTH",
"245 690 OFFCURVE",
"229 714 OFFCURVE",
"203 714 CURVE SMOOTH",
"184 714 OFFCURVE",
"171 700 OFFCURVE",
"171 680 CURVE SMOOTH",
"171 647 OFFCURVE",
"209 644 OFFCURVE",
"209 592 CURVE SMOOTH",
"209 561 OFFCURVE",
"196 528 OFFCURVE",
"176 509 CURVE",
"180 504 LINE"
);
},
{
closed = 1;
nodes = (
"110 543 OFFCURVE",
"135 598 OFFCURVE",
"135 649 CURVE SMOOTH",
"135 690 OFFCURVE",
"119 714 OFFCURVE",
"93 714 CURVE SMOOTH",
"74 714 OFFCURVE",
"61 700 OFFCURVE",
"61 680 CURVE SMOOTH",
"61 647 OFFCURVE",
"99 644 OFFCURVE",
"99 592 CURVE SMOOTH",
"99 561 OFFCURVE",
"86 528 OFFCURVE",
"66 509 CURVE",
"70 504 LINE"
);
}
);
width = 296;
}
);
leftKerningGroup = quoteright;
rightKerningGroup = quoteright;
unicode = 201D;
},
{
glyphname = quotedblbase;
layers = (
{
layerId = master01;
paths = (
{
closed = 1;
nodes = (
"226 -72 OFFCURVE",
"251 -17 OFFCURVE",
"251 34 CURVE SMOOTH",
"251 75 OFFCURVE",
"235 99 OFFCURVE",
"209 99 CURVE SMOOTH",
"190 99 OFFCURVE",
"177 85 OFFCURVE",
"177 65 CURVE SMOOTH",
"177 32 OFFCURVE",
"215 29 OFFCURVE",
"215 -23 CURVE SMOOTH",
"215 -54 OFFCURVE",
"202 -87 OFFCURVE",
"182 -106 CURVE",
"186 -111 LINE"
);
},
{
closed = 1;
nodes = (
"116 -72 OFFCURVE",
"141 -17 OFFCURVE",
"141 34 CURVE SMOOTH",
"141 75 OFFCURVE",
"125 99 OFFCURVE",
"99 99 CURVE SMOOTH",
"80 99 OFFCURVE",
"67 85 OFFCURVE",
"67 65 CURVE SMOOTH",
"67 32 OFFCURVE",
"105 29 OFFCURVE",
"105 -23 CURVE SMOOTH",
"105 -54 OFFCURVE",
"92 -87 OFFCURVE",
"72 -106 CURVE",
"76 -111 LINE"
);
}
);
width = 317;
}
);
leftKerningGroup = period;
rightKerningGroup = period;
unicode = 201E;
},
{
glyphname = dagger;
layers = (
{
layerId = master01;
paths = (
{
closed = 1;
nodes = (
"184 92 OFFCURVE",
"177 211 OFFCURVE",
"160 315 CURVE",
"173 367 OFFCURVE",
"181 433 OFFCURVE",
"188 525 CURVE",
"120 525 OFFCURVE",
"106 503 OFFCURVE",
"73 503 CURVE SMOOTH",
"53 503 OFFCURVE",
"40 516 OFFCURVE",
"40 534 CURVE SMOOTH",
"40 551 OFFCURVE",
"53 563 OFFCURVE",
"73 563 CURVE SMOOTH",
"106 563 OFFCURVE",
"120 538 OFFCURVE",
"188 538 CURVE",
"188 548 LINE SMOOTH",
"188 611 OFFCURVE",
"160 635 OFFCURVE",
"160 666 CURVE SMOOTH",
"160 691 OFFCURVE",
"173 706 OFFCURVE",
"195 706 CURVE SMOOTH",
"218 706 OFFCURVE",
"232 691 OFFCURVE",
"232 666 CURVE SMOOTH",
"232 638 OFFCURVE",
"205 610 OFFCURVE",
"205 548 CURVE SMOOTH",
"205 538 LINE",
"273 538 OFFCURVE",
"287 563 OFFCURVE",
"320 563 CURVE SMOOTH",
"340 563 OFFCURVE",
"353 551 OFFCURVE",
"353 534 CURVE SMOOTH",
"353 516 OFFCURVE",
"340 503 OFFCURVE",
"320 503 CURVE SMOOTH",
"287 503 OFFCURVE",
"273 525 OFFCURVE",
"205 525 CURVE",
"210 438 OFFCURVE",
"218 371 OFFCURVE",
"232 315 CURVE",
"215 210 OFFCURVE",
"206 90 OFFCURVE",
"201 -136 CURVE",
"191 -136 LINE"
);
}
);
width = 393;
}
);
unicode = 2020;
},
{
glyphname = daggerdbl;
layers = (
{
layerId = master01;
paths = (
{
closed = 1;
nodes = (
"183 338 OFFCURVE",
"192 409 OFFCURVE",
"200 525 CURVE",
"133 525 OFFCURVE",
"116 503 OFFCURVE",
"87 503 CURVE SMOOTH",
"65 503 OFFCURVE",
"52 515 OFFCURVE",
"52 534 CURVE SMOOTH",
"52 552 OFFCURVE",
"65 563 OFFCURVE",
"86 563 CURVE SMOOTH",
"117 563 OFFCURVE",
"132 538 OFFCURVE",
"200 538 CURVE",
"200 548 LINE SMOOTH",
"200 612 OFFCURVE",
"172 633 OFFCURVE",
"172 667 CURVE SMOOTH",
"172 691 OFFCURVE",
"186 706 OFFCURVE",
"207 706 CURVE SMOOTH",
"229 706 OFFCURVE",
"244 691 OFFCURVE",
"244 667 CURVE SMOOTH",
"244 636 OFFCURVE",
"217 611 OFFCURVE",
"217 548 CURVE SMOOTH",
"217 538 LINE",
"285 538 OFFCURVE",
"300 563 OFFCURVE",
"331 563 CURVE SMOOTH",
"352 563 OFFCURVE",
"365 552 OFFCURVE",
"365 534 CURVE SMOOTH",
"365 515 OFFCURVE",
"352 503 OFFCURVE",
"330 503 CURVE SMOOTH",
"301 503 OFFCURVE",
"284 525 OFFCURVE",
"217 525 CURVE",
"222 421 OFFCURVE",
"230 347 OFFCURVE",
"244 285 CURVE",
"230 222 OFFCURVE",
"222 148 OFFCURVE",
"217 45 CURVE",
"284 45 OFFCURVE",
"301 67 OFFCURVE",
"330 67 CURVE SMOOTH",
"352 67 OFFCURVE",
"365 55 OFFCURVE",
"365 36 CURVE SMOOTH",
"365 18 OFFCURVE",
"352 7 OFFCURVE",
"331 7 CURVE SMOOTH",
"300 7 OFFCURVE",
"285 32 OFFCURVE",
"217 32 CURVE",
"217 22 LINE SMOOTH",
"217 -41 OFFCURVE",
"244 -66 OFFCURVE",
"244 -97 CURVE SMOOTH",
"244 -121 OFFCURVE",
"229 -136 OFFCURVE",
"207 -136 CURVE SMOOTH",
"186 -136 OFFCURVE",
"172 -121 OFFCURVE",
"172 -97 CURVE SMOOTH",
"172 -63 OFFCURVE",
"200 -42 OFFCURVE",
"200 22 CURVE SMOOTH",
"200 32 LINE",
"132 32 OFFCURVE",
"117 7 OFFCURVE",
"86 7 CURVE SMOOTH",
"65 7 OFFCURVE",
"52 18 OFFCURVE",
"52 36 CURVE SMOOTH",
"52 55 OFFCURVE",
"65 67 OFFCURVE",
"87 67 CURVE SMOOTH",
"116 67 OFFCURVE",
"133 45 OFFCURVE",
"200 45 CURVE",
"192 160 OFFCURVE",
"183 232 OFFCURVE",
"172 285 CURVE"
);
}
);
width = 417;
}
);
unicode = 2021;
},
{
glyphname = bullet;
layers = (
{
layerId = master01;
paths = (
{
closed = 1;
nodes = (
"92 326 OFFCURVE",
"119 296 OFFCURVE",
"159 296 CURVE SMOOTH",
"199 296 OFFCURVE",
"225 326 OFFCURVE",
"225 363 CURVE SMOOTH",
"225 401 OFFCURVE",
"199 429 OFFCURVE",
"159 429 CURVE SMOOTH",
"119 429 OFFCURVE",
"92 401 OFFCURVE",
"92 363 CURVE SMOOTH"
);
}
);
width = 317;
}
);
unicode = 2022;
},
{
glyphname = ellipsis;
layers = (
{
layerId = master01;
paths = (
{
closed = 1;
nodes = (
"64 19 OFFCURVE",
"85 -4 OFFCURVE",
"116 -4 CURVE SMOOTH",
"147 -4 OFFCURVE",
"167 19 OFFCURVE",
"167 48 CURVE SMOOTH",
"167 77 OFFCURVE",
"147 99 OFFCURVE",
"116 99 CURVE SMOOTH",
"85 99 OFFCURVE",
"64 77 OFFCURVE",
"64 48 CURVE SMOOTH"
);
},
{
closed = 1;
nodes = (
"277 19 OFFCURVE",
"298 -4 OFFCURVE",
"329 -4 CURVE SMOOTH",
"360 -4 OFFCURVE",
"380 19 OFFCURVE",
"380 48 CURVE SMOOTH",
"380 77 OFFCURVE",
"360 99 OFFCURVE",
"329 99 CURVE SMOOTH",
"298 99 OFFCURVE",
"277 77 OFFCURVE",
"277 48 CURVE SMOOTH"
);
},
{
closed = 1;
nodes = (
"490 19 OFFCURVE",
"511 -4 OFFCURVE",
"542 -4 CURVE SMOOTH",
"573 -4 OFFCURVE",
"593 19 OFFCURVE",
"593 48 CURVE SMOOTH",
"593 77 OFFCURVE",
"573 99 OFFCURVE",
"542 99 CURVE SMOOTH",
"511 99 OFFCURVE",
"490 77 OFFCURVE",
"490 48 CURVE SMOOTH"
);
}
);
width = 657;
}
);
leftKerningGroup = period;
unicode = 2026;
},
{
glyphname = guilsinglleft;
layers = (
{
layerId = master01;
paths = (
{
closed = 1;
nodes = (
"49 207 LINE",
"49 212 LINE",
"196 390 LINE",
"199 388 LINE",
"112 210 LINE",
"202 30 LINE",
"198 27 LINE"
);
}
);
width = 255;
}
);
leftKerningGroup = guilsinglleft;
rightKerningGroup = guilsinglleft;
unicode = 2039;
},
{
glyphname = guilsinglright;
layers = (
{
layerId = master01;
paths = (
{
closed = 1;
nodes = (
"143 210 LINE",
"56 388 LINE",
"59 390 LINE",
"206 212 LINE",
"206 207 LINE",
"57 27 LINE",
"53 30 LINE"
);
}
);
width = 255;
}
);
leftKerningGroup = guilsinglright;
rightKerningGroup = guilsinglright;
unicode = 203A;
},
{
glyphname = fraction;
layers = (
{
layerId = master01;
paths = (
{
closed = 1;
nodes = (
"-116 -2 LINE",
"-141 -2 LINE",
"216 690 LINE",
"241 690 LINE"
);
}
);
width = 100;
}
);
unicode = 2044;
},
{
glyphname = zerosuperior;
layers = (
{
layerId = master01;
paths = (
{
closed = 1;
nodes = (
"220 854 OFFCURVE",
"273 782 OFFCURVE",
"273 692 CURVE SMOOTH",
"273 602 OFFCURVE",
"220 530 OFFCURVE",
"153 530 CURVE SMOOTH",
"86 530 OFFCURVE",
"33 602 OFFCURVE",
"33 692 CURVE SMOOTH",
"33 782 OFFCURVE",
"86 854 OFFCURVE",
"153 854 CURVE SMOOTH"
);
},
{
closed = 1;
nodes = (
"96 589 OFFCURVE",
"115 540 OFFCURVE",
"153 540 CURVE SMOOTH",
"191 540 OFFCURVE",
"210 589 OFFCURVE",
"210 692 CURVE SMOOTH",
"210 795 OFFCURVE",
"191 844 OFFCURVE",
"153 844 CURVE SMOOTH",
"115 844 OFFCURVE",
"96 795 OFFCURVE",
"96 692 CURVE SMOOTH"
);
}
);
width = 306;
}
);
unicode = 2070;
},
{
glyphname = foursuperior;
layers = (
{
layerId = master01;
paths = (
{
closed = 1;
nodes = (
"103 544 LINE",
"103 536 LINE",
"240 536 LINE",
"240 544 LINE",
"201 548 LINE",
"201 609 LINE",
"240 609 LINE",
"240 647 LINE",
"201 647 LINE",
"201 857 LINE",
"192 858 LINE",
"13 612 LINE",
"14 609 LINE",
"149 609 LINE",
"149 548 LINE"
);
},
{
closed = 1;
nodes = (
"51 646 LINE",
"50 649 LINE",
"145 780 LINE",
"149 780 LINE",
"149 646 LINE"
);
}
);
width = 272;
}
);
unicode = 2074;
},
{
glyphname = fivesuperior;
layers = (
{
layerId = master01;
paths = (
{
closed = 1;
nodes = (
"200 799 LINE",
"216 862 LINE",
"212 864 LINE",
"209 858 OFFCURVE",
"205 852 OFFCURVE",
"202 848 CURVE",
"75 848 LINE",
"51 685 LINE",
"55 684 LINE",
"69 695 OFFCURVE",
"83 700 OFFCURVE",
"100 700 CURVE SMOOTH",
"141 700 OFFCURVE",
"162 671 OFFCURVE",
"162 623 CURVE SMOOTH",
"162 574 OFFCURVE",
"144 540 OFFCURVE",
"112 540 CURVE SMOOTH",
"59 540 OFFCURVE",
"82 607 OFFCURVE",
"44 607 CURVE SMOOTH",
"32 607 OFFCURVE",
"24 599 OFFCURVE",
"24 586 CURVE SMOOTH",
"24 555 OFFCURVE",
"61 530 OFFCURVE",
"105 530 CURVE SMOOTH",
"171 530 OFFCURVE",
"221 580 OFFCURVE",
"221 643 CURVE SMOOTH",
"221 702 OFFCURVE",
"177 741 OFFCURVE",
"111 741 CURVE SMOOTH",
"98 741 OFFCURVE",
"87 741 OFFCURVE",
"68 735 CURVE",
"77 799 LINE"
);
}
);
width = 254;
}
);
unicode = 2075;
},
{
glyphname = sixsuperior;
layers = (
{
layerId = master01;
paths = (
{
closed = 1;
nodes = (
"197 530 OFFCURVE",
"240 573 OFFCURVE",
"240 635 CURVE SMOOTH",
"240 693 OFFCURVE",
"204 732 OFFCURVE",
"148 732 CURVE SMOOTH",
"128 732 OFFCURVE",
"111 724 OFFCURVE",
"99 710 CURVE",
"105 773 OFFCURVE",
"134 813 OFFCURVE",
"195 852 CURVE",
"192 858 LINE",
"95 822 OFFCURVE",
"32 742 OFFCURVE",
"32 646 CURVE SMOOTH",
"32 575 OFFCURVE",
"72 530 OFFCURVE",
"135 530 CURVE SMOOTH"
);
},
{
closed = 1;
nodes = (
"111 540 OFFCURVE",
"93 580 OFFCURVE",
"93 635 CURVE SMOOTH",
"93 654 OFFCURVE",
"93 679 OFFCURVE",
"98 695 CURVE",
"107 709 OFFCURVE",
"119 716 OFFCURVE",
"132 716 CURVE SMOOTH",
"162 716 OFFCURVE",
"178 684 OFFCURVE",
"178 626 CURVE SMOOTH",
"178 575 OFFCURVE",
"163 540 OFFCURVE",
"138 540 CURVE SMOOTH"
);
}
);
width = 266;
}
);
unicode = 2076;
},
{
glyphname = sevensuperior;
layers = (
{
layerId = master01;
paths = (
{
closed = 1;
nodes = (
"57 852 OFFCURVE",
"57 857 OFFCURVE",
"57 861 CURVE",
"53 862 LINE",
"23 772 LINE",
"28 770 LINE",
"32 782 OFFCURVE",
"36 790 OFFCURVE",
"44 801 CURVE",
"171 801 LINE",
"51 570 LINE SMOOTH",
"49 566 OFFCURVE",
"48 561 OFFCURVE",
"48 557 CURVE SMOOTH",
"48 543 OFFCURVE",
"56 530 OFFCURVE",
"74 530 CURVE SMOOTH",
"87 530 OFFCURVE",
"101 540 OFFCURVE",
"106 557 CURVE SMOOTH",
"149 702 OFFCURVE",
"159 731 OFFCURVE",
"205 845 CURVE",
"202 848 LINE",
"58 848 LINE"
);
}
);
width = 218;
}
);
unicode = 2077;
},
{
glyphname = eightsuperior;
layers = (
{
layerId = master01;
paths = (
{
closed = 1;
nodes = (
"199 733 OFFCURVE",
"224 763 OFFCURVE",
"224 790 CURVE SMOOTH",
"224 827 OFFCURVE",
"188 854 OFFCURVE",
"138 854 CURVE SMOOTH",
"84 854 OFFCURVE",
"44 821 OFFCURVE",
"44 777 CURVE SMOOTH",
"44 740 OFFCURVE",
"66 717 OFFCURVE",
"110 692 CURVE",
"62 675 OFFCURVE",
"33 643 OFFCURVE",
"33 611 CURVE SMOOTH",
"33 566 OFFCURVE",
"77 530 OFFCURVE",
"134 530 CURVE SMOOTH",
"194 530 OFFCURVE",
"241 570 OFFCURVE",
"241 622 CURVE SMOOTH",
"241 663 OFFCURVE",
"215 688 OFFCURVE",
"162 720 CURVE"
);
},
{
closed = 1;
nodes = (
"114 742 OFFCURVE",
"98 767 OFFCURVE",
"98 796 CURVE SMOOTH",
"98 823 OFFCURVE",
"113 844 OFFCURVE",
"136 844 CURVE SMOOTH",
"160 844 OFFCURVE",
"175 821 OFFCURVE",
"175 789 CURVE SMOOTH",
"175 763 OFFCURVE",
"167 738 OFFCURVE",
"154 725 CURVE"
);
},
{
closed = 1;
nodes = (
"163 663 OFFCURVE",
"182 634 OFFCURVE",
"182 600 CURVE SMOOTH",
"182 566 OFFCURVE",
"164 540 OFFCURVE",
"137 540 CURVE SMOOTH",
"109 540 OFFCURVE",
"93 569 OFFCURVE",
"93 613 CURVE SMOOTH",
"93 647 OFFCURVE",
"102 675 OFFCURVE",
"118 687 CURVE"
);
}
);
width = 273;
}
);
unicode = 2078;
},
{
glyphname = ninesuperior;
layers = (
{
layerId = master01;
paths = (
{
closed = 1;
nodes = (
"69 854 OFFCURVE",
"26 811 OFFCURVE",
"26 749 CURVE SMOOTH",
"26 691 OFFCURVE",
"62 652 OFFCURVE",
"118 652 CURVE SMOOTH",
"138 652 OFFCURVE",
"155 660 OFFCURVE",
"167 674 CURVE",
"161 611 OFFCURVE",
"132 571 OFFCURVE",
"71 532 CURVE",
"74 526 LINE",
"171 562 OFFCURVE",
"234 642 OFFCURVE",
"234 738 CURVE SMOOTH",
"234 809 OFFCURVE",
"194 854 OFFCURVE",
"131 854 CURVE"
);
},
{
closed = 1;
nodes = (
"155 844 OFFCURVE",
"173 804 OFFCURVE",
"173 749 CURVE SMOOTH",
"173 730 OFFCURVE",
"173 705 OFFCURVE",
"168 689 CURVE",
"159 675 OFFCURVE",
"147 668 OFFCURVE",
"134 668 CURVE SMOOTH",
"104 668 OFFCURVE",
"88 700 OFFCURVE",
"88 758 CURVE SMOOTH",
"88 809 OFFCURVE",
"103 844 OFFCURVE",
"128 844 CURVE"
);
}
);
width = 266;
}
);
unicode = 2079;
},
{
glyphname = zeroinferior;
layers = (
{
layerId = master01;
paths = (
{
closed = 1;
nodes = (
"221 192 OFFCURVE",
"274 120 OFFCURVE",
"274 30 CURVE SMOOTH",
"274 -60 OFFCURVE",
"221 -132 OFFCURVE",
"154 -132 CURVE SMOOTH",
"87 -132 OFFCURVE",
"34 -60 OFFCURVE",
"34 30 CURVE SMOOTH",
"34 120 OFFCURVE",
"87 192 OFFCURVE",
"154 192 CURVE SMOOTH"
);
},
{
closed = 1;
nodes = (
"97 -73 OFFCURVE",
"116 -122 OFFCURVE",
"154 -122 CURVE SMOOTH",
"192 -122 OFFCURVE",
"211 -73 OFFCURVE",
"211 30 CURVE SMOOTH",
"211 133 OFFCURVE",
"192 182 OFFCURVE",
"154 182 CURVE SMOOTH",
"116 182 OFFCURVE",
"97 133 OFFCURVE",
"97 30 CURVE SMOOTH"
);
}
);
width = 308;
}
);
unicode = 2080;
},
{
glyphname = oneinferior;
layers = (
{
layerId = master01;
paths = (
{
closed = 1;
nodes = (
"29 145 LINE",
"29 150 LINE",
"77 155 OFFCURVE",
"99 168 OFFCURVE",
"122 197 CURVE",
"127 196 LINE",
"127 -113 LINE",
"168 -117 LINE",
"168 -125 LINE",
"29 -125 LINE",
"29 -117 LINE",
"75 -113 LINE",
"75 145 LINE"
);
}
);
width = 191;
}
);
unicode = 2081;
},
{
glyphname = twoinferior;
layers = (
{
layerId = master01;
paths = (
{
closed = 1;
nodes = (
"233 -29 LINE",
"226 -28 LINE",
"219 -56 LINE SMOOTH",
"215 -72 OFFCURVE",
"209 -76 OFFCURVE",
"190 -76 CURVE SMOOTH",
"86 -76 LINE",
"125 -37 LINE SMOOTH",
"209 47 OFFCURVE",
"225 70 OFFCURVE",
"225 105 CURVE SMOOTH",
"225 154 OFFCURVE",
"183 192 OFFCURVE",
"128 192 CURVE SMOOTH",
"84 192 OFFCURVE",
"50 169 OFFCURVE",
"33 127 CURVE",
"41 123 LINE",
"55 152 OFFCURVE",
"78 167 OFFCURVE",
"105 167 CURVE SMOOTH",
"142 167 OFFCURVE",
"163 141 OFFCURVE",
"163 95 CURVE SMOOTH",
"163 40 OFFCURVE",
"133 -15 OFFCURVE",
"71 -76 CURVE SMOOTH",
"24 -122 LINE",
"25 -126 LINE",
"221 -126 LINE"
);
}
);
width = 267;
}
);
unicode = 2082;
},
{
glyphname = threeinferior;
layers = (
{
layerId = master01;
paths = (
{
closed = 1;
nodes = (
"91 30 OFFCURVE",
"102 32 OFFCURVE",
"110 32 CURVE SMOOTH",
"141 32 OFFCURVE",
"163 -1 OFFCURVE",
"163 -50 CURVE SMOOTH",
"163 -97 OFFCURVE",
"144 -123 OFFCURVE",
"108 -123 CURVE SMOOTH",
"91 -123 OFFCURVE",
"86 -117 OFFCURVE",
"77 -91 CURVE SMOOTH",
"64 -61 OFFCURVE",
"60 -55 OFFCURVE",
"48 -55 CURVE SMOOTH",
"36 -55 OFFCURVE",
"28 -63 OFFCURVE",
"28 -77 CURVE SMOOTH",
"28 -108 OFFCURVE",
"65 -133 OFFCURVE",
"111 -133 CURVE SMOOTH",
"174 -133 OFFCURVE",
"224 -88 OFFCURVE",
"224 -33 CURVE SMOOTH",
"224 14 OFFCURVE",
"188 51 OFFCURVE",
"140 52 CURVE",
"140 56 LINE",
"178 70 OFFCURVE",
"203 102 OFFCURVE",
"203 134 CURVE SMOOTH",
"203 168 OFFCURVE",
"177 192 OFFCURVE",
"142 192 CURVE SMOOTH",
"93 192 OFFCURVE",
"58 168 OFFCURVE",
"40 122 CURVE",
"48 118 LINE",
"62 150 OFFCURVE",
"82 167 OFFCURVE",
"107 167 CURVE SMOOTH",
"133 167 OFFCURVE",
"148 149 OFFCURVE",
"148 120 CURVE SMOOTH",
"148 83 OFFCURVE",
"125 54 OFFCURVE",
"80 36 CURVE",
"84 28 LINE"
);
}
);
width = 256;
}
);
unicode = 2083;
},
{
glyphname = fourinferior;
layers = (
{
layerId = master01;
paths = (
{
closed = 1;
nodes = (
"101 -117 LINE",
"101 -125 LINE",
"238 -125 LINE",
"238 -117 LINE",
"199 -113 LINE",
"199 -52 LINE",
"238 -52 LINE",
"238 -14 LINE",
"199 -14 LINE",
"199 196 LINE",
"190 197 LINE",
"11 -49 LINE",
"12 -52 LINE",
"147 -52 LINE",
"147 -113 LINE"
);
},
{
closed = 1;
nodes = (
"49 -15 LINE",
"48 -12 LINE",
"143 119 LINE",
"147 119 LINE",
"147 -15 LINE"
);
}
);
width = 269;
}
);
unicode = 2084;
},
{
glyphname = fiveinferior;
layers = (
{
layerId = master01;
paths = (
{
closed = 1;
nodes = (
"200 137 LINE",
"216 200 LINE",
"212 202 LINE",
"209 196 OFFCURVE",
"205 190 OFFCURVE",
"202 186 CURVE",
"75 186 LINE",
"51 23 LINE",
"55 22 LINE",
"69 33 OFFCURVE",
"83 38 OFFCURVE",
"100 38 CURVE SMOOTH",
"141 38 OFFCURVE",
"162 9 OFFCURVE",
"162 -39 CURVE SMOOTH",
"162 -88 OFFCURVE",
"144 -122 OFFCURVE",
"112 -122 CURVE SMOOTH",
"59 -122 OFFCURVE",
"82 -55 OFFCURVE",
"44 -55 CURVE SMOOTH",
"32 -55 OFFCURVE",
"24 -63 OFFCURVE",
"24 -76 CURVE SMOOTH",
"24 -107 OFFCURVE",
"61 -132 OFFCURVE",
"105 -132 CURVE SMOOTH",
"171 -132 OFFCURVE",
"221 -82 OFFCURVE",
"221 -19 CURVE SMOOTH",
"221 40 OFFCURVE",
"177 79 OFFCURVE",
"111 79 CURVE SMOOTH",
"98 79 OFFCURVE",
"87 79 OFFCURVE",
"68 73 CURVE",
"77 137 LINE"
);
}
);
width = 254;
}
);
unicode = 2085;
},
{
glyphname = sixinferior;
layers = (
{
layerId = master01;
paths = (
{
closed = 1;
nodes = (
"197 -132 OFFCURVE",
"240 -89 OFFCURVE",
"240 -27 CURVE SMOOTH",
"240 31 OFFCURVE",
"204 70 OFFCURVE",
"148 70 CURVE SMOOTH",
"128 70 OFFCURVE",
"111 62 OFFCURVE",
"99 48 CURVE",
"105 111 OFFCURVE",
"134 151 OFFCURVE",
"195 190 CURVE",
"192 196 LINE",
"95 160 OFFCURVE",
"32 80 OFFCURVE",
"32 -16 CURVE SMOOTH",
"32 -87 OFFCURVE",
"72 -132 OFFCURVE",
"135 -132 CURVE SMOOTH"
);
},
{
closed = 1;
nodes = (
"111 -122 OFFCURVE",
"93 -82 OFFCURVE",
"93 -27 CURVE SMOOTH",
"93 -8 OFFCURVE",
"93 17 OFFCURVE",
"98 33 CURVE",
"107 47 OFFCURVE",
"119 54 OFFCURVE",
"132 54 CURVE SMOOTH",
"162 54 OFFCURVE",
"178 22 OFFCURVE",
"178 -36 CURVE SMOOTH",
"178 -87 OFFCURVE",
"163 -122 OFFCURVE",
"138 -122 CURVE SMOOTH"
);
}
);
width = 266;
}
);
unicode = 2086;
},
{
glyphname = seveninferior;
layers = (
{
layerId = master01;
paths = (
{
closed = 1;
nodes = (
"57 190 OFFCURVE",
"57 195 OFFCURVE",
"57 199 CURVE",
"53 200 LINE",
"23 110 LINE",
"28 108 LINE",
"32 120 OFFCURVE",
"36 128 OFFCURVE",
"44 139 CURVE",
"171 139 LINE",
"51 -92 LINE SMOOTH",
"49 -96 OFFCURVE",
"48 -101 OFFCURVE",
"48 -105 CURVE SMOOTH",
"48 -119 OFFCURVE",
"56 -132 OFFCURVE",
"74 -132 CURVE SMOOTH",
"87 -132 OFFCURVE",
"101 -122 OFFCURVE",
"106 -105 CURVE SMOOTH",
"149 40 OFFCURVE",
"159 69 OFFCURVE",
"205 183 CURVE",
"202 186 LINE",
"58 186 LINE"
);
}
);
width = 218;
}
);
unicode = 2087;
},
{
glyphname = eightinferior;
layers = (
{
layerId = master01;
paths = (
{
closed = 1;
nodes = (
"199 71 OFFCURVE",
"224 101 OFFCURVE",
"224 128 CURVE SMOOTH",
"224 165 OFFCURVE",
"188 192 OFFCURVE",
"138 192 CURVE SMOOTH",
"84 192 OFFCURVE",
"44 159 OFFCURVE",
"44 115 CURVE SMOOTH",
"44 78 OFFCURVE",
"66 55 OFFCURVE",
"110 30 CURVE",
"62 13 OFFCURVE",
"33 -19 OFFCURVE",
"33 -51 CURVE SMOOTH",
"33 -96 OFFCURVE",
"77 -132 OFFCURVE",
"134 -132 CURVE SMOOTH",
"194 -132 OFFCURVE",
"241 -92 OFFCURVE",
"241 -40 CURVE SMOOTH",
"241 1 OFFCURVE",
"215 26 OFFCURVE",
"162 58 CURVE"
);
},
{
closed = 1;
nodes = (
"114 80 OFFCURVE",
"98 105 OFFCURVE",
"98 134 CURVE SMOOTH",
"98 161 OFFCURVE",
"113 182 OFFCURVE",
"136 182 CURVE SMOOTH",
"160 182 OFFCURVE",
"175 159 OFFCURVE",
"175 127 CURVE SMOOTH",
"175 101 OFFCURVE",
"167 76 OFFCURVE",
"154 63 CURVE"
);
},
{
closed = 1;
nodes = (
"163 1 OFFCURVE",
"182 -28 OFFCURVE",
"182 -62 CURVE SMOOTH",
"182 -96 OFFCURVE",
"164 -122 OFFCURVE",
"137 -122 CURVE SMOOTH",
"109 -122 OFFCURVE",
"93 -93 OFFCURVE",
"93 -49 CURVE SMOOTH",
"93 -15 OFFCURVE",
"102 13 OFFCURVE",
"118 25 CURVE"
);
}
);
width = 274;
}
);
unicode = 2088;
},
{
glyphname = nineinferior;
layers = (
{
layerId = master01;
paths = (
{
closed = 1;
nodes = (
"69 192 OFFCURVE",
"26 149 OFFCURVE",
"26 87 CURVE SMOOTH",
"26 29 OFFCURVE",
"62 -10 OFFCURVE",
"118 -10 CURVE SMOOTH",
"138 -10 OFFCURVE",
"155 -2 OFFCURVE",
"167 12 CURVE",
"161 -51 OFFCURVE",
"132 -91 OFFCURVE",
"71 -130 CURVE",
"74 -136 LINE",
"171 -100 OFFCURVE",
"234 -20 OFFCURVE",
"234 76 CURVE SMOOTH",
"234 147 OFFCURVE",
"194 192 OFFCURVE",
"131 192 CURVE"
);
},
{
closed = 1;
nodes = (
"155 182 OFFCURVE",
"173 142 OFFCURVE",
"173 87 CURVE SMOOTH",
"173 68 OFFCURVE",
"173 43 OFFCURVE",
"168 27 CURVE",
"159 13 OFFCURVE",
"147 6 OFFCURVE",
"134 6 CURVE SMOOTH",
"104 6 OFFCURVE",
"88 38 OFFCURVE",
"88 96 CURVE SMOOTH",
"88 147 OFFCURVE",
"103 182 OFFCURVE",
"128 182 CURVE"
);
}
);
width = 266;
}
);
unicode = 2089;
},
{
glyphname = colonmonetary;
layers = (
{
layerId = master01;
paths = (
{
closed = 1;
nodes = (
"331 434 OFFCURVE",
"390 396 OFFCURVE",
"390 347 CURVE SMOOTH",
"390 324 OFFCURVE",
"376 309 OFFCURVE",
"353 309 CURVE SMOOTH",
"289 309 OFFCURVE",
"337 424 OFFCURVE",
"253 424 CURVE SMOOTH",
"180 424 OFFCURVE",
"126 339 OFFCURVE",
"126 222 CURVE SMOOTH",
"126 106 OFFCURVE",
"178 39 OFFCURVE",
"268 39 CURVE SMOOTH",
"318 39 OFFCURVE",
"356 59 OFFCURVE",
"389 102 CURVE SMOOTH",
"398 114 LINE",
"402 112 LINE",
"398 101 LINE SMOOTH",
"372 31 OFFCURVE",
"315 -10 OFFCURVE",
"242 -10 CURVE SMOOTH",
"135 -10 OFFCURVE",
"59 80 OFFCURVE",
"59 207 CURVE SMOOTH",
"59 339 OFFCURVE",
"141 434 OFFCURVE",
"257 434 CURVE SMOOTH {name = hr00;}"
);
},
{
closed = 1;
nodes = (
"129 -80 LINE",
"108 -80 LINE",
"237 530 LINE",
"258 530 LINE"
);
},
{
closed = 1;
nodes = (
"209 -80 LINE",
"188 -80 LINE",
"317 530 LINE",
"338 530 LINE"
);
}
);
width = 460;
}
);
unicode = 20A1;
},
{
glyphname = franc;
layers = (
{
layerId = master01;
paths = (
{
closed = 1;
nodes = (
"214 16 LINE",
"312 8 LINE",
"312 0 LINE",
"55 0 LINE",
"55 8 LINE",
"137 16 LINE",
"137 674 LINE",
"55 682 LINE",
"55 690 LINE",
"523 690 LINE",
"539 491 LINE",
"531 490 LINE",
"471 641 LINE SMOOTH",
"459 671 OFFCURVE",
"449 678 OFFCURVE",
"417 678 CURVE SMOOTH",
"214 678 LINE"
);
},
{
closed = 1;
nodes = (
"391 371 OFFCURVE",
"401 379 OFFCURVE",
"407 410 CURVE SMOOTH",
"424 491 LINE",
"436 491 LINE",
"436 235 LINE",
"424 235 LINE",
"407 316 LINE SMOOTH",
"401 347 OFFCURVE",
"391 355 OFFCURVE",
"359 355 CURVE SMOOTH",
"202 355 LINE",
"202 371 LINE",
"359 371 LINE SMOOTH"
);
},
{
closed = 1;
nodes = (
"328 185 LINE",
"321 163 LINE",
"51 163 LINE",
"58 185 LINE"
);
}
);
width = 575;
}
);
unicode = 20A3;
},
{
glyphname = lira;
layers = (
{
layerId = master01;
paths = (
{
closed = 1;
nodes = (
"394 693 OFFCURVE",
"382 658 OFFCURVE",
"329 392 CURVE SMOOTH",
"290 199 OFFCURVE",
"288 193 OFFCURVE",
"242 95 CURVE",
"299 68 OFFCURVE",
"357 53 OFFCURVE",
"408 53 CURVE SMOOTH",
"486 53 OFFCURVE",
"536 87 OFFCURVE",
"548 148 CURVE",
"553 148 LINE",
"553 54 OFFCURVE",
"499 -8 OFFCURVE",
"415 -8 CURVE SMOOTH",
"354 -8 OFFCURVE",
"287 24 OFFCURVE",
"233 80 CURVE",
"188 14 OFFCURVE",
"155 -9 OFFCURVE",
"109 -9 CURVE SMOOTH",
"62 -9 OFFCURVE",
"32 16 OFFCURVE",
"32 55 CURVE SMOOTH",
"32 101 OFFCURVE",
"73 134 OFFCURVE",
"130 134 CURVE SMOOTH",
"146 134 OFFCURVE",
"164 132 OFFCURVE",
"188 126 CURVE",
"206 202 OFFCURVE",
"207 209 OFFCURVE",
"252 440 CURVE SMOOTH",
"286 616 OFFCURVE",
"350 706 OFFCURVE",
"441 706 CURVE SMOOTH",
"506 706 OFFCURVE",
"568 661 OFFCURVE",
"568 615 CURVE SMOOTH",
"568 592 OFFCURVE",
"553 577 OFFCURVE",
"532 577 CURVE SMOOTH",
"473 577 OFFCURVE",
"503 693 OFFCURVE",
"435 693 CURVE SMOOTH"
);
},
{
closed = 1;
nodes = (
"167 119 OFFCURVE",
"148 122 OFFCURVE",
"132 122 CURVE SMOOTH",
"82 122 OFFCURVE",
"46 94 OFFCURVE",
"46 55 CURVE SMOOTH",
"46 23 OFFCURVE",
"68 3 OFFCURVE",
"103 3 CURVE SMOOTH",
"143 3 OFFCURVE",
"165 32 OFFCURVE",
"186 113 CURVE"
);
},
{
closed = 1;
nodes = (
"148 398 LINE",
"510 398 LINE",
"505 376 LINE",
"143 376 LINE"
);
},
{
closed = 1;
nodes = (
"148 281 LINE",
"510 281 LINE",
"505 259 LINE",
"143 259 LINE"
);
}
);
width = 626;
}
);
unicode = 20A4;
},
{
glyphname = uni20A6;
layers = (
{
layerId = master01;
paths = (
{
closed = 1;
nodes = (
"70 690 LINE",
"219 690 LINE",
"613 138 LINE",
"633 138 LINE",
"633 -16 LINE",
"623 -16 LINE",
"174 621 LINE",
"165 621 LINE",
"160 635 LINE",
"150 649 LINE SMOOTH",
"132 675 OFFCURVE",
"119 682 OFFCURVE",
"87 682 CURVE SMOOTH",
"70 682 LINE"
);
},
{
closed = 1;
nodes = (
"617 629 LINE SMOOTH",
"617 661 OFFCURVE",
"611 672 OFFCURVE",
"587 674 CURVE SMOOTH",
"506 682 LINE",
"506 690 LINE",
"745 690 LINE",
"745 682 LINE",
"673 674 LINE SMOOTH",
"641 670 OFFCURVE",
"633 661 OFFCURVE",
"633 629 CURVE SMOOTH",
"633 68 LINE",
"617 68 LINE"
);
},
{
closed = 1;
nodes = (
"170 61 LINE SMOOTH",
"170 29 OFFCURVE",
"176 19 OFFCURVE",
"200 16 CURVE SMOOTH",
"271 8 LINE",
"271 0 LINE",
"52 0 LINE",
"52 8 LINE",
"124 16 LINE SMOOTH",
"148 19 OFFCURVE",
"154 29 OFFCURVE",
"154 61 CURVE SMOOTH",
"154 662 LINE",
"170 664 LINE"
);
},
{
closed = 1;
nodes = (
"72 445 LINE",
"720 445 LINE",
"715 423 LINE",
"67 423 LINE"
);
},
{
closed = 1;
nodes = (
"72 328 LINE",
"720 328 LINE",
"715 306 LINE",
"67 306 LINE"
);
}
);
width = 782;
}
);
unicode = 20A6;
},
{
glyphname = uni20A9;
layers = (
{
layerId = master01;
paths = (
{
closed = 1;
nodes = (
"372 -16 LINE",
"356 -16 LINE",
"113 674 LINE",
"31 682 LINE",
"31 690 LINE",
"281 690 LINE",
"281 682 LINE",
"194 674 LINE",
"391 112 LINE",
"395 112 LINE",
"533 565 LINE",
"549 565 LINE"
);
},
{
closed = 1;
nodes = (
"811 690 LINE",
"1024 690 LINE",
"1024 682 LINE",
"968 677 LINE SMOOTH",
"932 674 OFFCURVE",
"923 667 OFFCURVE",
"914 637 CURVE SMOOTH",
"715 -16 LINE",
"699 -16 LINE",
"456 674 LINE",
"374 682 LINE",
"374 690 LINE",
"624 690 LINE",
"624 682 LINE",
"537 674 LINE",
"734 112 LINE",
"738 112 LINE",
"898 637 LINE SMOOTH",
"900 644 OFFCURVE",
"901 650 OFFCURVE",
"901 656 CURVE SMOOTH",
"901 670 OFFCURVE",
"895 675 OFFCURVE",
"872 677 CURVE SMOOTH",
"811 682 LINE"
);
},
{
closed = 1;
nodes = (
"131 385 LINE",
"929 385 LINE",
"924 363 LINE",
"126 363 LINE"
);
},
{
closed = 1;
nodes = (
"131 268 LINE",
"929 268 LINE",
"924 246 LINE",
"126 246 LINE"
);
}
);
width = 1055;
}
);
unicode = 20A9;
},
{
glyphname = Euro;
layers = (
{
layerId = master01;
paths = (
{
closed = 1;
nodes = (
"417 420 LINE",
"56 420 LINE",
"51 398 LINE",
"412 398 LINE"
);
},
{
closed = 1;
nodes = (
"399 303 LINE",
"38 303 LINE",
"33 281 LINE",
"394 281 LINE"
);
},
{
closed = 1;
nodes = (
"400 694 OFFCURVE",
"420 674 OFFCURVE",
"439 607 CURVE SMOOTH",
"446 580 OFFCURVE",
"458 568 OFFCURVE",
"478 568 CURVE SMOOTH",
"500 568 OFFCURVE",
"516 584 OFFCURVE",
"516 607 CURVE SMOOTH",
"516 658 OFFCURVE",
"443 706 OFFCURVE",
"366 706 CURVE SMOOTH",
"222 706 OFFCURVE",
"110 549 OFFCURVE",
"110 346 CURVE SMOOTH",
"110 145 OFFCURVE",
"222 -16 OFFCURVE",
"363 -16 CURVE SMOOTH",
"439 -16 OFFCURVE",
"516 34 OFFCURVE",
"516 83 CURVE SMOOTH",
"516 106 OFFCURVE",
"500 122 OFFCURVE",
"478 122 CURVE SMOOTH",
"458 122 OFFCURVE",
"446 110 OFFCURVE",
"439 83 CURVE SMOOTH",
"420 18 OFFCURVE",
"398 -4 OFFCURVE",
"355 -4 CURVE SMOOTH",
"258 -4 OFFCURVE",
"206 118 OFFCURVE",
"206 344 CURVE SMOOTH",
"206 571 OFFCURVE",
"260 694 OFFCURVE",
"358 694 CURVE SMOOTH"
);
}
);
width = 575;
}
);
unicode = 20AC;
},
{
glyphname = uni20B9;
layers = (
{
layerId = master01;
paths = (
{
closed = 1;
nodes = (
"296 328 LINE",
"479 42 LINE SMOOTH",
"496 15 OFFCURVE",
"509 8 OFFCURVE",
"541 8 CURVE SMOOTH",
"555 8 LINE",
"555 0 LINE",
"452 0 LINE SMOOTH",
"420 0 OFFCURVE",
"408 7 OFFCURVE",
"391 34 CURVE SMOOTH",
"238 281 LINE SMOOTH",
"219 311 OFFCURVE",
"214 315 OFFCURVE",
"181 315 CURVE SMOOTH",
"86 315 LINE",
"86 328 LINE"
);
},
{
closed = 1;
nodes = (
"201 690 LINE SMOOTH",
"358 690 OFFCURVE",
"443 625 OFFCURVE",
"443 505 CURVE SMOOTH",
"443 385 OFFCURVE",
"357 318 OFFCURVE",
"201 318 CURVE SMOOTH",
"73 318 LINE",
"73 330 LINE",
"198 330 LINE SMOOTH",
"305 330 OFFCURVE",
"355 386 OFFCURVE",
"355 503 CURVE SMOOTH",
"355 621 OFFCURVE",
"304 678 OFFCURVE",
"198 678 CURVE SMOOTH",
"73 678 LINE",
"73 690 LINE"
);
},
{
closed = 1;
nodes = (
"72 690 LINE",
"513 690 LINE",
"508 668 LINE",
"67 668 LINE"
);
},
{
closed = 1;
nodes = (
"72 573 LINE",
"513 573 LINE",
"508 551 LINE",
"67 551 LINE"
);
}
);
width = 589;
}
);
unicode = 20B9;
},
{
glyphname = uni20BA;
layers = (
{
layerId = master01;
paths = (
{
closed = 1;
nodes = (
"313 682 LINE",
"313 690 LINE",
"72 690 LINE",
"72 682 LINE",
"154 674 LINE",
"154 16 LINE",
"72 8 LINE",
"72 0 LINE",
"231 0 LINE SMOOTH",
"311 0 OFFCURVE",
"391 42 OFFCURVE",
"449 113 CURVE SMOOTH",
"486 158 OFFCURVE",
"508 209 OFFCURVE",
"508 251 CURVE SMOOTH",
"508 285 OFFCURVE",
"493 306 OFFCURVE",
"467 306 CURVE SMOOTH",
"439 306 OFFCURVE",
"428 283 OFFCURVE",
"417 213 CURVE SMOOTH",
"396 79 OFFCURVE",
"336 16 OFFCURVE",
"231 16 CURVE",
"231 674 LINE"
);
},
{
closed = 1;
nodes = (
"55 351 LINE",
"67 334 LINE",
"347 537 LINE",
"335 553 LINE"
);
},
{
closed = 1;
nodes = (
"55 253 LINE",
"67 237 LINE",
"348 440 LINE",
"335 456 LINE"
);
}
);
width = 543;
}
);
unicode = 20BA;
},
{
glyphname = uni2113;
layers = (
{
layerId = master01;
paths = (
{
closed = 1;
nodes = (
"384 77 OFFCURVE",
"343 41 OFFCURVE",
"292 41 CURVE SMOOTH",
"230 41 OFFCURVE",
"192 80 OFFCURVE",
"192 217 CURVE SMOOTH",
"192 305 LINE",
"285 395 OFFCURVE",
"353 488 OFFCURVE",
"353 607 CURVE SMOOTH",
"353 677 OFFCURVE",
"323 743 OFFCURVE",
"257 743 CURVE SMOOTH",
"224 743 OFFCURVE",
"194 728 OFFCURVE",
"165 696 CURVE SMOOTH",
"119 644 OFFCURVE",
"108 588 OFFCURVE",
"108 421 CURVE SMOOTH",
"108 292 LINE",
"29 230 LINE",
"41 206 LINE",
"109 254 LINE",
"109 175 LINE SMOOTH",
"109 91 OFFCURVE",
"122 54 OFFCURVE",
"147 26 CURVE SMOOTH",
"170 0 OFFCURVE",
"205 -14 OFFCURVE",
"254 -14 CURVE SMOOTH",
"333 -14 OFFCURVE",
"390 26 OFFCURVE",
"433 102 CURVE",
"413 120 LINE {name = hr00;}"
);
},
{
closed = 1;
nodes = (
"192 646 OFFCURVE",
"205 711 OFFCURVE",
"247 711 CURVE SMOOTH",
"282 711 OFFCURVE",
"299 661 OFFCURVE",
"299 605 CURVE SMOOTH",
"299 511 OFFCURVE",
"253 420 OFFCURVE",
"192 351 CURVE",
"192 483 LINE SMOOTH"
);
}
);
width = 453;
}
);
unicode = 2113;
},
{
glyphname = afii61352;
layers = (
{
layerId = master01;
paths = (
{
closed = 1;
nodes = (
"53 690 LINE",
"202 690 LINE",
"596 138 LINE",
"616 138 LINE",
"616 -16 LINE",
"606 -16 LINE",
"157 621 LINE",
"148 621 LINE",
"143 635 LINE",
"133 649 LINE SMOOTH",
"115 675 OFFCURVE",
"102 682 OFFCURVE",
"70 682 CURVE SMOOTH",
"53 682 LINE {name = hr00;}"
);
},
{
closed = 1;
nodes = (
"600 629 LINE SMOOTH",
"600 661 OFFCURVE",
"594 672 OFFCURVE",
"570 674 CURVE SMOOTH",
"489 682 LINE",
"489 690 LINE",
"728 690 LINE",
"728 682 LINE",
"656 674 LINE SMOOTH",
"624 670 OFFCURVE",
"616 661 OFFCURVE",
"616 629 CURVE SMOOTH",
"616 68 LINE",
"600 68 LINE"
);
},
{
closed = 1;
nodes = (
"153 61 LINE SMOOTH",
"153 29 OFFCURVE",
"159 19 OFFCURVE",
"183 16 CURVE SMOOTH",
"254 8 LINE",
"254 0 LINE",
"35 0 LINE",
"35 8 LINE",
"107 16 LINE SMOOTH",
"131 19 OFFCURVE",
"137 29 OFFCURVE",
"137 61 CURVE SMOOTH",
"137 662 LINE",
"153 664 LINE"
);
},
{
closed = 1;
nodes = (
"759 657 OFFCURVE",
"792 696 OFFCURVE",
"842 696 CURVE SMOOTH",
"892 696 OFFCURVE",
"925 660 OFFCURVE",
"925 613 CURVE SMOOTH",
"925 566 OFFCURVE",
"892 530 OFFCURVE",
"842 530 CURVE SMOOTH",
"792 530 OFFCURVE",
"759 566 OFFCURVE",
"759 613 CURVE SMOOTH"
);
},
{
closed = 1;
nodes = (
"776 577 OFFCURVE",
"804 547 OFFCURVE",
"842 547 CURVE SMOOTH",
"879 547 OFFCURVE",
"907 577 OFFCURVE",
"907 613 CURVE SMOOTH",
"907 649 OFFCURVE",
"879 678 OFFCURVE",
"842 678 CURVE SMOOTH",
"804 678 OFFCURVE",
"776 649 OFFCURVE",
"776 613 CURVE SMOOTH"
);
},
{
closed = 1;
nodes = (
"922 484 LINE",
"922 468 LINE",
"763 468 LINE",
"763 484 LINE"
);
}
);
width = 965;
}
);
unicode = 2116;
},
{
glyphname = servicemark;
layers = (
{
layerId = master01;
paths = (
{
closed = 1;
nodes = (
"318 846 LINE",
"415 846 LINE",
"512 620 LINE",
"516 620 LINE",
"601 846 LINE",
"617 846 LINE",
"605 812 LINE",
"601 812 LINE",
"495 529 LINE",
"491 529 LINE",
"370 812 LINE",
"366 812 LINE",
"362 816 LINE",
"362 821 LINE",
"356 834 OFFCURVE",
"353 838 OFFCURVE",
"339 838 CURVE SMOOTH",
"318 838 LINE"
);
},
{
closed = 1;
nodes = (
"366 568 LINE SMOOTH",
"366 554 OFFCURVE",
"368 549 OFFCURVE",
"379 548 CURVE SMOOTH",
"411 544 LINE",
"411 536 LINE",
"308 536 LINE",
"308 544 LINE",
"341 548 LINE SMOOTH",
"352 549 OFFCURVE",
"355 554 OFFCURVE",
"355 568 CURVE SMOOTH",
"355 841 LINE",
"366 841 LINE"
);
},
{
closed = 1;
nodes = (
"695 838 LINE",
"664 834 LINE",
"664 548 LINE",
"703 544 LINE",
"703 536 LINE",
"568 536 LINE",
"568 544 LINE",
"605 548 LINE",
"605 829 LINE",
"608 846 LINE",
"699 846 LINE"
);
},
{
closed = 1;
nodes = (
"140 528 OFFCURVE",
"112 537 OFFCURVE",
"93 552 CURVE",
"84 528 LINE",
"78 528 LINE",
"72 635 LINE",
"78 636 LINE",
"87 598 OFFCURVE",
"94 581 OFFCURVE",
"110 564 CURVE SMOOTH",
"125 548 OFFCURVE",
"140 538 OFFCURVE",
"167 538 CURVE SMOOTH",
"207 538 OFFCURVE",
"228 560 OFFCURVE",
"228 594 CURVE SMOOTH",
"228 633 OFFCURVE",
"200 645 OFFCURVE",
"155 666 CURVE SMOOTH",
"114 685 OFFCURVE",
"75 710 OFFCURVE",
"75 764 CURVE SMOOTH",
"75 817 OFFCURVE",
"114 852 OFFCURVE",
"167 852 CURVE SMOOTH",
"191 852 OFFCURVE",
"211 845 OFFCURVE",
"236 825 CURVE",
"247 847 LINE",
"253 847 LINE",
"257 749 LINE",
"251 748 LINE",
"245 770 OFFCURVE",
"239 788 OFFCURVE",
"232 801 CURVE SMOOTH",
"217 829 OFFCURVE",
"193 842 OFFCURVE",
"167 842 CURVE SMOOTH",
"133 842 OFFCURVE",
"114 821 OFFCURVE",
"114 789 CURVE SMOOTH",
"114 752 OFFCURVE",
"139 739 OFFCURVE",
"186 717 CURVE SMOOTH",
"231 696 OFFCURVE",
"266 672 OFFCURVE",
"266 620 CURVE SMOOTH",
"266 564 OFFCURVE",
"225 528 OFFCURVE",
"168 528 CURVE SMOOTH"
);
}
);
width = 761;
}
);
unicode = 2120;
},
{
glyphname = trademark;
layers = (
{
layerId = master01;
paths = (
{
closed = 1;
nodes = (
"87 836 OFFCURVE",
"82 833 OFFCURVE",
"76 819 CURVE SMOOTH",
"48 755 LINE",
"45 756 LINE",
"62 853 LINE",
"68 853 LINE",
"77 848 OFFCURVE",
"85 846 OFFCURVE",
"100 846 CURVE SMOOTH",
"290 846 LINE SMOOTH",
"304 846 OFFCURVE",
"311 848 OFFCURVE",
"322 853 CURVE",
"327 853 LINE",
"337 756 LINE",
"334 755 LINE",
"308 819 LINE SMOOTH",
"302 833 OFFCURVE",
"298 836 OFFCURVE",
"283 836 CURVE SMOOTH",
"216 836 LINE",
"216 548 LINE",
"264 544 LINE",
"264 536 LINE",
"115 536 LINE",
"115 544 LINE",
"164 548 LINE",
"164 836 LINE",
"102 836 LINE SMOOTH"
);
},
{
closed = 1;
nodes = (
"358 846 LINE",
"455 846 LINE",
"552 620 LINE",
"556 620 LINE",
"641 846 LINE",
"657 846 LINE",
"645 812 LINE",
"641 812 LINE",
"535 529 LINE",
"531 529 LINE",
"410 812 LINE",
"406 812 LINE",
"402 816 LINE",
"402 821 LINE",
"396 834 OFFCURVE",
"393 838 OFFCURVE",
"379 838 CURVE SMOOTH",
"358 838 LINE"
);
},
{
closed = 1;
nodes = (
"406 568 LINE SMOOTH",
"406 554 OFFCURVE",
"408 549 OFFCURVE",
"419 548 CURVE SMOOTH",
"451 544 LINE",
"451 536 LINE",
"348 536 LINE",
"348 544 LINE",
"381 548 LINE SMOOTH",
"392 549 OFFCURVE",
"395 554 OFFCURVE",
"395 568 CURVE SMOOTH",
"395 841 LINE",
"406 841 LINE"
);
},
{
closed = 1;
nodes = (
"735 838 LINE",
"704 834 LINE",
"704 548 LINE",
"743 544 LINE",
"743 536 LINE",
"608 536 LINE",
"608 544 LINE",
"645 548 LINE",
"645 829 LINE",
"648 846 LINE",
"739 846 LINE"
);
}
);
width = 802;
}
);
unicode = 2122;
},
{
glyphname = Omega;
layers = (
{
layerId = master01;
paths = (
{
closed = 1;
nodes = (
"759 147 LINE",
"734 76 OFFCURVE",
"723 67 OFFCURVE",
"676 67 CURVE SMOOTH",
"552 67 LINE",
"635 143 OFFCURVE",
"739 248 OFFCURVE",
"739 390 CURVE SMOOTH",
"739 588 OFFCURVE",
"605 706 OFFCURVE",
"417 706 CURVE SMOOTH",
"234 706 OFFCURVE",
"91 579 OFFCURVE",
"91 381 CURVE SMOOTH",
"91 217 OFFCURVE",
"204 123 OFFCURVE",
"275 67 CURVE",
"156 67 LINE SMOOTH",
"111 67 OFFCURVE",
"95 80 OFFCURVE",
"71 147 CURVE",
"46 146 LINE",
"72 0 LINE",
"332 0 LINE",
"340 21 LINE",
"277 111 OFFCURVE",
"194 226 OFFCURVE",
"194 373 CURVE SMOOTH",
"194 592 OFFCURVE",
"293 675 OFFCURVE",
"415 675 CURVE SMOOTH",
"526 675 OFFCURVE",
"638 599 OFFCURVE",
"638 379 CURVE SMOOTH",
"638 224 OFFCURVE",
"537 96 OFFCURVE",
"489 21 CURVE",
"496 0 LINE",
"758 0 LINE",
"786 146 LINE {name = hr00;}"
);
}
);
width = 831;
}
);
unicode = 2126;
},
{
glyphname = estimated;
layers = (
{
layerId = master01;
paths = (
{
closed = 1;
nodes = (
"853 344 LINE SMOOTH",
"853 543 OFFCURVE",
"673 704 OFFCURVE",
"452 704 CURVE SMOOTH",
"231 704 OFFCURVE",
"52 543 OFFCURVE",
"52 344 CURVE SMOOTH",
"52 146 OFFCURVE",
"231 -15 OFFCURVE",
"452 -15 CURVE SMOOTH",
"581 -15 OFFCURVE",
"697 40 OFFCURVE",
"768 124 CURVE",
"711 124 LINE",
"648 52 OFFCURVE",
"556 9 OFFCURVE",
"453 9 CURVE SMOOTH",
"357 9 OFFCURVE",
"270 46 OFFCURVE",
"207 111 CURVE",
"202 118 OFFCURVE",
"199 125 OFFCURVE",
"199 134 CURVE SMOOTH",
"199 330 LINE SMOOTH",
"199 333 OFFCURVE",
"201 334 OFFCURVE",
"204 334 CURVE SMOOTH",
"853 334 LINE {name = hr00;}"
);
},
{
closed = 1;
nodes = (
"705 362 OFFCURVE",
"704 358 OFFCURVE",
"701 358 CURVE SMOOTH",
"204 358 LINE SMOOTH",
"201 358 OFFCURVE",
"199 362 OFFCURVE",
"199 364 CURVE SMOOTH",
"199 553 LINE SMOOTH",
"199 563 OFFCURVE",
"202 571 OFFCURVE",
"208 578 CURVE SMOOTH",
"271 642 OFFCURVE",
"358 679 OFFCURVE",
"453 679 CURVE SMOOTH",
"548 679 OFFCURVE",
"633 643 OFFCURVE",
"696 581 CURVE",
"702 574 OFFCURVE",
"705 566 OFFCURVE",
"705 557 CURVE SMOOTH",
"705 364 LINE SMOOTH"
);
}
);
width = 889;
}
);
unicode = 212E;
},
{
glyphname = partialdiff;
layers = (
{
layerId = master01;
paths = (
{
closed = 1;
nodes = (
"399 -14 OFFCURVE",
"514 159 OFFCURVE",
"514 392 CURVE SMOOTH",
"514 618 OFFCURVE",
"405 778 OFFCURVE",
"235 778 CURVE SMOOTH",
"162 778 OFFCURVE",
"77 749 OFFCURVE",
"77 716 CURVE SMOOTH",
"77 699 OFFCURVE",
"98 671 OFFCURVE",
"113 671 CURVE",
"162 712 OFFCURVE",
"218 734 OFFCURVE",
"263 734 CURVE SMOOTH",
"365 734 OFFCURVE",
"439 622 OFFCURVE",
"439 471 CURVE SMOOTH",
"439 428 OFFCURVE",
"433 398 OFFCURVE",
"431 362 CURVE",
"396 411 OFFCURVE",
"338 440 OFFCURVE",
"271 440 CURVE SMOOTH",
"140 440 OFFCURVE",
"38 332 OFFCURVE",
"38 193 CURVE SMOOTH",
"38 68 OFFCURVE",
"120 -14 OFFCURVE",
"234 -14 CURVE SMOOTH {name = hr00;}"
);
},
{
closed = 1;
nodes = (
"168 18 OFFCURVE",
"128 74 OFFCURVE",
"128 172 CURVE SMOOTH",
"128 303 OFFCURVE",
"199 399 OFFCURVE",
"291 399 CURVE SMOOTH",
"346 399 OFFCURVE",
"400 365 OFFCURVE",
"423 319 CURVE",
"393 123 OFFCURVE",
"331 18 OFFCURVE",
"237 18 CURVE SMOOTH"
);
}
);
width = 552;
}
);
unicode = 2202;
},
{
glyphname = Delta;
layers = (
{
layerId = master01;
paths = (
{
closed = 1;
nodes = (
"649 24 LINE",
"357 706 LINE",
"315 694 LINE",
"31 24 LINE",
"31 0 LINE",
"649 0 LINE {name = hr00;}"
);
},
{
closed = 1;
nodes = (
"88 47 LINE",
"311 590 LINE",
"538 47 LINE"
);
}
);
width = 680;
}
);
unicode = 2206;
},
{
glyphname = product;
layers = (
{
layerId = master01;
paths = (
{
closed = 1;
nodes = (
"39 700 LINE",
"39 674 LINE",
"133 667 OFFCURVE",
"138 662 OFFCURVE",
"138 607 CURVE SMOOTH",
"138 19 LINE SMOOTH",
"138 -47 OFFCURVE",
"130 -53 OFFCURVE",
"43 -60 CURVE",
"43 -86 LINE",
"311 -86 LINE",
"311 -60 LINE",
"227 -53 OFFCURVE",
"227 -45 OFFCURVE",
"227 19 CURVE SMOOTH",
"227 637 LINE SMOOTH",
"227 662 OFFCURVE",
"232 666 OFFCURVE",
"262 666 CURVE SMOOTH",
"503 666 LINE SMOOTH",
"533 666 OFFCURVE",
"540 663 OFFCURVE",
"540 633 CURVE SMOOTH",
"540 19 LINE SMOOTH",
"540 -50 OFFCURVE",
"534 -54 OFFCURVE",
"447 -60 CURVE",
"447 -86 LINE",
"724 -86 LINE",
"724 -60 LINE",
"634 -54 OFFCURVE",
"628 -46 OFFCURVE",
"628 19 CURVE SMOOTH",
"628 607 LINE SMOOTH",
"628 661 OFFCURVE",
"632 667 OFFCURVE",
"726 674 CURVE",
"726 700 LINE {name = hr00;}"
);
}
);
width = 766;
}
);
unicode = 220F;
},
{
glyphname = summation;
layers = (
{
layerId = master01;
paths = (
{
closed = 1;
nodes = (
"558 113 LINE",
"512 -11 OFFCURVE",
"501 -15 OFFCURVE",
"407 -15 CURVE SMOOTH",
"116 -15 LINE",
"358 341 LINE",
"155 667 LINE",
"376 667 LINE SMOOTH",
"458 667 OFFCURVE",
"474 659 OFFCURVE",
"488 636 CURVE SMOOTH",
"501 615 OFFCURVE",
"515 578 OFFCURVE",
"525 525 CURVE",
"552 531 LINE",
"538 700 LINE",
"42 700 LINE",
"42 675 LINE",
"280 288 LINE",
"36 -65 LINE",
"36 -90 LINE",
"539 -90 LINE",
"586 106 LINE {name = hr00;}"
);
}
);
width = 630;
}
);
unicode = 2211;
},
{
glyphname = minus;
layers = (
{
layerId = master01;
paths = (
{
closed = 1;
nodes = (
"373 355 LINE",
"373 333 LINE",
"73 333 LINE",
"73 355 LINE"
);
}
);
width = 446;
}
);
unicode = 2212;
},
{
glyphname = uni2215;
layers = (
{
layerId = master01;
paths = (
{
closed = 1;
nodes = (
"25 -2 LINE",
"0 -2 LINE",
"357 690 LINE",
"382 690 LINE"
);
}
);
width = 382;
}
);
unicode = 2215;
},
{
glyphname = uni2219;
layers = (
{
layerId = master01;
paths = (
{
closed = 1;
nodes = (
"65 209 OFFCURVE",
"86 186 OFFCURVE",
"117 186 CURVE SMOOTH",
"148 186 OFFCURVE",
"168 209 OFFCURVE",
"168 238 CURVE SMOOTH",
"168 267 OFFCURVE",
"148 289 OFFCURVE",
"117 289 CURVE SMOOTH",
"86 289 OFFCURVE",
"65 267 OFFCURVE",
"65 238 CURVE SMOOTH"
);
}
);
width = 233;
}
);
unicode = 2219;
},
{
glyphname = radical;
layers = (
{
layerId = master01;
paths = (
{
closed = 1;
nodes = (
"506 908 LINE",
"358 12 LINE",
"354 12 LINE",
"167 470 LINE",
"3 390 LINE",
"15 357 LINE",
"109 404 LINE",
"347 -156 LINE",
"368 -144 LINE",
"545 898 LINE {name = hr00;}"
);
}
);
width = 578;
}
);
unicode = 221A;
},
{
glyphname = infinity;
layers = (
{
layerId = master01;
paths = (
{
closed = 1;
nodes = (
"756 385 OFFCURVE",
"694 450 OFFCURVE",
"604 450 CURVE SMOOTH",
"516 450 OFFCURVE",
"462 386 OFFCURVE",
"412 329 CURVE",
"358 394 OFFCURVE",
"299 450 OFFCURVE",
"222 450 CURVE SMOOTH",
"128 450 OFFCURVE",
"57 380 OFFCURVE",
"57 284 CURVE SMOOTH",
"57 190 OFFCURVE",
"130 120 OFFCURVE",
"214 120 CURVE SMOOTH",
"298 120 OFFCURVE",
"354 179 OFFCURVE",
"408 242 CURVE",
"480 158 OFFCURVE",
"534 120 OFFCURVE",
"597 120 CURVE SMOOTH",
"679 120 OFFCURVE",
"756 185 OFFCURVE",
"756 288 CURVE SMOOTH {name = hr00;}"
);
},
{
closed = 1;
nodes = (
"158 174 OFFCURVE",
"114 223 OFFCURVE",
"114 282 CURVE SMOOTH",
"114 345 OFFCURVE",
"153 398 OFFCURVE",
"216 398 CURVE SMOOTH",
"288 398 OFFCURVE",
"335 337 OFFCURVE",
"378 282 CURVE",
"339 237 OFFCURVE",
"286 174 OFFCURVE",
"221 174 CURVE SMOOTH"
);
},
{
closed = 1;
nodes = (
"657 398 OFFCURVE",
"700 354 OFFCURVE",
"700 284 CURVE SMOOTH",
"700 232 OFFCURVE",
"664 174 OFFCURVE",
"600 174 CURVE SMOOTH",
"546 174 OFFCURVE",
"508 210 OFFCURVE",
"441 287 CURVE",
"476 324 OFFCURVE",
"529 398 OFFCURVE",
"598 398 CURVE SMOOTH"
);
}
);
width = 814;
}
);
unicode = 221E;
},
{
glyphname = integral;
layers = (
{
layerId = master01;
paths = (
{
closed = 1;
nodes = (
"157 7 OFFCURVE",
"158 -5 OFFCURVE",
"158 -16 CURVE SMOOTH",
"158 -103 OFFCURVE",
"141 -159 OFFCURVE",
"112 -159 CURVE SMOOTH",
"89 -159 OFFCURVE",
"89 -109 OFFCURVE",
"61 -109 CURVE SMOOTH",
"32 -109 OFFCURVE",
"10 -130 OFFCURVE",
"10 -155 CURVE SMOOTH",
"10 -181 OFFCURVE",
"35 -203 OFFCURVE",
"72 -203 CURVE SMOOTH",
"155 -203 OFFCURVE",
"232 -136 OFFCURVE",
"232 153 CURVE SMOOTH",
"232 182 OFFCURVE",
"232 213 OFFCURVE",
"230 247 CURVE SMOOTH",
"211 641 LINE SMOOTH",
"210 654 OFFCURVE",
"210 666 OFFCURVE",
"210 677 CURVE SMOOTH",
"210 789 OFFCURVE",
"236 816 OFFCURVE",
"257 816 CURVE SMOOTH",
"281 816 OFFCURVE",
"279 769 OFFCURVE",
"312 769 CURVE SMOOTH",
"334 769 OFFCURVE",
"355 783 OFFCURVE",
"355 812 CURVE SMOOTH",
"355 843 OFFCURVE",
"319 858 OFFCURVE",
"293 858 CURVE SMOOTH",
"210 858 OFFCURVE",
"134 790 OFFCURVE",
"134 515 CURVE SMOOTH",
"134 490 OFFCURVE",
"134 463 OFFCURVE",
"136 434 CURVE SMOOTH",
"157 19 LINE {name = hr00;}"
);
}
);
width = 365;
}
);
unicode = 222B;
},
{
glyphname = approxequal;
layers = (
{
layerId = master01;
paths = (
{
closed = 1;
nodes = (
"122 263 OFFCURVE",
"102 248 OFFCURVE",
"102 225 CURVE",
"77 225 LINE",
"77 263 OFFCURVE",
"109 288 OFFCURVE",
"159 288 CURVE SMOOTH",
"217 288 OFFCURVE",
"284 250 OFFCURVE",
"334 250 CURVE SMOOTH",
"366 250 OFFCURVE",
"386 266 OFFCURVE",
"386 288 CURVE",
"411 288 LINE",
"411 250 OFFCURVE",
"378 225 OFFCURVE",
"330 225 CURVE SMOOTH",
"275 225 OFFCURVE",
"208 263 OFFCURVE",
"155 263 CURVE SMOOTH"
);
},
{
closed = 1;
nodes = (
"122 419 OFFCURVE",
"102 404 OFFCURVE",
"102 381 CURVE",
"77 381 LINE",
"77 419 OFFCURVE",
"109 444 OFFCURVE",
"159 444 CURVE SMOOTH",
"217 444 OFFCURVE",
"284 406 OFFCURVE",
"334 406 CURVE SMOOTH",
"366 406 OFFCURVE",
"386 422 OFFCURVE",
"386 444 CURVE",
"411 444 LINE",
"411 406 OFFCURVE",
"378 381 OFFCURVE",
"330 381 CURVE SMOOTH",
"275 381 OFFCURVE",
"208 419 OFFCURVE",
"155 419 CURVE SMOOTH"
);
}
);
width = 483;
}
);
unicode = 2248;
},
{
glyphname = notequal;
layers = (
{
layerId = master01;
paths = (
{
closed = 1;
nodes = (
"117 119 LINE",
"94 119 LINE",
"312 540 LINE",
"335 540 LINE"
);
},
{
closed = 1;
nodes = (
"388 250 LINE",
"381 228 LINE",
"51 228 LINE",
"58 250 LINE"
);
},
{
closed = 1;
nodes = (
"388 435 LINE",
"381 413 LINE",
"51 413 LINE",
"58 435 LINE"
);
}
);
width = 442;
}
);
unicode = 2260;
},
{
glyphname = lozenge;
layers = (
{
layerId = master01;
paths = (
{
closed = 1;
nodes = (
"317 748 LINE",
"253 748 LINE",
"34 335 LINE",
"252 -75 LINE",
"317 -75 LINE",
"535 335 LINE {name = hr00;}"
);
},
{
closed = 1;
nodes = (
"288 -15 LINE",
"283 -15 LINE",
"100 336 LINE",
"283 686 LINE",
"288 686 LINE",
"470 335 LINE"
);
}
);
width = 569;
}
);
unicode = 25CA;
},
{
glyphname = commaaccent;
layers = (
{
anchors = (
{
name = _bottom;
position = "{82, 0}";
}
);
layerId = master01;
paths = (
{
closed = 1;
nodes = (
"96 -224 OFFCURVE",
"119 -184 OFFCURVE",
"119 -142 CURVE SMOOTH",
"119 -106 OFFCURVE",
"102 -82 OFFCURVE",
"77 -82 CURVE SMOOTH",
"58 -82 OFFCURVE",
"45 -96 OFFCURVE",
"45 -116 CURVE SMOOTH",
"45 -150 OFFCURVE",
"83 -150 OFFCURVE",
"83 -187 CURVE SMOOTH",
"83 -208 OFFCURVE",
"70 -234 OFFCURVE",
"50 -249 CURVE",
"54 -254 LINE"
);
}
);
width = 164;
}
);
unicode = F6C3;
},
{
glyphname = f_f;
layers = (
{
layerId = master01;
paths = (
{
closed = 1;
nodes = (
"85 424 LINE",
"85 489 LINE SMOOTH",
"85 608 OFFCURVE",
"155 706 OFFCURVE",
"268 706 CURVE SMOOTH",
"306 706 OFFCURVE",
"335 692 OFFCURVE",
"355 667 CURVE",
"385 707 OFFCURVE",
"434 733 OFFCURVE",
"485 733 CURVE SMOOTH",
"537 733 OFFCURVE",
"582 706 OFFCURVE",
"582 674 CURVE SMOOTH",
"582 654 OFFCURVE",
"566 638 OFFCURVE",
"544 638 CURVE SMOOTH",
"523 638 OFFCURVE",
"512 652 OFFCURVE",
"506 679 CURVE SMOOTH",
"499 711 OFFCURVE",
"490 720 OFFCURVE",
"469 720 CURVE SMOOTH",
"439 720 OFFCURVE",
"416 702 OFFCURVE",
"402 668 CURVE SMOOTH",
"391 640 OFFCURVE",
"388 610 OFFCURVE",
"388 537 CURVE SMOOTH",
"388 424 LINE",
"481 424 LINE",
"476 408 LINE",
"388 408 LINE",
"388 18 LINE",
"475 8 LINE",
"475 0 LINE",
"272 0 LINE",
"272 8 LINE",
"323 16 LINE",
"323 408 LINE",
"150 408 LINE",
"150 18 LINE",
"217 8 LINE",
"217 0 LINE",
"24 0 LINE",
"24 8 LINE",
"85 16 LINE",
"85 408 LINE",
"18 408 LINE",
"23 424 LINE {name = hr00;}"
);
},
{
closed = 1;
nodes = (
"323 672 OFFCURVE",
"303 693 OFFCURVE",
"267 693 CURVE SMOOTH",
"197 693 OFFCURVE",
"150 657 OFFCURVE",
"150 502 CURVE SMOOTH",
"150 424 LINE",
"323 424 LINE",
"323 633 LINE SMOOTH"
);
}
);
width = 501;
}
);
leftKerningGroup = f;
rightKerningGroup = f;
unicode = FB00;
},
{
glyphname = f_i;
layers = (
{
layerId = master01;
paths = (
{
closed = 1;
nodes = (
"463 0 LINE",
"276 0 LINE",
"276 8 LINE",
"337 16 LINE",
"337 396 LINE",
"238 408 LINE",
"150 408 LINE",
"150 18 LINE",
"227 8 LINE",
"227 0 LINE",
"24 0 LINE",
"24 8 LINE",
"85 16 LINE",
"85 408 LINE",
"18 408 LINE",
"23 424 LINE",
"85 424 LINE",
"85 517 LINE SMOOTH",
"85 645 OFFCURVE",
"161 734 OFFCURVE",
"271 734 CURVE SMOOTH",
"340 734 OFFCURVE",
"393 696 OFFCURVE",
"393 647 CURVE SMOOTH",
"393 622 OFFCURVE",
"378 606 OFFCURVE",
"354 606 CURVE SMOOTH",
"332 606 OFFCURVE",
"319 620 OFFCURVE",
"313 650 CURVE SMOOTH",
"300 708 OFFCURVE",
"290 721 OFFCURVE",
"258 721 CURVE SMOOTH",
"191 721 OFFCURVE",
"150 649 OFFCURVE",
"150 530 CURVE SMOOTH",
"150 424 LINE",
"243 424 LINE",
"394 435 LINE",
"402 435 LINE",
"402 16 LINE",
"463 8 LINE {name = hr00;}"
);
}
);
width = 479;
}
);
leftKerningGroup = f;
rightKerningGroup = i;
unicode = FB01;
},
{
glyphname = f_l;
layers = (
{
layerId = master01;
paths = (
{
closed = 1;
nodes = (
"85 424 LINE",
"85 517 LINE SMOOTH",
"85 644 OFFCURVE",
"161 734 OFFCURVE",
"270 734 CURVE SMOOTH",
"339 734 OFFCURVE",
"393 706 OFFCURVE",
"393 618 CURVE SMOOTH",
"393 16 LINE",
"454 8 LINE",
"454 0 LINE",
"277 0 LINE",
"277 8 LINE",
"328 16 LINE",
"328 408 LINE",
"150 408 LINE",
"150 18 LINE",
"217 8 LINE",
"217 0 LINE",
"24 0 LINE",
"24 8 LINE",
"85 16 LINE",
"85 408 LINE",
"18 408 LINE",
"23 424 LINE"
);
},
{
closed = 1;
nodes = (
"328 700 OFFCURVE",
"307 721 OFFCURVE",
"267 721 CURVE SMOOTH",
"193 721 OFFCURVE",
"150 651 OFFCURVE",
"150 530 CURVE SMOOTH",
"150 424 LINE",
"328 424 LINE",
"328 653 LINE SMOOTH"
);
}
);
width = 472;
}
);
leftKerningGroup = f;
rightKerningGroup = l;
unicode = FB02;
},
{
glyphname = f_f_i;
layers = (
{
layerId = master01;
paths = (
{
closed = 1;
nodes = (
"85 424 LINE",
"85 489 LINE SMOOTH",
"85 608 OFFCURVE",
"155 706 OFFCURVE",
"268 706 CURVE SMOOTH",
"311 706 OFFCURVE",
"343 689 OFFCURVE",
"362 657 CURVE",
"395 705 OFFCURVE",
"446 734 OFFCURVE",
"509 734 CURVE SMOOTH",
"578 734 OFFCURVE",
"631 696 OFFCURVE",
"631 647 CURVE SMOOTH",
"631 622 OFFCURVE",
"616 606 OFFCURVE",
"592 606 CURVE SMOOTH",
"570 606 OFFCURVE",
"557 620 OFFCURVE",
"551 650 CURVE SMOOTH",
"538 708 OFFCURVE",
"528 721 OFFCURVE",
"496 721 CURVE SMOOTH",
"429 721 OFFCURVE",
"388 649 OFFCURVE",
"388 530 CURVE SMOOTH",
"388 424 LINE",
"481 424 LINE",
"632 435 LINE",
"640 435 LINE",
"640 16 LINE",
"701 8 LINE",
"701 0 LINE",
"514 0 LINE",
"514 8 LINE",
"575 16 LINE",
"575 402 LINE",
"476 408 LINE",
"388 408 LINE",
"388 18 LINE",
"465 8 LINE",
"465 0 LINE",
"262 0 LINE",
"262 8 LINE",
"323 16 LINE",
"323 408 LINE",
"150 408 LINE",
"150 18 LINE",
"217 8 LINE",
"217 0 LINE",
"24 0 LINE",
"24 8 LINE",
"85 16 LINE",
"85 408 LINE",
"18 408 LINE",
"23 424 LINE"
);
},
{
closed = 1;
nodes = (
"323 672 OFFCURVE",
"303 693 OFFCURVE",
"267 693 CURVE SMOOTH",
"203 693 OFFCURVE",
"150 657 OFFCURVE",
"150 502 CURVE SMOOTH",
"150 424 LINE",
"323 424 LINE",
"323 617 LINE SMOOTH"
);
}
);
width = 717;
}
);
leftKerningGroup = f;
rightKerningGroup = i;
unicode = FB03;
},
{
glyphname = f_f_l;
layers = (
{
layerId = master01;
paths = (
{
closed = 1;
nodes = (
"85 424 LINE",
"85 489 LINE SMOOTH",
"85 608 OFFCURVE",
"155 706 OFFCURVE",
"268 706 CURVE SMOOTH",
"311 706 OFFCURVE",
"343 689 OFFCURVE",
"362 657 CURVE",
"395 705 OFFCURVE",
"446 734 OFFCURVE",
"508 734 CURVE SMOOTH",
"577 734 OFFCURVE",
"631 696 OFFCURVE",
"631 648 CURVE SMOOTH",
"631 16 LINE",
"692 8 LINE",
"692 0 LINE",
"515 0 LINE",
"515 8 LINE",
"566 16 LINE",
"566 408 LINE",
"388 408 LINE",
"388 18 LINE",
"455 8 LINE",
"455 0 LINE",
"262 0 LINE",
"262 8 LINE",
"323 16 LINE",
"323 408 LINE",
"150 408 LINE",
"150 18 LINE",
"217 8 LINE",
"217 0 LINE",
"24 0 LINE",
"24 8 LINE",
"85 16 LINE",
"85 408 LINE",
"18 408 LINE",
"23 424 LINE"
);
},
{
closed = 1;
nodes = (
"431 721 OFFCURVE",
"388 651 OFFCURVE",
"388 530 CURVE SMOOTH",
"388 424 LINE",
"566 424 LINE",
"566 650 LINE SMOOTH",
"566 700 OFFCURVE",
"546 721 OFFCURVE",
"505 721 CURVE SMOOTH"
);
},
{
closed = 1;
nodes = (
"323 672 OFFCURVE",
"303 693 OFFCURVE",
"267 693 CURVE SMOOTH",
"203 693 OFFCURVE",
"150 657 OFFCURVE",
"150 502 CURVE SMOOTH",
"150 424 LINE",
"323 424 LINE",
"323 617 LINE SMOOTH"
);
}
);
width = 710;
}
);
leftKerningGroup = f;
rightKerningGroup = l;
unicode = FB04;
},
{
glyphname = s_t;
layers = (
{
layerId = master01;
paths = (
{
closed = 1;
nodes = (
"202 434 OFFCURVE",
"208 434 OFFCURVE",
"214 433 CURVE",
"189 449 OFFCURVE",
"176 477 OFFCURVE",
"176 511 CURVE SMOOTH",
"176 581 OFFCURVE",
"241 637 OFFCURVE",
"320 637 CURVE SMOOTH",
"423 637 OFFCURVE",
"479 561 OFFCURVE",
"481 424 CURVE",
"595 424 LINE",
"589 408 LINE",
"481 408 LINE",
"481 102 LINE SMOOTH",
"481 79 OFFCURVE",
"485 61 OFFCURVE",
"492 50 CURVE",
"500 34 OFFCURVE",
"516 26 OFFCURVE",
"537 26 CURVE SMOOTH {name = hr01;}",
"559 26 OFFCURVE",
"577 36 OFFCURVE",
"601 60 CURVE",
"605 57 LINE",
"585 16 OFFCURVE",
"546 -10 OFFCURVE",
"504 -10 CURVE SMOOTH",
"483 -10 OFFCURVE",
"462 -3 OFFCURVE",
"447 8 CURVE SMOOTH",
"425 24 OFFCURVE",
"416 47 OFFCURVE",
"416 89 CURVE SMOOTH",
"416 409 LINE",
"369 409 LINE",
"375 424 LINE",
"419 424 LINE",
"419 487 LINE SMOOTH",
"419 581 OFFCURVE",
"385 627 OFFCURVE",
"317 627 CURVE SMOOTH",
"252 627 OFFCURVE",
"206 579 OFFCURVE",
"206 508 CURVE SMOOTH",
"206 466 OFFCURVE",
"221 436 OFFCURVE",
"247 430 CURVE SMOOTH",
"262 427 OFFCURVE",
"276 424 OFFCURVE",
"286 420 CURVE",
"286 309 LINE",
"275 309 LINE",
"257 389 OFFCURVE",
"230 423 OFFCURVE",
"182 423 CURVE SMOOTH",
"138 423 OFFCURVE",
"109 394 OFFCURVE",
"109 348 CURVE SMOOTH",
"109 228 OFFCURVE",
"303 272 OFFCURVE",
"303 122 CURVE SMOOTH",
"303 41 OFFCURVE",
"247 -10 OFFCURVE",
"159 -10 CURVE SMOOTH {name = hr02;}",
"126 -10 OFFCURVE",
"82 -2 OFFCURVE",
"54 8 CURVE",
"49 138 LINE",
"61 138 LINE",
"75 45 OFFCURVE",
"108 1 OFFCURVE",
"163 1 CURVE SMOOTH {name = hr03;}",
"212 1 OFFCURVE",
"244 35 OFFCURVE",
"244 86 CURVE SMOOTH",
"244 212 OFFCURVE",
"49 171 OFFCURVE",
"49 316 CURVE SMOOTH",
"49 391 OFFCURVE",
"102 434 OFFCURVE",
"196 434 CURVE SMOOTH"
);
}
);
width = 611;
}
);
leftKerningGroup = s;
rightKerningGroup = t;
unicode = FB06;
},
{
glyphname = e_t;
layers = (
{
layerId = master01;
paths = (
{
closed = 1;
nodes = (
"476 424 LINE",
"432 424 LINE",
"426 409 LINE",
"473 409 LINE",
"473 89 LINE SMOOTH",
"473 47 OFFCURVE",
"482 24 OFFCURVE",
"504 8 CURVE SMOOTH",
"519 -3 OFFCURVE",
"540 -10 OFFCURVE",
"561 -10 CURVE SMOOTH",
"603 -10 OFFCURVE",
"642 16 OFFCURVE",
"662 57 CURVE",
"658 60 LINE",
"634 36 OFFCURVE",
"616 26 OFFCURVE",
"594 26 CURVE SMOOTH",
"573 26 OFFCURVE",
"557 34 OFFCURVE",
"549 50 CURVE",
"542 61 OFFCURVE",
"538 79 OFFCURVE",
"538 102 CURVE SMOOTH",
"538 408 LINE {name = hr01;}",
"646 408 LINE",
"652 424 LINE {name = hr02;}",
"538 424 LINE",
"536 561 OFFCURVE",
"475 637 OFFCURVE",
"367 637 CURVE SMOOTH {name = hr03;}",
"276 637 OFFCURVE",
"203 581 OFFCURVE",
"203 512 CURVE SMOOTH",
"203 477 OFFCURVE",
"217 450 OFFCURVE",
"241 434 CURVE",
"121 434 OFFCURVE",
"40 343 OFFCURVE",
"40 211 CURVE SMOOTH",
"40 80 OFFCURVE",
"115 -10 OFFCURVE",
"225 -10 CURVE SMOOTH",
"298 -10 OFFCURVE",
"353 30 OFFCURVE",
"379 101 CURVE SMOOTH",
"383 112 LINE",
"379 114 LINE",
"370 102 LINE SMOOTH",
"337 60 OFFCURVE",
"293 40 OFFCURVE",
"249 40 CURVE SMOOTH",
"162 40 OFFCURVE",
"109 102 OFFCURVE",
"109 226 CURVE SMOOTH",
"109 240 OFFCURVE",
"109 254 OFFCURVE",
"111 267 CURVE {name = hr04;}",
"381 267 LINE",
"387 272 LINE",
"385 366 OFFCURVE",
"342 413 OFFCURVE",
"269 432 CURVE SMOOTH",
"245 438 OFFCURVE",
"233 469 OFFCURVE",
"233 509 CURVE SMOOTH",
"233 579 OFFCURVE",
"287 627 OFFCURVE",
"364 627 CURVE SMOOTH",
"439 627 OFFCURVE",
"476 581 OFFCURVE",
"476 487 CURVE"
);
},
{
closed = 1;
nodes = (
"276 423 OFFCURVE",
"309 401 OFFCURVE",
"309 325 CURVE SMOOTH",
"309 310 OFFCURVE",
"308 293 OFFCURVE",
"306 285 CURVE",
"112 278 LINE",
"124 365 OFFCURVE",
"167 423 OFFCURVE",
"230 423 CURVE SMOOTH {name = hr05;}"
);
}
);
width = 668;
}
);
leftKerningGroup = o;
rightKerningGroup = t;
},
{
glyphname = f_t;
layers = (
{
layerId = master01;
paths = (
{
closed = 1;
nodes = (
"87 424 LINE",
"87 517 LINE SMOOTH",
"87 645 OFFCURVE",
"163 734 OFFCURVE",
"273 734 CURVE SMOOTH",
"342 734 OFFCURVE",
"395 696 OFFCURVE",
"395 647 CURVE SMOOTH",
"395 622 OFFCURVE",
"380 606 OFFCURVE",
"356 606 CURVE SMOOTH",
"334 606 OFFCURVE",
"321 620 OFFCURVE",
"315 650 CURVE SMOOTH",
"302 708 OFFCURVE",
"292 721 OFFCURVE",
"260 721 CURVE SMOOTH",
"193 721 OFFCURVE",
"152 649 OFFCURVE",
"152 530 CURVE SMOOTH",
"152 424 LINE",
"324 424 LINE",
"385 510 LINE",
"389 509 LINE",
"389 424 LINE",
"503 424 LINE",
"497 408 LINE",
"389 408 LINE",
"389 102 LINE SMOOTH",
"389 79 OFFCURVE",
"393 61 OFFCURVE",
"400 50 CURVE",
"408 34 OFFCURVE",
"424 26 OFFCURVE",
"445 26 CURVE SMOOTH",
"467 26 OFFCURVE",
"485 36 OFFCURVE",
"509 60 CURVE",
"513 57 LINE",
"493 16 OFFCURVE",
"454 -10 OFFCURVE",
"412 -10 CURVE SMOOTH",
"391 -10 OFFCURVE",
"370 -3 OFFCURVE",
"355 8 CURVE SMOOTH",
"333 24 OFFCURVE",
"324 47 OFFCURVE",
"324 89 CURVE SMOOTH",
"324 409 LINE",
"152 409 LINE",
"152 18 LINE",
"229 8 LINE",
"229 0 LINE",
"26 0 LINE",
"26 8 LINE",
"87 16 LINE",
"87 409 LINE",
"20 409 LINE",
"25 424 LINE"
);
}
);
width = 519;
}
);
leftKerningGroup = f;
rightKerningGroup = t;
},
{
glyphname = f_f_b;
layers = (
{
layerId = master01;
paths = (
{
closed = 1;
nodes = (
"86 424 LINE",
"86 489 LINE SMOOTH",
"86 608 OFFCURVE",
"156 706 OFFCURVE",
"269 706 CURVE SMOOTH",
"311 706 OFFCURVE",
"343 689 OFFCURVE",
"362 659 CURVE",
"392 706 OFFCURVE",
"439 734 OFFCURVE",
"495 734 CURVE SMOOTH",
"564 734 OFFCURVE",
"618 696 OFFCURVE",
"618 648 CURVE SMOOTH",
"618 377 LINE",
"653 415 OFFCURVE",
"694 434 OFFCURVE",
"741 434 CURVE SMOOTH",
"841 434 OFFCURVE",
"908 351 OFFCURVE",
"908 228 CURVE SMOOTH",
"908 91 OFFCURVE",
"823 -10 OFFCURVE",
"707 -10 CURVE SMOOTH",
"666 -10 OFFCURVE",
"627 3 OFFCURVE",
"595 27 CURVE",
"591 27 LINE",
"561 0 LINE",
"553 0 LINE",
"553 408 LINE",
"389 408 LINE",
"389 18 LINE",
"456 8 LINE",
"456 0 LINE",
"263 0 LINE",
"263 8 LINE",
"324 16 LINE",
"324 408 LINE",
"151 408 LINE",
"151 18 LINE",
"218 8 LINE",
"218 0 LINE",
"25 0 LINE",
"25 8 LINE",
"86 16 LINE",
"86 408 LINE",
"19 408 LINE",
"24 424 LINE"
);
},
{
closed = 1;
nodes = (
"783 0 OFFCURVE",
"833 82 OFFCURVE",
"833 207 CURVE SMOOTH",
"833 329 OFFCURVE",
"785 404 OFFCURVE",
"707 404 CURVE SMOOTH",
"671 404 OFFCURVE",
"638 388 OFFCURVE",
"618 362 CURVE",
"618 101 LINE SMOOTH",
"618 40 OFFCURVE",
"653 0 OFFCURVE",
"706 0 CURVE SMOOTH"
);
},
{
closed = 1;
nodes = (
"428 721 OFFCURVE",
"389 651 OFFCURVE",
"389 530 CURVE SMOOTH",
"389 424 LINE",
"553 424 LINE",
"553 650 LINE SMOOTH",
"553 700 OFFCURVE",
"533 721 OFFCURVE",
"492 721 CURVE SMOOTH"
);
},
{
closed = 1;
nodes = (
"324 672 OFFCURVE",
"304 693 OFFCURVE",
"268 693 CURVE SMOOTH",
"198 693 OFFCURVE",
"151 657 OFFCURVE",
"151 502 CURVE SMOOTH",
"151 424 LINE",
"324 424 LINE",
"324 633 LINE SMOOTH"
);
}
);
width = 948;
}
);
leftKerningGroup = f;
rightKerningGroup = b;
},
{
glyphname = f_f_h;
layers = (
{
layerId = master01;
paths = (
{
closed = 1;
nodes = (
"85 424 LINE",
"85 489 LINE SMOOTH",
"85 608 OFFCURVE",
"155 706 OFFCURVE",
"268 706 CURVE SMOOTH",
"310 706 OFFCURVE",
"342 689 OFFCURVE",
"361 659 CURVE",
"391 706 OFFCURVE",
"438 734 OFFCURVE",
"494 734 CURVE SMOOTH",
"563 734 OFFCURVE",
"617 696 OFFCURVE",
"617 648 CURVE SMOOTH",
"617 369 LINE",
"658 411 OFFCURVE",
"704 434 OFFCURVE",
"748 434 CURVE SMOOTH",
"788 434 OFFCURVE",
"823 415 OFFCURVE",
"839 385 CURVE SMOOTH",
"848 367 OFFCURVE",
"850 346 OFFCURVE",
"850 271 CURVE SMOOTH",
"850 16 LINE",
"911 8 LINE",
"911 0 LINE",
"724 0 LINE",
"724 8 LINE",
"785 16 LINE",
"785 271 LINE SMOOTH",
"785 326 OFFCURVE",
"783 345 OFFCURVE",
"775 361 CURVE SMOOTH",
"764 384 OFFCURVE",
"739 397 OFFCURVE",
"707 397 CURVE SMOOTH",
"672 397 OFFCURVE",
"642 382 OFFCURVE",
"617 354 CURVE",
"617 16 LINE",
"678 8 LINE",
"678 0 LINE",
"491 0 LINE",
"491 8 LINE",
"552 16 LINE",
"552 408 LINE",
"388 408 LINE",
"388 18 LINE",
"445 8 LINE",
"445 0 LINE",
"262 0 LINE",
"262 8 LINE",
"323 16 LINE",
"323 408 LINE",
"150 408 LINE",
"150 18 LINE",
"217 8 LINE",
"217 0 LINE",
"24 0 LINE",
"24 8 LINE",
"85 16 LINE",
"85 408 LINE",
"18 408 LINE",
"23 424 LINE"
);
},
{
closed = 1;
nodes = (
"427 721 OFFCURVE",
"388 651 OFFCURVE",
"388 530 CURVE SMOOTH",
"388 424 LINE",
"552 424 LINE",
"552 650 LINE SMOOTH",
"552 700 OFFCURVE",
"532 721 OFFCURVE",
"491 721 CURVE SMOOTH"
);
},
{
closed = 1;
nodes = (
"323 424 LINE",
"323 633 LINE SMOOTH",
"323 672 OFFCURVE",
"303 693 OFFCURVE",
"267 693 CURVE SMOOTH",
"197 693 OFFCURVE",
"150 657 OFFCURVE",
"150 502 CURVE SMOOTH",
"150 424 LINE"
);
}
);
width = 926;
}
);
leftKerningGroup = f;
rightKerningGroup = n;
},
{
glyphname = nine.denominator;
layers = (
{
layerId = master01;
paths = (
{
closed = 1;
nodes = (
"69 314 OFFCURVE",
"26 271 OFFCURVE",
"26 209 CURVE SMOOTH",
"26 151 OFFCURVE",
"62 112 OFFCURVE",
"118 112 CURVE SMOOTH",
"138 112 OFFCURVE",
"155 120 OFFCURVE",
"167 134 CURVE",
"161 71 OFFCURVE",
"132 31 OFFCURVE",
"71 -8 CURVE",
"74 -14 LINE",
"171 22 OFFCURVE",
"234 102 OFFCURVE",
"234 198 CURVE SMOOTH",
"234 269 OFFCURVE",
"194 314 OFFCURVE",
"131 314 CURVE"
);
},
{
closed = 1;
nodes = (
"155 304 OFFCURVE",
"173 264 OFFCURVE",
"173 209 CURVE SMOOTH",
"173 190 OFFCURVE",
"173 165 OFFCURVE",
"168 149 CURVE",
"159 135 OFFCURVE",
"147 128 OFFCURVE",
"134 128 CURVE SMOOTH",
"104 128 OFFCURVE",
"88 160 OFFCURVE",
"88 218 CURVE SMOOTH",
"88 269 OFFCURVE",
"103 304 OFFCURVE",
"128 304 CURVE"
);
}
);
width = 266;
}
);
},
